<svg id="_3937895_business_concept_plan_strategic_strategy_icon" data-name="3937895_business_concept_plan_strategic_strategy_icon" xmlns="http://www.w3.org/2000/svg" width="72.972" height="72.972" viewBox="0 0 72.972 72.972">
  <path id="Caminho_187665" data-name="Caminho 187665" d="M220.6,168.094a25.368,25.368,0,0,0-1.044,9.208c.327,5.373,1.044,13.3,1.044,13.3h2.148l.955-17.915v-4.33Z" transform="translate(-156.933 -120.179)" fill="#271b5f"/>
  <path id="Caminho_187666" data-name="Caminho 187666" d="M233.8,168.258a8,8,0,0,1,1.2,3.841c.239,2.56-2.125,18.483-2.125,18.483h-2.235l-1.428-18.443.415-4.043Z" transform="translate(-163.88 -120.18)" fill="#271b5f"/>
  <path id="Caminho_187667" data-name="Caminho 187667" d="M223.066,128.428a5.86,5.86,0,0,0-3.771,1.5c-.647.477-.288,4.564,0,6.53s.216,3.44,1.51,3.44,4.782.324,5.645,0,1.654-9.025.9-9.816A5.765,5.765,0,0,0,223.066,128.428Z" transform="translate(-156.526 -91.819)" fill="#ffbc00"/>
  <path id="Caminho_187668" data-name="Caminho 187668" d="M229.465,128.428a4.807,4.807,0,0,0-1.506.214c0,.012-.584,2.317,1.506,2.317a2.582,2.582,0,0,0,2.368-2.118A7.115,7.115,0,0,0,229.465,128.428Z" transform="translate(-162.925 -91.819)" fill="#ffa36c"/>
  <path id="Caminho_187669" data-name="Caminho 187669" d="M211.908,133.693c-1.043.98-1.51,3.342-2.121,6.53s-1.187,5.094-1.187,5.094.827.5,1.258.719a25.649,25.649,0,0,0,2.561-5.106C213.2,138.52,211.908,133.693,211.908,133.693Z" transform="translate(-149.139 -95.584)" fill="#ffbc00"/>
  <path id="Caminho_187670" data-name="Caminho 187670" d="M223.993,103.176a2.361,2.361,0,0,0-2,2.631,4.781,4.781,0,0,0,.063.761,5.387,5.387,0,0,0,1.117,2.58,1.238,1.238,0,0,0,1.075.5,4.128,4.128,0,0,0,2.195-1.3,3.388,3.388,0,0,0,.926-1.933A2.884,2.884,0,0,0,223.993,103.176Z" transform="translate(-158.718 -73.73)" fill="#ffa36c"/>
  <path id="Caminho_187671" data-name="Caminho 187671" d="M225.476,103.114c-.305,1.847-1.876,3.258-1.918,2.631a12.581,12.581,0,0,0-.359-1.565c-.291-1.072-.647-2.26-.647-2.26a4.066,4.066,0,0,1-2.357-1.44,4.469,4.469,0,0,1-1.445,1.157,4.781,4.781,0,0,0,.063.761,5.386,5.386,0,0,0,1.117,2.58s-.476,1.22-.955,1.191-1.049-1.893-1.442-3.948a4.556,4.556,0,0,1,1.573-4.318,2.252,2.252,0,0,1,1.876-.174s.262-.436,1.4-.436C225.345,97.293,225.784,101.264,225.476,103.114Z" transform="translate(-155.469 -69.56)" fill="#ff3f25"/>
  <path id="Caminho_187672" data-name="Caminho 187672" d="M228.794,121.614l.26,2.408,2.385-.236-.213-3.363Z" transform="translate(-163.577 -86.097)" fill="#ffa36c"/>
  <path id="Caminho_187673" data-name="Caminho 187673" d="M205.369,175.189s.284,1.539-.217,2.19-.35-.576-.576-.951-.551,1.5-1.026,1.5a1.624,1.624,0,0,1-1.229-1.37c-.022-.632,1.79-2.09,1.79-2.09Z" transform="translate(-144.649 -124.738)" fill="#ffa36c"/>
  <path id="Caminho_187674" data-name="Caminho 187674" d="M214.5,247.061a9.1,9.1,0,0,1-2.441,1.491c-.989.275-1.978,1.054.33,1.054s3.544,0,3.983,0,.742-.64.577-1.274-.3-1.274-.3-1.274Z" transform="translate(-150.839 -176.637)" fill="#763900"/>
  <path id="Caminho_187675" data-name="Caminho 187675" d="M225.681,247.061a9.1,9.1,0,0,1-2.441,1.491c-.989.275-1.978,1.054.33,1.054s3.544,0,3.983,0,.742-.64.577-1.274-.3-1.274-.3-1.274Z" transform="translate(-158.831 -176.637)" fill="#763900"/>
  <path id="Caminho_187676" data-name="Caminho 187676" d="M217.909,134.07l6.04-.323a.322.322,0,0,1,.337.28l1,7.79a.322.322,0,0,1-.3.363l-6.014.329a.322.322,0,0,1-.337-.279l-1.028-7.8A.322.322,0,0,1,217.909,134.07Z" transform="translate(-155.576 -95.623)" fill="#fff"/>
  <path id="Caminho_187677" data-name="Caminho 187677" d="M233.941,133.733a7.473,7.473,0,0,1,1.978,6.616c-.719,2.733-1.726,3.02-3.488,2.193a21.22,21.22,0,0,1-4.279-3.344l.719-1.618s3.128,2.174,3.56,2.04S231.963,132.258,233.941,133.733Z" transform="translate(-163.118 -95.471)" fill="#ffbc00"/>
  <path id="Caminho_187678" data-name="Caminho 187678" d="M221.449,142.882a4.707,4.707,0,0,0-.719-.9c-.342-.29-.788-1.2-1.056-1s-.044.781.156,1.115-1.539-.6-1.829.044-.468,1.65.491,1.963a5.774,5.774,0,0,0,2.421,0Z" transform="translate(-155.695 -100.773)" fill="#ffa36c"/>
  <path id="Caminho_187679" data-name="Caminho 187679" d="M46.118,89.155H2.17A2.17,2.17,0,0,1,0,86.985V24.8a2.17,2.17,0,0,1,2.17-2.17H46.118a2.17,2.17,0,0,1,2.17,2.17V86.985A2.169,2.169,0,0,1,46.118,89.155Z" transform="translate(0 -16.182)" fill="#f3cbaf"/>
  <rect id="Retângulo_90896" data-name="Retângulo 90896" width="57.969" height="39.737" transform="translate(44.012 9.872) rotate(90)" fill="#fff"/>
  <path id="Caminho_187680" data-name="Caminho 187680" d="M65.9,24.264H45.886a1.477,1.477,0,0,1-1.477-1.477v-4.14a1.526,1.526,0,0,1,1.526-1.526H65.854a1.526,1.526,0,0,1,1.526,1.526v4.14A1.478,1.478,0,0,1,65.9,24.264Z" transform="translate(-31.75 -12.24)" fill="#98cdef"/>
  <circle id="Elipse_5756" data-name="Elipse 5756" cx="4.786" cy="4.786" r="4.786" transform="translate(19.358 0)" fill="#98cdef"/>
  <path id="Caminho_187681" data-name="Caminho 187681" d="M42.277,119.8l2.776-2.707a1.425,1.425,0,1,0-1.99-2.041l-2.776,2.707-2.707-2.777a1.425,1.425,0,0,0-2.041,1.99l2.707,2.777L35.47,122.46a1.425,1.425,0,1,0,1.99,2.041l2.776-2.707,2.707,2.776a1.425,1.425,0,0,0,2.041-1.99Z" transform="translate(-25.052 -81.902)" fill="#ff3f25"/>
  <path id="Caminho_187682" data-name="Caminho 187682" d="M90.411,182.548l2.776-2.707A1.425,1.425,0,1,0,91.2,177.8l-2.777,2.707-2.707-2.776a1.425,1.425,0,0,0-2.041,1.99L86.38,182.5,83.6,185.2a1.425,1.425,0,1,0,1.99,2.041l2.777-2.707,2.707,2.776a1.425,1.425,0,0,0,2.041-1.99Z" transform="translate(-59.465 -126.761)" fill="#ff3f25"/>
  <path id="Caminho_187683" data-name="Caminho 187683" d="M63.025,79.482l-7.519-.6a1.425,1.425,0,0,0-1.535,1.535l.6,7.519a1.426,1.426,0,0,0,1.419,1.311c.038,0,.077,0,.116,0A1.425,1.425,0,0,0,57.417,87.7l-.309-3.838A7.6,7.6,0,0,1,59.169,90.3c-.785,4.432-5.916,8.926-12.476,10.931-5.19,1.585-8.686,4.461-10.391,8.547a18.306,18.306,0,0,0-.585,11,1.425,1.425,0,0,0,2.783-.619c-1.276-5.742-.746-13.213,9.026-16.2a26.426,26.426,0,0,0,9.3-5.024A14.331,14.331,0,0,0,61.976,90.8,10.349,10.349,0,0,0,59.3,82.042l3.5.281a1.425,1.425,0,1,0,.229-2.841Z" transform="translate(-25.136 -56.39)" fill="#0082fb"/>
  <path id="Caminho_187684" data-name="Caminho 187684" d="M51.974,69.486a6.354,6.354,0,1,1,6.354-6.354A6.361,6.361,0,0,1,51.974,69.486Zm0-9.857a3.5,3.5,0,1,0,3.5,3.5A3.508,3.508,0,0,0,51.974,59.628Z" transform="translate(-32.616 -40.594)" fill="#0082fb"/>
  <path id="Caminho_187685" data-name="Caminho 187685" d="M186.192,165.955s1.176,3.011,0,5.3-.685,8.353-.464,10.17,1.934,7.654,1.934,7.654h-2.49s-2.648-4.591-3.27-7.81a61.267,61.267,0,0,1,0-14.479Z" transform="translate(-129.743 -118.65)" fill="#ff3f25"/>
  <path id="Caminho_187686" data-name="Caminho 187686" d="M189.621,121.026c2.038,1.373,4.186,4.3,3.828,6.8a10.715,10.715,0,0,1-2.455,4.8Z" transform="translate(-135.57 -86.528)" fill="#271b5f"/>
  <path id="Caminho_187687" data-name="Caminho 187687" d="M156.4,92.559c-1.858.3-2.6,2.741-1.951,5.018s1.719,2.9,2.184,2.626.669-.343.948.122l.929,1.552,2.49-.954a7.3,7.3,0,0,1-1.022-2.834C159.743,96.415,161.6,91.722,156.4,92.559Z" transform="translate(-110.256 -66.104)" fill="#ffa36c"/>
  <path id="Caminho_187688" data-name="Caminho 187688" d="M150.892,94.321a11.95,11.95,0,0,0,1.686,2.2,2.207,2.207,0,0,0,2.187.166c.458-.373.293-2.279.293-2.279a1.8,1.8,0,0,0,.426-2.061,1.606,1.606,0,0,0-.178-2.149,4.534,4.534,0,0,0-5.826-.744s-1.9-.7-2.4-.083.62,1.488.62,1.488-1.2.372-1.2.909,1.57,1.036,1.57,1.036-.537,1.071-.041,1.2S150.388,93.507,150.892,94.321Z" transform="translate(-104.743 -63.417)" fill="#271b5f"/>
  <path id="Caminho_187689" data-name="Caminho 187689" d="M155.482,123.48a2.693,2.693,0,0,1,.836-2.419,9.736,9.736,0,0,1,4.253-2.4c2.947-.641,4.8.18,5.188,1.275a60.106,60.106,0,0,1,1.666,9.358c0,1.794.7,2.818-.833,3.267s-6.021,1.345-6.918.769C158.878,132.813,156.116,127.455,155.482,123.48Z" transform="translate(-111.138 -84.672)" fill="#0082fb"/>
  <path id="Caminho_187690" data-name="Caminho 187690" d="M138.392,130.07c1.453.289,2.538,3.887,1,6.239a6.3,6.3,0,0,1-5.531,3.171,11.894,11.894,0,0,1-4.705-1.534,1.718,1.718,0,0,1,1.125-2.148s2.833.869,3.989.256S135.817,129.559,138.392,130.07Z" transform="translate(-92.293 -92.971)" fill="#271b5f"/>
  <path id="Caminho_187691" data-name="Caminho 187691" d="M168.073,169.505a4.712,4.712,0,0,1,.851,3.245,3.653,3.653,0,0,1-2.388,3.115s-2.6,6.9-2.6,8.613a59.283,59.283,0,0,0,1.194,7.112s-1.765.052-2.6,0a16.879,16.879,0,0,1-2.388-10.382,53.2,53.2,0,0,1,2.816-11.367Z" transform="translate(-114.431 -121.188)" fill="#ff3f25"/>
  <path id="Caminho_187692" data-name="Caminho 187692" d="M161.178,246.98a8.745,8.745,0,0,1,.4,1.311c.072.467.611,1.257-1.9,1.257h-4.526c-.611,0-.9-.754-.287-.97s2.885-.359,3.724-1.6Z" transform="translate(-110.474 -176.579)" fill="#271b5f"/>
  <path id="Caminho_187693" data-name="Caminho 187693" d="M186.012,247.061a3.816,3.816,0,0,1-1.6,1.108c-.97.323-1.868.359-1.76.934s1.228.5,2.751.5h2.781c.682,0,1.194-.472.754-1.509l-.44-1.036Z" transform="translate(-130.584 -176.637)" fill="#271b5f"/>
  <path id="Caminho_187694" data-name="Caminho 187694" d="M121.333,142.717s-.34-.655-.56-1.039-.514-1.962-.918-1.962-.367,1.065-.367,1.652-2.827-1.359-2.9-.844.367.808,1.1,1.4c0,0-.294,1.983.771,2.166s1.688.294,1.688.294Z" transform="translate(-83.349 -99.89)" fill="#ffa36c"/>
  <path id="Caminho_187695" data-name="Caminho 187695" d="M159.1,104.712s.179-.852.884-.692.961,1.442.417,2.051-.833.417-.833.417Z" transform="translate(-113.75 -74.355)" fill="#ffa36c"/>
  <path id="Caminho_187696" data-name="Caminho 187696" d="M156.652,102.226s.682,1.646.938,1.624,0-2.331,0-2.331Z" transform="translate(-111.999 -72.58)" fill="#271b5f"/>
</svg>
