<svg xmlns="http://www.w3.org/2000/svg" xmlns:xlink="http://www.w3.org/1999/xlink" width="327.389" height="97.254" viewBox="0 0 327.389 97.254">
  <defs>
    <clipPath id="clip-path">
      <rect id="Retângulo_90898" data-name="Retângulo 90898" width="327.389" height="97.254" fill="none"/>
    </clipPath>
  </defs>
  <g id="Grupo_126550" data-name="Grupo 126550" transform="translate(-796 -1226.373)">
    <g id="Grupo_126518" data-name="Grupo 126518" transform="translate(796 1226.373)">
      <g id="Grupo_126518-2" data-name="Grupo 126518" clip-path="url(#clip-path)">
        <path id="Caminho_187697" data-name="Caminho 187697" d="M336.211,223.313a15.992,15.992,0,0,0,4.987,11.692,16.5,16.5,0,0,0,12.036,4.986,16.16,16.16,0,0,0,11.864-4.814,15.993,15.993,0,0,0,4.987-11.864,16.334,16.334,0,0,0-4.987-11.864,16.161,16.161,0,0,0-11.864-4.987,16.5,16.5,0,0,0-12.036,4.987,16.161,16.161,0,0,0-4.987,11.864m-22.525-.172a39.163,39.163,0,0,1,39.376-39.376,38.174,38.174,0,0,1,21.665,6.534,39.89,39.89,0,0,1,14.616,17.539,38,38,0,0,1,3.095,15.475,38.511,38.511,0,0,1-5.158,19.6,39.035,39.035,0,0,1-14.271,14.272,38.356,38.356,0,0,1-19.775,5.33,39.22,39.22,0,0,1-39.548-39.376" transform="translate(-230.464 -165.195)" fill="#fff"/>
        <path id="Caminho_187698" data-name="Caminho 187698" d="M246,227.288a16.164,16.164,0,0,1-11.864,4.815,16.509,16.509,0,0,1-12.037-4.986,15.993,15.993,0,0,1-4.987-11.693,16.163,16.163,0,0,1,4.987-11.864,16.509,16.509,0,0,1,12.037-4.986A16.165,16.165,0,0,1,246,203.559a16.336,16.336,0,0,1,4.986,11.864A15.989,15.989,0,0,1,246,227.288m6.878-69.639v22.525h-.344l-2.751-1.032-2.407-.86-3.439-1.032-3.439-.516h-4.987a39.207,39.207,0,0,0-11,1.719h-.343l-1.2.344a40.407,40.407,0,0,0-20.806,17.023,42.349,42.349,0,0,0-2.408,4.815,38.519,38.519,0,0,0-3.095,15.3v.516a11.6,11.6,0,0,1,.172,2.064,38.341,38.341,0,0,0,10.833,24.417,41.533,41.533,0,0,0,5.158,4.643l3.267,2.064a38.692,38.692,0,0,0,12.381,4.471l2.923.343h7.05a38.169,38.169,0,0,0,17.195-5.158A38.687,38.687,0,0,0,275.4,215.939v-58.29Z" transform="translate(-196.651 -157.65)" fill="#fff"/>
        <path id="Caminho_187699" data-name="Caminho 187699" d="M464.819,274.362a9.627,9.627,0,0,0,3.1,7.05,9.973,9.973,0,0,0,7.222,2.923,9.8,9.8,0,0,0,7.222-2.923,9.63,9.63,0,0,0,2.923-7.222,9.974,9.974,0,0,0-2.923-7.222,9.8,9.8,0,0,0-7.222-2.923,9.976,9.976,0,0,0-7.222,2.923,9.8,9.8,0,0,0-3.1,7.222" transform="translate(-274.129 -188.388)" fill="#ff3131"/>
        <path id="Caminho_187700" data-name="Caminho 187700" d="M456.79,251.877a11.35,11.35,0,0,1-3.439-8.254,12.036,12.036,0,0,1,11.864-11.864,16.164,16.164,0,0,1-6.534-3.439l-.688-.516-.344-.343h-.172l-.343-.344h-.172a15.816,15.816,0,0,1-4.643-11.348,17.023,17.023,0,0,1,13.928-16.679V176.736h-1.032l-3.439.516-3.44,1.032-2.579.688L453.007,180h-.343V157.65H430.482v58.29a38.857,38.857,0,0,0,1.719,11.52l1.032,2.751a39.544,39.544,0,0,0,16.679,19.6,38.17,38.17,0,0,0,9.285,3.955,12.371,12.371,0,0,1-2.579-1.891" transform="translate(-264.208 -157.65)" fill="#fff"/>
        <path id="Caminho_187701" data-name="Caminho 187701" d="M528.419,221.887a8.943,8.943,0,0,0,2.063-6.706q0-6.533-3.954-8.081a12.56,12.56,0,0,0-4.3-.688h-4.814v17.367H522.4a8.6,8.6,0,0,0,6.19-2.064m1.2-14.271q2.579,2.407,2.579,7.737,0,9.974-9.8,9.973h-6.19a.243.243,0,0,1-.344-.343V205.38a.192.192,0,1,1,.172-.343h6.018a10.314,10.314,0,0,1,7.222,2.407" transform="translate(-288.896 -171.335)" fill="#fff"/>
        <path id="Caminho_187702" data-name="Caminho 187702" d="M544.787,225.06a.688.688,0,0,1-.172-.516V205.8a.687.687,0,0,1,.172-.516h1.032a.688.688,0,0,1,.172.516v18.743a.688.688,0,0,1-.172.516Z" transform="translate(-297.183 -171.413)" fill="#fff"/>
        <path id="Caminho_187703" data-name="Caminho 187703" d="M569.891,209.856a8.248,8.248,0,0,0-1.719-2.063,6.382,6.382,0,0,0-2.236-1.2l-3.439-.343a9.292,9.292,0,0,0-4.643,1.032,7.227,7.227,0,0,0-2.923,3.094,11.759,11.759,0,0,0,0,9.63,7.4,7.4,0,0,0,2.923,3.095,9.121,9.121,0,0,0,4.643,1.2,9.454,9.454,0,0,0,6.19-1.719,7.569,7.569,0,0,0,2.236-5.5H563.7a.858.858,0,0,1,0-1.031h8.941a9.8,9.8,0,0,1-2.579,7.394,12.55,12.55,0,0,1-12.9,1.031,8.946,8.946,0,0,1-3.611-3.61,11.526,11.526,0,0,1-1.2-5.5,11.706,11.706,0,0,1,1.2-5.5,8.764,8.764,0,0,1,3.611-3.61,11.011,11.011,0,0,1,5.33-1.2,11.35,11.35,0,0,1,5.158,1.033,8.759,8.759,0,0,1,3.44,3.267v.343a.686.686,0,0,1-.344.687h-.344l-.688-.343" transform="translate(-299.417 -171.34)" fill="#fff"/>
        <path id="Caminho_187704" data-name="Caminho 187704" d="M586.379,225.06a.685.685,0,0,1-.172-.516V205.8a.684.684,0,0,1,.172-.516h1.032a.69.69,0,0,1,.172.516v18.743a.691.691,0,0,1-.172.516Z" transform="translate(-309.199 -171.413)" fill="#fff"/>
        <path id="Caminho_187705" data-name="Caminho 187705" d="M599.525,225.373a.688.688,0,0,1-.172-.516V206.8h-5.5a.688.688,0,0,1,0-1.031h12.209a.858.858,0,0,1,0,1.031h-5.33v18.055a.688.688,0,0,1-.172.516Z" transform="translate(-311.341 -171.553)" fill="#fff"/>
        <path id="Caminho_187706" data-name="Caminho 187706" d="M620.506,206.559l-4.986,13.068h10.316Zm7.566,18.571L626.352,221H615l-1.547,4.126a.688.688,0,0,1-.688.344h-.516a.344.344,0,0,1-.171-.344,2.232,2.232,0,0,1,.171-.688l7.222-18.571v-.343h2.063v.343l7.394,18.571a1.721,1.721,0,0,1,.172.688c0,.172,0,.344-.172.344H627.9v-.344" transform="translate(-316.674 -171.483)" fill="#fff"/>
        <path id="Caminho_187707" data-name="Caminho 187707" d="M652.1,225.232h-9.457a.192.192,0,1,1-.343-.172V205.8a.686.686,0,0,1,.172-.516H643.5a.686.686,0,0,1,.172.516v18.054h8.77a.689.689,0,0,1,0,1.032H652.1" transform="translate(-325.4 -171.413)" fill="#fff"/>
        <path id="Caminho_187708" data-name="Caminho 187708" d="M533.619,247.438a8.1,8.1,0,0,0-1.719-2.064A6.362,6.362,0,0,0,529.664,244l-3.439-.344a9.292,9.292,0,0,0-4.643,1.032,7.226,7.226,0,0,0-2.923,3.1,11.524,11.524,0,0,0,0,9.629,7.4,7.4,0,0,0,2.923,3.1,9.113,9.113,0,0,0,4.643,1.2,9.624,9.624,0,0,0,6.19-1.719,7.567,7.567,0,0,0,2.236-5.5h-7.222a.859.859,0,0,1,0-1.032h8.941a9.8,9.8,0,0,1-2.579,7.394,12.552,12.552,0,0,1-12.9,1.032,8.944,8.944,0,0,1-3.611-3.611,11.522,11.522,0,0,1-1.2-5.5,11.7,11.7,0,0,1,1.2-5.5,8.769,8.769,0,0,1,3.611-3.611,11.007,11.007,0,0,1,5.33-1.375,11.331,11.331,0,0,1,5.158,1.032,8.769,8.769,0,0,1,3.44,3.267v.344a.689.689,0,0,1-.344.688h-.344l-.688-.344" transform="translate(-288.937 -182.099)" fill="#fff"/>
        <path id="Caminho_187709" data-name="Caminho 187709" d="M561.01,253.428a5.677,5.677,0,0,0,1.376-4.3,4.3,4.3,0,0,0-1.376-3.439,6.017,6.017,0,0,0-4.126-1.2h-5.159V254.8h5.159a5.677,5.677,0,0,0,4.126-1.376m-10.833-10.661h6.362a8.08,8.08,0,0,1,3.611.86,5.674,5.674,0,0,1,3.267,5.33,7.564,7.564,0,0,1-1.2,4.3,5.672,5.672,0,0,1-3.267,2.236l3.44,6.362.343.86h-.86l-.688-.344-3.783-6.706h-5.846v6.362a.69.69,0,0,1-.172.516h-1.032a.685.685,0,0,1-.172-.516V243.111h.344" transform="translate(-298.789 -182.242)" fill="#fff"/>
        <path id="Caminho_187710" data-name="Caminho 187710" d="M592.367,252.834A9.285,9.285,0,0,0,590.3,246.3a9.973,9.973,0,0,0-12.724,0,9.459,9.459,0,0,0-2.063,6.534,9.116,9.116,0,0,0,2.235,6.706,9.8,9.8,0,0,0,12.553,0,9.116,9.116,0,0,0,2.235-6.534m-18.914-.172a10.489,10.489,0,0,1,2.579-7.566,9.8,9.8,0,0,1,7.394-2.751,10.834,10.834,0,0,1,5.33,1.2,8.763,8.763,0,0,1,3.439,3.611,11.348,11.348,0,0,1,1.376,5.5,10.318,10.318,0,0,1-2.579,7.566,11.521,11.521,0,0,1-14.616,0,10.315,10.315,0,0,1-2.579-7.566" transform="translate(-305.559 -182.165)" fill="#fff"/>
        <path id="Caminho_187711" data-name="Caminho 187711" d="M623.017,243.008a.689.689,0,0,1,.172.516v11.521a8.942,8.942,0,0,1-1.892,6.19,7.219,7.219,0,0,1-5.674,2.235,7.908,7.908,0,0,1-6.018-2.063,8.941,8.941,0,0,1-1.891-6.362V243.524a.686.686,0,0,1,.172-.516h1.032a.688.688,0,0,1,.171.516v11.693a10.319,10.319,0,0,0,.688,3.954,4.125,4.125,0,0,0,2.063,2.236,8.426,8.426,0,0,0,3.783.688q6.191,0,6.19-6.878V243.524a.688.688,0,0,1,.172-.516h1.032" transform="translate(-315.403 -182.311)" fill="#fff"/>
        <path id="Caminho_187712" data-name="Caminho 187712" d="M642.553,254.943a4.9,4.9,0,0,0,5.5-5.674,4.3,4.3,0,0,0-1.376-3.439,6.02,6.02,0,0,0-4.127-1.2H637.4v10.317Zm-6.361,7.909a.686.686,0,0,1-.172-.516V243.251h6.706a8.073,8.073,0,0,1,3.611.86,5.672,5.672,0,0,1,3.267,5.33,6.875,6.875,0,0,1-1.891,5.158,7.049,7.049,0,0,1-5.159,1.719H637.4v6.362a.693.693,0,0,1-.172.516h-1.032" transform="translate(-323.591 -182.381)" fill="#fff"/>
      </g>
    </g>
  </g>
</svg>
