<svg xmlns="http://www.w3.org/2000/svg" width="69.445" height="69.445" viewBox="0 0 69.445 69.445">
  <g id="_3937890_business_concept_problem_solution_strategy_icon" data-name="3937890_business_concept_problem_solution_strategy_icon" transform="translate(0)">
    <path id="Caminho_187591" data-name="Caminho 187591" d="M66.97,73.478c-1.967,0-3.3-1.127-3.3-3.673s1.335-3.673,3.3-3.673c1.779,0,3.536,2.773,3.855.793V59.156H63.9c-3.389,0,0-1.94,0-3.907s-1.127-3.3-3.673-3.3-3.673,1.335-3.673,3.3,3.389,3.907,0,3.907H49.577V77.742a2.713,2.713,0,0,0,2.713,2.713H70.825v-7.77C70.506,70.705,68.749,73.478,66.97,73.478Z" transform="translate(-36.128 -37.856)" fill="#b3e2fc"/>
    <path id="Caminho_187592" data-name="Caminho 187592" d="M123,82.424c0,1.967-1.127,3.3-3.673,3.3s-3.673-1.335-3.673-3.3,3.389-3.907,0-3.907h-6.977v7.77c-.319,1.98-2.076-.793-3.855-.793-1.967,0-3.3,1.127-3.3,3.673s1.335,3.673,3.3,3.673c1.779,0,3.536-2.773,3.855-.793v7.77h18.587a2.713,2.713,0,0,0,2.713-2.713V78.517H123C119.613,78.517,123,80.457,123,82.424Z" transform="translate(-73.983 -57.218)" fill="#271b5f"/>
    <path id="Caminho_187593" data-name="Caminho 187593" d="M146.63,0H128.1V7.77c.319,1.98,2.076-.793,3.855-.793,1.967,0,3.3,1.127,3.3,3.673s-1.334,3.673-3.3,3.673c-1.779,0-3.536-2.773-3.855-.793V21.3h6.925c3.389,0,0,1.94,0,3.907s1.127,3.3,3.673,3.3,3.673-1.335,3.673-3.3-3.389-3.907,0-3.907h6.977V2.713A2.713,2.713,0,0,0,146.63,0Z" transform="translate(-93.347)" fill="#ff3f25"/>
    <path id="Caminho_187594" data-name="Caminho 187594" d="M74.731,6.977c-1.779,0-3.536,2.773-3.855.793V0H52.29a2.713,2.713,0,0,0-2.713,2.713V21.3h6.977c3.389,0,0-1.94,0-3.907s1.127-3.3,3.673-3.3,3.673,1.335,3.673,3.3S60.51,21.3,63.9,21.3h6.977v-7.77c.319-1.98,2.076.793,3.855.793,1.967,0,3.3-1.127,3.3-3.673S76.7,6.977,74.731,6.977Z" transform="translate(-36.128)" fill="#2d9bee"/>
    <path id="Caminho_187595" data-name="Caminho 187595" d="M228.219,177.861c.053,1.133.118,7.676.118,7.676a9.352,9.352,0,0,1,1.762,3.537,24.5,24.5,0,0,0,1,3.537l-1.441,1.12s-3.73-4.693-4.342-6.72-.465-6.9-.465-6.9Z" transform="translate(-163.846 -129.613)" fill="#271b5f"/>
    <path id="Caminho_187596" data-name="Caminho 187596" d="M215.1,99.826c-.908,1.291-.908,3.483-.944,5.316s.487,1.689.944,1.617,2.829-.521,2.829-.521l-.827-5.7Z" transform="translate(-156.06 -72.746)" fill="#ff3f25"/>
    <path id="Caminho_187597" data-name="Caminho 187597" d="M219.452,98.366c-1.5.1-1.744,1.433-1.806,3.177s.369,3.187.9,3.162,1.028-.172,1.077,0,.173,2.247.173,2.247l2.222-.37a17.946,17.946,0,0,1-.33-2.909C221.727,102.666,224.077,98.055,219.452,98.366Z" transform="translate(-158.601 -71.671)" fill="#ffa36c"/>
    <path id="Caminho_187598" data-name="Caminho 187598" d="M218.649,95.352a2.63,2.63,0,0,0-2.552,2.983c.144,1.366,2.048,1.4,2.552,2.408s.5,2.552,1.042,2.552,3.342-.216,3.342-.791a29.413,29.413,0,0,0-1.222-5.534A3.026,3.026,0,0,0,218.649,95.352Z" transform="translate(-157.464 -69.461)" fill="#ff3f25"/>
    <path id="Caminho_187599" data-name="Caminho 187599" d="M210.662,141.015l-2.345-.4-.252,1.258,2.875,1.294Z" transform="translate(-151.623 -102.474)" fill="#ffbc00"/>
    <path id="Caminho_187600" data-name="Caminho 187600" d="M220.34,126.075a3.433,3.433,0,0,0-3.708,1.594c-1.006,1.581-1.4,3.306-.989,4.1a7.143,7.143,0,0,1,.917,4.348h4.42s.144-2.506.467-5.026S220.922,126.313,220.34,126.075Z" transform="translate(-157.029 -91.787)" fill="#ffbc00"/>
    <path id="Caminho_187601" data-name="Caminho 187601" d="M222.708,129.261c-1.312,0-1.25,1.577-.624,3.4.467,1.366.7,1.653.225,2.048s-2.453,1.716-2.453,1.716l.34,1.123s3.015.193,4.727-1.581C225.893,134.966,225.31,129.27,222.708,129.261Z" transform="translate(-160.216 -94.197)" fill="#ffbc00"/>
    <path id="Caminho_187602" data-name="Caminho 187602" d="M203.991,155.688l-1.41.416s-.9-.489-1.317-.208-.561.855-1.439.921-1.427-.348-1.731.31c-.146.317,1.487.624,2,.654a20.5,20.5,0,0,0,2.711-.751c.313-.049,1.527-.219,1.527-.219Z" transform="translate(-144.351 -113.455)" fill="#ffa36c"/>
    <path id="Caminho_187603" data-name="Caminho 187603" d="M193.175,135.545l-1.925-.447s-.482-.927-1.033-1.1-.472.393-.984.174-1.536-.818-1.877-.336.683.946,1.414,1.409a8.773,8.773,0,0,0,2.213.777l1.942.778Z" transform="translate(-136.482 -97.399)" fill="#ffa36c"/>
    <path id="Caminho_187604" data-name="Caminho 187604" d="M215.484,163.405a5.607,5.607,0,0,1-.293,5.585,41.161,41.161,0,0,0-3.065,6.19,11.5,11.5,0,0,1-.614,3.714c-.684,2.063-1.527,5.247-1.527,5.247H207.94a79.433,79.433,0,0,1,.449-8.725,110.523,110.523,0,0,1,2.675-12.01h4.42Z" transform="translate(-151.532 -119.078)" fill="#271b5f"/>
    <path id="Caminho_187605" data-name="Caminho 187605" d="M195.23,239.844s-.082,1.235-.164,1.7-2.7,1.418-3.791,1.664-.982,1.009,0,1.009h5.292c.518,0,.464-.927.382-1.936a8.55,8.55,0,0,1,.326-2.435Z" transform="translate(-138.822 -174.782)" fill="#ffa36c"/>
    <path id="Caminho_187606" data-name="Caminho 187606" d="M239.5,233.358a17.545,17.545,0,0,1,1.012,1.551,7.743,7.743,0,0,1-1.282,2.809c-.355.355-1.009.491-.873.764s.6.191,1.418.191,1.773-1.48,2.482-2.186,1.227-1.005.573-1.769-1.889-2.48-1.889-2.48Z" transform="translate(-173.684 -169.239)" fill="#ffa36c"/>
    <path id="Caminho_187607" data-name="Caminho 187607" d="M191.276,251.469h5.292c.472,0,.468-.771.4-1.671a20.961,20.961,0,0,1-3.851.908,2.053,2.053,0,0,1-1.252-.4c-.222.066-.426.121-.592.158C190.185,250.705,190.294,251.469,191.276,251.469Z" transform="translate(-138.822 -182.036)" fill="#763900"/>
    <path id="Caminho_187608" data-name="Caminho 187608" d="M242.514,239.971a18.323,18.323,0,0,1-2.129,2.9,1.159,1.159,0,0,1-1.014.294,1.388,1.388,0,0,1-.143.183c-.355.355-1.009.491-.873.764s.6.191,1.418.191,1.773-1.48,2.482-2.186,1.227-1.005.573-1.769C242.734,240.243,242.627,240.112,242.514,239.971Z" transform="translate(-173.684 -174.875)" fill="#763900"/>
    <path id="Caminho_187609" data-name="Caminho 187609" d="M1.338,179.461a7.533,7.533,0,0,0-.276,2.622c.138,1.276.844,1.345,1.319,1.345a1.394,1.394,0,0,0,1.3-1.242,16.3,16.3,0,0,0-.514-2.726Z" transform="translate(-0.753 -130.779)" fill="#ffa36c"/>
    <path id="Caminho_187610" data-name="Caminho 187610" d="M2.416,118.164s-1.634.676-2.175,4.552,0,12.076,0,12.076H2.416l.84-6.038Z" transform="translate(0 -86.11)" fill="#271b5f"/>
    <path id="Caminho_187611" data-name="Caminho 187611" d="M15.982,89.631c.53.364.951,2.008.951,3.207s.035,2.748-.951,2.713-.987.035-.987.529a11.048,11.048,0,0,1-.317,1.727L12,97.207a21.942,21.942,0,0,0,.669-2.854c.035-.7-1.163-2.748-.352-3.841A2.76,2.76,0,0,1,15.982,89.631Z" transform="translate(-8.745 -65.032)" fill="#ffa36c"/>
    <path id="Caminho_187612" data-name="Caminho 187612" d="M11.478,84.125a5.585,5.585,0,0,0,1.515-.916.664.664,0,0,1,1.163.458,4.158,4.158,0,0,1-.211,1.019s1.092.215.775.743-.634,1.128-2.15,1.092a1.369,1.369,0,0,0-1.586,1.2s-.7,2.4-1.426,2.4S7.743,88.107,8.236,86.7c0,0-.846-1.515.141-2.22S10.7,84.266,11.478,84.125Z" transform="translate(-5.756 -60.478)" fill="#271b5f"/>
    <path id="Caminho_187613" data-name="Caminho 187613" d="M15.073,170.159s-.572,7.92-1.19,11.111-3.415,9.505-3.415,9.505H7.245s1.184-5.646,1.6-8.733a29.3,29.3,0,0,0,.1-6.072s-1.453-1.6-1.215-5.225Z" transform="translate(-5.28 -124)" fill="#ff3f25"/>
    <path id="Caminho_187614" data-name="Caminho 187614" d="M22.6,170.159s1.229,9.155.869,12.037-.869,8.579-.869,8.579H19.766v-9.814l-.938-5.531a5.963,5.963,0,0,1-1.181-2.347A4.368,4.368,0,0,1,18,170.527Z" transform="translate(-12.809 -124)" fill="#ff3f25"/>
    <path id="Caminho_187615" data-name="Caminho 187615" d="M6.067,115.554c-1.071.026-2.482,2.488-2.527,5.5s1.487,8.46,1.487,9.9,7.205,1.54,7.7.369-1-11.544-1.961-13.076A6.656,6.656,0,0,0,6.067,115.554Z" transform="translate(-2.579 -84.208)" fill="#2d9bee"/>
    <path id="Caminho_187616" data-name="Caminho 187616" d="M19.966,123.456c-1.219.5-1.016,3.035,0,4.829s2.158,4.814,3.885,4.634,5.2-4.912,5.2-4.912l-1.487-1.487a28.974,28.974,0,0,1-2.929,1.983C24.047,128.728,22.735,122.33,19.966,123.456Z" transform="translate(-13.938 -89.87)" fill="#271b5f"/>
    <path id="Caminho_187617" data-name="Caminho 187617" d="M9.23,246.158a3.613,3.613,0,0,0,2.087,1.358c1.594.493,2.163.455,2.011.949s-1.366.342-2.2.342-3.948.022-4.289.022,0-2.67,0-2.67Z" transform="translate(-4.872 -179.383)" fill="#271b5f"/>
    <path id="Caminho_187618" data-name="Caminho 187618" d="M27.887,246.158a4.99,4.99,0,0,0,3.15,1.671c1.9.142,1.632,1,.8,1l-5.651-.008a.874.874,0,0,1-.871-.919l.09-1.743h2.485Z" transform="translate(-18.444 -179.383)" fill="#271b5f"/>
    <path id="Caminho_187619" data-name="Caminho 187619" d="M50.221,127.241s.292-2.024.774-2.356.422.264.362.886.965-1.543,1.87-1.456a1.681,1.681,0,0,1,.9,2.711,3.479,3.479,0,0,1-2.712,1.415Z" transform="translate(-36.597 -90.591)" fill="#ffa36c"/>
    <path id="Caminho_187620" data-name="Caminho 187620" d="M15.446,100.949s-.249.486-.951-.282-.6-1.9.141-1.938.811.458.811.458v1.762Z" transform="translate(-10.217 -71.946)" fill="#ffa36c"/>
    <path id="Caminho_187621" data-name="Caminho 187621" d="M18.1,94.188s.284,2.691-.387,2.643-1.066-1.938-1.066-1.938Z" transform="translate(-12.131 -68.638)" fill="#271b5f"/>
    <circle id="Elipse_5748" data-name="Elipse 5748" cx="1.22" cy="1.22" r="1.22" transform="translate(43.109 48.591)" fill="#0082fb"/>
    <circle id="Elipse_5749" data-name="Elipse 5749" cx="1.22" cy="1.22" r="1.22" transform="translate(61.958 9.43)" fill="#b3e2fc"/>
    <path id="Caminho_187622" data-name="Caminho 187622" d="M77.882,194.988h-.8v-.8a.61.61,0,1,0-1.22,0v.8h-.8a.61.61,0,1,0,0,1.22h.8v.8a.61.61,0,1,0,1.22,0v-.8h.8a.61.61,0,1,0,0-1.22Z" transform="translate(-54.256 -141.067)" fill="#ffbc00"/>
    <path id="Caminho_187623" data-name="Caminho 187623" d="M15.42,16.357h-.8v-.8a.61.61,0,1,0-1.22,0v.8h-.8a.61.61,0,1,0,0,1.22h.8v.8a.61.61,0,1,0,1.22,0v-.8h.8a.61.61,0,1,0,0-1.22Z" transform="translate(-8.738 -10.892)" fill="#ff3f25"/>
  </g>
</svg>
