<svg xmlns="http://www.w3.org/2000/svg" width="153.775" height="109.074" viewBox="0 0 153.775 109.074">
  <g id="_3366024_archive_content_data_document_file_icon" data-name="3366024_archive_content_data_document_file_icon" transform="translate(0.001 -29.069)">
    <g id="Grupo_104514" data-name="Grupo 104514" transform="translate(-0.001 29.069)">
      <path id="Caminho_187507" data-name="Caminho 187507" d="M144.843,43.222v94.921H17.021a5.767,5.767,0,0,1-5.766-5.766V43.222A3.547,3.547,0,0,1,14.8,39.683h1.755V32.61a3.562,3.562,0,0,1,3.554-3.541H53.7a3.513,3.513,0,0,1,2.5,1.034,3.553,3.553,0,0,1,1.033,2.507v7.074H141.3a3.528,3.528,0,0,1,3.542,3.539Z" transform="translate(-2.601 -29.069)" fill="#f7b64d"/>
      <rect id="Retângulo_75779" data-name="Retângulo 75779" width="120.591" height="86.234" transform="matrix(0.98, -0.199, 0.199, 0.98, 0, 24.566)" fill="#e6eaee"/>
      <path id="Caminho_187508" data-name="Caminho 187508" d="M158.116,61.634v75.193a5.765,5.765,0,0,1-5.77,5.574H18.781a5.769,5.769,0,0,0,5.753-5.766v-75a3.552,3.552,0,0,1,3.537-3.54h84.067V51.031a3.528,3.528,0,0,1,3.529-3.544h33.609a3.544,3.544,0,0,1,3.54,3.544v7.063h1.755a3.545,3.545,0,0,1,3.545,3.54Z" transform="translate(-4.34 -33.326)" fill="#ffd160"/>
      <path id="Caminho_187509" data-name="Caminho 187509" d="M158.116,163.624v-.192H24.535a5.769,5.769,0,0,1-5.753,5.766H152.346A5.764,5.764,0,0,0,158.116,163.624Z" transform="translate(-4.341 -60.124)" fill="#f7b64d"/>
      <g id="Grupo_104513" data-name="Grupo 104513" transform="translate(32.878 37.45)">
        <rect id="Retângulo_75780" data-name="Retângulo 75780" width="26.863" height="10.175" fill="#f7b64d"/>
        <rect id="Retângulo_75781" data-name="Retângulo 75781" width="26.858" height="1.899" transform="translate(29.107)" fill="#f7b64d"/>
        <rect id="Retângulo_75782" data-name="Retângulo 75782" width="26.858" height="1.899" transform="translate(29.107 4.139)" fill="#f7b64d"/>
        <rect id="Retângulo_75783" data-name="Retângulo 75783" width="26.858" height="1.899" transform="translate(29.107 8.276)" fill="#f7b64d"/>
        <rect id="Retângulo_75784" data-name="Retângulo 75784" width="42.536" height="1.899" transform="translate(0 12.417)" fill="#f7b64d"/>
      </g>
    </g>
  </g>
</svg>
