<svg xmlns="http://www.w3.org/2000/svg" width="74.001" height="74.001" viewBox="0 0 74.001 74.001">
  <g id="_3937884_business_creative_creativity_idea_plan_icon" data-name="3937884_business_creative_creativity_idea_plan_icon" transform="translate(0)">
    <path id="XMLID_189_" d="M103.826,20.909a20.909,20.909,0,1,0-41.817,0,20.589,20.589,0,0,0,2.868,10.368A24.111,24.111,0,0,0,68.2,35.611c1.2,1.274,2.81,2.1,3.952,3.418.986,1.137,1.1,5.4,1.581,6.76a4.153,4.153,0,0,0,3.92,2.78H88.2a4.153,4.153,0,0,0,3.913-2.761c.406-1.139.684-5.483,1.315-6.5.787-1.273,2.545-1.926,3.626-2.958a22.051,22.051,0,0,0,3.622-4.392A21.233,21.233,0,0,0,103.826,20.909Z" transform="translate(-44.085)" fill="#ffbc00"/>
    <path id="XMLID_188_" d="M148.047,17.629a1.638,1.638,0,0,1-.648-.134,14.266,14.266,0,0,0-1.471-.539,1.641,1.641,0,0,1,.957-3.14,17.648,17.648,0,0,1,1.811.663,1.641,1.641,0,0,1-.649,3.149Z" transform="translate(-102.919 -9.772)" fill="#fff"/>
    <path id="XMLID_186_" d="M173.3,41.392a1.641,1.641,0,0,1-1.641-1.641,14.213,14.213,0,0,0-4.491-10.415,1.641,1.641,0,1,1,2.256-2.384,17.7,17.7,0,0,1,5.517,12.8A1.641,1.641,0,0,1,173.3,41.392Z" transform="translate(-118.479 -18.842)" fill="#fff"/>
    <path id="Caminho_187627" data-name="Caminho 187627" d="M120.266,80.125a.887.887,0,0,0-1.024.722l-.085.494-1.714,1.137a2.022,2.022,0,0,1-2.291-.047l-1.3-.937a3.784,3.784,0,0,0-4.4-.024l-1.389.982a2.025,2.025,0,0,1-2.279.031l-1.556-1.039-.109-.652a.886.886,0,0,0-1.748.293l3.75,25.258a.886.886,0,0,0,1.748-.293l-3.238-22.207.17.113a3.807,3.807,0,0,0,4.286-.057l1.389-.982a2.012,2.012,0,0,1,2.341.013l1.3.937a3.8,3.8,0,0,0,4.31.087l.319-.212-3.356,22.3a.886.886,0,0,0,.722,1.024.91.91,0,0,0,.152.013.886.886,0,0,0,.872-.735l3.856-25.2A.886.886,0,0,0,120.266,80.125Z" transform="translate(-72.772 -56.913)" fill="#e19e00"/>
    <path id="Caminho_187628" data-name="Caminho 187628" d="M215.3,160.888a38.365,38.365,0,0,0-.756,9.744c.325,5.014,1.857,15.289,1.857,15.289h2.461s.165-12.395.3-15.134l.112-2.242v-6.781Z" transform="translate(-152.483 -114.381)" fill="#ff3f25"/>
    <path id="Caminho_187629" data-name="Caminho 187629" d="M234.516,160.888a77.466,77.466,0,0,1,.551,7.979c.047,4.086-1.114,17.053-1.114,17.053h-2.086L230.682,169.4l.112-7.64Z" transform="translate(-164 -114.381)" fill="#ff3f25"/>
    <path id="Caminho_187630" data-name="Caminho 187630" d="M219.095,87.45l-.42-2.037a.511.511,0,0,1-.647-.615c.065-.776,2.393-1.681,2.393-1.681s-1.229-.453-.388-1,2.425.42,2.425.42,1.132-.984,1.649-.589,0,.913,0,.913,1.746.67,2.134,1.337-.42.862-.42.862l-.841,3.232Z" transform="translate(-155.001 -58.191)" fill="#271b5f"/>
    <path id="Caminho_187631" data-name="Caminho 187631" d="M220.822,93.046s-.46-.744-1.01-.437-.681,2.383.978,2.257c0,0,.307,1.9,1.98,2.056s2.2-1.071,2.676-1.913a1.19,1.19,0,0,0,1.178-.949c.232-.984-.3-1.427-.942-1.062,0,0,.373-2.933-2.265-3.037S220.822,93.046,220.822,93.046Z" transform="translate(-156.008 -63.955)" fill="#ffa36c"/>
    <path id="Caminho_187632" data-name="Caminho 187632" d="M212.213,247.486s-2.717,1.414-3.287,1.635-.538.506,0,.728a41.544,41.544,0,0,0,5.253,0c.759,0,.551-1.447.3-2.363Z" transform="translate(-148.238 -175.946)" fill="#271b5f"/>
    <path id="Caminho_187633" data-name="Caminho 187633" d="M236.751,247.486s3.063,1.414,3.632,1.635.538.506,0,.728a41.547,41.547,0,0,1-5.253,0c-.759,0-.517-1.447-.269-2.363Z" transform="translate(-166.799 -175.946)" fill="#271b5f"/>
    <path id="Caminho_187634" data-name="Caminho 187634" d="M225.568,110.728l-.35,2.744,3.395.184-.275-2.927Z" transform="translate(-160.116 -78.72)" fill="#ffa36c"/>
    <path id="Caminho_187635" data-name="Caminho 187635" d="M215.161,118.43a21.863,21.863,0,0,0-2.944,1.545s.895,9.365,1.472,10.728,7.524.967,7.7,0,1.726-10.478,1.726-10.478l-2.862-1.548-2.58.362Z" transform="translate(-150.873 -84.196)" fill="#0082fb"/>
    <path id="Caminho_187636" data-name="Caminho 187636" d="M234.78,150.019s1.6-.182,2.069.225a1.512,1.512,0,0,0,1.872.368c.7-.469,1.005-.16.905.2a3.144,3.144,0,0,1-2.065,1.543,4.834,4.834,0,0,1-2.429-.807Z" transform="translate(-166.914 -106.625)" fill="#ffa36c"/>
    <path id="Caminho_187637" data-name="Caminho 187637" d="M231.09,117.666l1.579-1.167,1,.805-1.144,1.916Z" transform="translate(-164.29 -82.823)" fill="#271b5f"/>
    <path id="Caminho_187638" data-name="Caminho 187638" d="M223.378,115.791l1.534,1.372-1.345,1.369-1.167-1.978Z" transform="translate(-158.112 -82.32)" fill="#271b5f"/>
    <path id="Caminho_187639" data-name="Caminho 187639" d="M244.788,124.439c1.642.73,1.6,7.025,0,8.392s-2.2-.793-2.069-2.348S242.992,123.641,244.788,124.439Z" transform="translate(-172.546 -88.41)" fill="#271b5f"/>
    <path id="Caminho_187640" data-name="Caminho 187640" d="M209.438,123.664c-1.4.3-1.228,4.151-.9,6.089s.734,4.433,3.111,4.491a12.56,12.56,0,0,0,4.668-.939l-.352-2.025-4.021.235S212.855,122.921,209.438,123.664Z" transform="translate(-148.094 -87.885)" fill="#271b5f"/>
    <path id="Caminho_187641" data-name="Caminho 187641" d="M222.4,90.572s.194,2.134.517,2.134.711-1.779.905-2.522a2.734,2.734,0,0,0,1.811.517c.97-.129.873-.679.873-.679s.42,1.956.97,2.045.809-1.527.809-1.527-.517-2.522-2.522-2.522S222.4,90.572,222.4,90.572Z" transform="translate(-158.112 -62.575)" fill="#271b5f"/>
    <path id="Caminho_187642" data-name="Caminho 187642" d="M229.535,116.885s.4-2.066-.158-2.888-1.248-.246-1.918-.045a1.316,1.316,0,0,0-.878,1.629,9.513,9.513,0,0,0,1.687,2Z" transform="translate(-161.038 -80.739)" fill="#ffa36c"/>
    <path id="Caminho_187643" data-name="Caminho 187643" d="M236.666,117.27a2.461,2.461,0,0,0,.685-1.6c-.07-.811-.935-.651-.935-.651Z" transform="translate(-168.077 -81.763)" fill="#ffa36c"/>
    <path id="Caminho_187644" data-name="Caminho 187644" d="M231.339,125.444l1.989-1.086s3.119,5.245,3.381,6.419.191,2.082-.655,2.445-2.165-.1-2.84-1.8S231.339,125.444,231.339,125.444Z" transform="translate(-164.467 -88.41)" fill="#271b5f"/>
    <path id="Caminho_187645" data-name="Caminho 187645" d="M12.778,93.349a3.785,3.785,0,0,1-1.039-2.243,3.066,3.066,0,0,1,3-2.809l1.865-.071s1.381-1.039,1.776-.8.112,1.275.112,1.275.7-.4.88-.095-.313,1.133-.313,1.133l-.118,2.526Z" transform="translate(-8.346 -62.127)" fill="#763900"/>
    <path id="Caminho_187646" data-name="Caminho 187646" d="M5.147,125.482a8.361,8.361,0,0,0-3.821,3.188c-1.7,2.489-1.834,6.157,0,7.4a20.915,20.915,0,0,0,2.869,1.7l1.323-1.244a16.4,16.4,0,0,1-2.126-2.555c-.429-.852,2.126-3.537,2.126-3.537Z" transform="translate(0 -89.21)" fill="#0082fb"/>
    <path id="Caminho_187647" data-name="Caminho 187647" d="M12.084,163.7a1.469,1.469,0,0,1,0,2.379c-1.357,1.408-2.4,1.916-2.759,1.369s.425-.469.933-1.095a2.445,2.445,0,0,0,.5-1.408Z" transform="translate(-6.565 -116.382)" fill="#ffa36c"/>
    <path id="Caminho_187648" data-name="Caminho 187648" d="M4.613,247.989s-2.46,1.268-3.03,1.489-.538.506,0,.728a41.541,41.541,0,0,0,5.253,0c.759,0,.621-1.3.374-2.217Z" transform="translate(-0.83 -176.304)" fill="#763900"/>
    <path id="Caminho_187649" data-name="Caminho 187649" d="M42.121,247.989s2.46,1.268,3.03,1.489.538.506,0,.728a41.541,41.541,0,0,1-5.253,0c-.759,0-.621-1.3-.374-2.217Z" transform="translate(-27.959 -176.304)" fill="#763900"/>
    <path id="Caminho_187650" data-name="Caminho 187650" d="M14.061,167.639s-2.107,8.957-1.365,23.12h2.6s1.942-13.4,2.239-16.374c0,0,2.338,14.642,2.894,16.374h2.648S22.75,174.4,21.3,167.49Z" transform="translate(-8.914 -119.075)" fill="#271b5f"/>
    <path id="Caminho_187651" data-name="Caminho 187651" d="M14.667,98.525s-.619-.619-1.083-.193-.116,2.476,1.47,1.973a2.452,2.452,0,0,0,2.4,1.547c1.663-.232,1.9-1.547,2.166-2.476a1.19,1.19,0,0,0,.928-1.194c0-1.011-.619-1.32-1.161-.818,0,0-.31-2.94-2.9-2.437S14.667,98.525,14.667,98.525Z" transform="translate(-9.522 -67.446)" fill="#ffa36c"/>
    <path id="Caminho_187652" data-name="Caminho 187652" d="M21.865,113.778l.4,3.329,1.771.283,1.346-1.015-.354-3.3Z" transform="translate(-15.545 -80.385)" fill="#ffa36c"/>
    <path id="Caminho_187653" data-name="Caminho 187653" d="M36.248,109.357s4.987-2.727,7.28-5.478l1.376,1.79a50.59,50.59,0,0,1-6.616,7.773C34.553,116.914,36.248,109.357,36.248,109.357Z" transform="translate(-25.497 -73.851)" fill="#0082fb"/>
    <path id="Caminho_187654" data-name="Caminho 187654" d="M20.676,119.6a40.552,40.552,0,0,1,.59,7.847c-.2,3.461.2,6.015-.852,6.146s-5.97,0-6.922,0S11.739,122.3,11.739,122.3l1.754-1,3.155.088,2.448-.855Z" transform="translate(-8.346 -85.026)" fill="#0082fb"/>
    <path id="Caminho_187655" data-name="Caminho 187655" d="M26.114,126.933l.331,1.1H27.8l.157-1.263-1.091-.985Z" transform="translate(-18.566 -89.427)" fill="#ff3f25"/>
    <path id="Caminho_187656" data-name="Caminho 187656" d="M24.779,133.565s-.511,5.481-1.008,7.906c0,0,1.375,1.616,1.889,2.1l1.607-2.129-1.13-7.875H24.779Z" transform="translate(-16.9 -94.956)" fill="#ff3f25"/>
    <path id="Caminho_187657" data-name="Caminho 187657" d="M62.374,102.632l.448-.507,1.287,1.4-.36.893Z" transform="translate(-44.344 -72.604)" fill="#98cdef"/>
    <path id="Caminho_187658" data-name="Caminho 187658" d="M62.114,85.683c-.429.195.587,3.444.587,3.827a4.352,4.352,0,0,1-.139.9l1.287,1.4s1.148-1.126.974-1.926-1.069-1.461-1.385-2.056S62.748,85.4,62.114,85.683Z" transform="translate(-44.084 -60.894)" fill="#ffa36c"/>
    <path id="Caminho_187659" data-name="Caminho 187659" d="M19.774,124.645l1.189-1.8-1.769-1.2-1.386,1.11Z" transform="translate(-12.66 -86.48)" fill="#b3e2fc"/>
    <path id="Caminho_187660" data-name="Caminho 187660" d="M30.091,119.1l-1.367,1.934,1.535,1.386.913-2.241Z" transform="translate(-20.421 -84.67)" fill="#b3e2fc"/>
    <path id="Caminho_187661" data-name="Caminho 187661" d="M14.536,95.62s.416,1.96.8,1.844.149-2.137.149-2.137a14.454,14.454,0,0,1,2.144-.506,9.313,9.313,0,0,1,1.86-.144s.407,2.151.69,2.056.474-.855.309-2.248-2.835-1.411-3.4-1.222S14.278,94.258,14.536,95.62Z" transform="translate(-10.32 -66.243)" fill="#763900"/>
    <path id="Caminho_187662" data-name="Caminho 187662" d="M121.726,168.024H109.854a1.607,1.607,0,0,0-1.607,1.607v5.748a1.607,1.607,0,0,0,1.607,1.607H111.3a4.649,4.649,0,0,0,8.974,0h1.449a1.607,1.607,0,0,0,1.607-1.607v-5.748A1.607,1.607,0,0,0,121.726,168.024Z" transform="translate(-76.957 -119.454)" fill="#271b5f"/>
    <circle id="Elipse_5753" data-name="Elipse 5753" cx="1.3" cy="1.3" r="1.3" transform="translate(22.047 45.062)" fill="#b3e2fc"/>
    <circle id="Elipse_5754" data-name="Elipse 5754" cx="1.3" cy="1.3" r="1.3" transform="translate(60.699 3.649)" fill="#ffbc00"/>
    <circle id="Elipse_5755" data-name="Elipse 5755" cx="1.3" cy="1.3" r="1.3" transform="translate(11.886 1.476)" fill="#ff3f25"/>
    <path id="Caminho_187663" data-name="Caminho 187663" d="M231.744,46.763h-.852v-.852a.65.65,0,1,0-1.3,0v.852h-.852a.65.65,0,1,0,0,1.3h.852v.852a.65.65,0,1,0,1.3,0v-.852h.852a.65.65,0,1,0,0-1.3Z" transform="translate(-162.158 -32.178)" fill="#0082fb"/>
    <path id="Caminho_187664" data-name="Caminho 187664" d="M29.885,58.717h-.852v-.852a.65.65,0,1,0-1.3,0v.852h-.852a.65.65,0,1,0,0,1.3h.852v.852a.65.65,0,1,0,1.3,0v-.852h.852a.65.65,0,1,0,0-1.3Z" transform="translate(-18.649 -40.676)" fill="#ffbc00"/>
  </g>
</svg>
