<svg xmlns="http://www.w3.org/2000/svg" width="252.443" height="74.997" viewBox="0 0 252.443 74.997">
  <g id="Grupo_104426" data-name="Grupo 104426" transform="translate(0 0)">
    <path id="Caminho_187399" data-name="Caminho 187399" d="M2441.02,842.665a12.3,12.3,0,0,0,3.857,9.069,12.729,12.729,0,0,0,9.271,3.806,12.516,12.516,0,0,0,9.154-3.778,12.359,12.359,0,0,0,3.8-9.1,12.619,12.619,0,0,0-3.8-9.212,12.424,12.424,0,0,0-9.154-3.834,12.681,12.681,0,0,0-9.271,3.834,12.526,12.526,0,0,0-3.857,9.212m-17.329-.082a29.951,29.951,0,0,1,2.389-11.8,29.762,29.762,0,0,1,16.149-16.236,29.934,29.934,0,0,1,11.918-2.419,29.412,29.412,0,0,1,16.668,5.009,30.753,30.753,0,0,1,11.255,13.531,29.217,29.217,0,0,1,2.36,11.917,29.721,29.721,0,0,1-4.03,15.143,30.08,30.08,0,0,1-11,11.055,29.6,29.6,0,0,1-15.257,4.088,30.254,30.254,0,0,1-15.286-4,30.027,30.027,0,0,1-15.171-26.284" transform="translate(-2359.57 -797.871)" fill="#fff"/>
    <path id="Caminho_187400" data-name="Caminho 187400" d="M2255.021,819.878a12.516,12.516,0,0,1-9.154,3.776,12.729,12.729,0,0,1-9.271-3.8,12.3,12.3,0,0,1-3.857-9.069,12.527,12.527,0,0,1,3.857-9.212,12.684,12.684,0,0,1,9.271-3.834,12.426,12.426,0,0,1,9.154,3.834,12.624,12.624,0,0,1,3.8,9.212,12.364,12.364,0,0,1-3.8,9.1m5.35-53.7v17.4a.327.327,0,0,1-.231-.114q-1.08-.464-2.1-.811-.988-.335-1.924-.563c-.955-.3-1.832-.543-2.652-.734-.863-.171-1.737-.308-2.625-.4q-2.391-.135-3.872-.168a30.212,30.212,0,0,0-8.531,1.327l-.189.063c-.309.1-.615.2-.921.313a31.209,31.209,0,0,0-16.034,13.075,32.643,32.643,0,0,0-1.895,3.762,29.678,29.678,0,0,0-2.387,11.737c0,.127,0,.253.007.38a8.882,8.882,0,0,1,.108,1.566,29.555,29.555,0,0,0,8.425,18.922,32,32,0,0,0,4.038,3.612c.826.585,1.677,1.144,2.576,1.656a29.9,29.9,0,0,0,9.578,3.479c.736.115,1.481.209,2.24.271q.346.057,1.093.115c.331.025.608.05.838.076.5.022,1.009.038,1.521.038q.974,0,1.93-.059a29.421,29.421,0,0,0,13.308-4.007,29.978,29.978,0,0,0,10.985-10.992,29.661,29.661,0,0,0,2.711-6.169,29.967,29.967,0,0,0,1.314-8.888V766.176Z" transform="translate(-2217.009 -766.176)" fill="#fff"/>
    <path id="Caminho_187401" data-name="Caminho 187401" d="M2691.119,962.111a7.441,7.441,0,0,0,2.334,5.487,7.694,7.694,0,0,0,5.607,2.3,7.57,7.57,0,0,0,5.538-2.285,7.477,7.477,0,0,0,2.3-5.5,7.636,7.636,0,0,0-2.3-5.573,7.522,7.522,0,0,0-5.538-2.32,7.673,7.673,0,0,0-5.607,2.32,7.58,7.58,0,0,0-2.334,5.573" transform="translate(-2544.03 -895.88)" fill="#fc3"/>
    <path id="Caminho_187402" data-name="Caminho 187402" d="M2650.552,838.814a8.721,8.721,0,0,1-2.717-6.405,8.861,8.861,0,0,1,2.714-6.491,8.952,8.952,0,0,1,6.367-2.689,12.523,12.523,0,0,1-4.987-2.592,2.479,2.479,0,0,1-.527-.406c-.079-.078-.152-.158-.227-.237-.047-.046-.092-.095-.137-.143-.075-.081-.15-.163-.222-.244-.024-.028-.045-.057-.069-.083a12.233,12.233,0,0,1-3.542-8.741,13.147,13.147,0,0,1,10.709-12.827V780.906l-.828.044c-.888.1-1.764.233-2.627.4-.818.192-1.7.434-2.65.734q-.935.227-1.925.564-1.02.349-2.1.811a.331.331,0,0,1-.231.114v-17.4h-17.309V811.06a29.93,29.93,0,0,0,1.314,8.888q.34,1.1.769,2.176a30.479,30.479,0,0,0,12.972,15.15,29.331,29.331,0,0,0,7.21,3.029,9.588,9.588,0,0,1-1.957-1.488" transform="translate(-2502.042 -766.177)" fill="#fff"/>
    <path id="Caminho_187403" data-name="Caminho 187403" d="M2791.408,863.127q1.626-1.528,1.627-5.155,0-5-3.054-6.173a9.686,9.686,0,0,0-3.318-.509h-3.7l-.177,13.364h3.873a6.685,6.685,0,0,0,4.745-1.526m.84-11.107q1.937,1.793,1.937,5.952,0,7.744-7.522,7.743h-4.824a.176.176,0,0,1-.2-.2l.177-15.09a.176.176,0,0,1,.2-.2h4.647a7.927,7.927,0,0,1,5.585,1.793" transform="translate(-2606.469 -824.151)" fill="#fff"/>
    <path id="Caminho_187404" data-name="Caminho 187404" d="M2832.232,865.351a.528.528,0,0,1-.166-.387V850.516a.562.562,0,0,1,.166-.41.531.531,0,0,1,.387-.166h.044a.532.532,0,0,1,.554.553v14.471a.545.545,0,0,1-.155.387.523.523,0,0,1-.4.166h-.044a.531.531,0,0,1-.387-.166" transform="translate(-2641.25 -823.953)" fill="#fff"/>
    <path id="Caminho_187405" data-name="Caminho 187405" d="M2859.236,853.143a6.282,6.282,0,0,0-1.294-1.615,4.95,4.95,0,0,0-1.715-.929,9.79,9.79,0,0,0-2.633-.31,7.146,7.146,0,0,0-3.584.853,5.628,5.628,0,0,0-2.3,2.445,8.939,8.939,0,0,0,0,7.379,5.718,5.718,0,0,0,2.3,2.445,7.079,7.079,0,0,0,3.584.863,7.358,7.358,0,0,0,4.8-1.316,5.83,5.83,0,0,0,1.77-4.281h-5.177a.573.573,0,0,1-.408-.156.491.491,0,0,1-.167-.374.51.51,0,0,1,.155-.377.538.538,0,0,1,.4-.156h6.24a.177.177,0,0,1,.2.2q-.022,3.85-1.991,5.687t-5.82,1.837a8.254,8.254,0,0,1-4.116-1,6.889,6.889,0,0,1-2.743-2.809,8.939,8.939,0,0,1-.973-4.248,9.088,9.088,0,0,1,.951-4.26,6.7,6.7,0,0,1,2.743-2.82,8.447,8.447,0,0,1,4.138-.975,8.828,8.828,0,0,1,4.038.786,6.723,6.723,0,0,1,2.6,2.555.619.619,0,0,1,.089.311.539.539,0,0,1-.332.487.6.6,0,0,1-.265.066.622.622,0,0,1-.488-.287" transform="translate(-2650.697 -823.46)" fill="#fff"/>
    <path id="Caminho_187406" data-name="Caminho 187406" d="M2905.625,865.351a.524.524,0,0,1-.167-.387V850.516a.557.557,0,0,1,.167-.41.529.529,0,0,1,.387-.166h.044a.532.532,0,0,1,.553.553v14.471a.545.545,0,0,1-.155.387.519.519,0,0,1-.4.166h-.044a.528.528,0,0,1-.387-.166" transform="translate(-2691.873 -823.953)" fill="#fff"/>
    <path id="Caminho_187407" data-name="Caminho 187407" d="M2923.373,865.638a.529.529,0,0,1-.166-.387l.089-13.962h-3.873a.543.543,0,0,1-.4-.155.535.535,0,0,1,0-.752.539.539,0,0,1,.4-.156h8.651a.572.572,0,0,1,.409.156.5.5,0,0,1,.166.376.512.512,0,0,1-.155.376.542.542,0,0,1-.4.155h-3.651l-.087,13.962a.544.544,0,0,1-.156.387.517.517,0,0,1-.4.166h-.044a.529.529,0,0,1-.387-.166" transform="translate(-2701.124 -824.151)" fill="#fff"/>
    <path id="Caminho_187408" data-name="Caminho 187408" d="M2957.617,851.282l-4.072,10.112h7.943Zm5.642,14.338-1.372-3.142h-8.718l-1.239,3.142a.52.52,0,0,1-.532.31.934.934,0,0,1-.442-.078.293.293,0,0,1-.134-.276,1.714,1.714,0,0,1,.134-.554l5.686-14.271a.43.43,0,0,1,.177-.222.506.506,0,0,1,.288-.088h.973a.507.507,0,0,1,.288.088.429.429,0,0,1,.177.222l5.686,14.271a1.4,1.4,0,0,1,.155.575c0,.147-.044.24-.133.277a1.629,1.629,0,0,1-.532.055.505.505,0,0,1-.286-.09.419.419,0,0,1-.178-.221" transform="translate(-2723.164 -824.299)" fill="#fff"/>
    <path id="Caminho_187409" data-name="Caminho 187409" d="M3011.906,865.569h-7.323a.176.176,0,0,1-.2-.2l-.133-14.8a.528.528,0,0,1,.166-.387.587.587,0,0,1,.818,0,.551.551,0,0,1,.167.409l.133,13.917h6.373a.538.538,0,0,1,.4.155.538.538,0,0,1,0,.753.536.536,0,0,1-.4.154" transform="translate(-2760.016 -824.005)" fill="#fff"/>
    <path id="Caminho_187410" data-name="Caminho 187410" d="M2795.115,919.693a6.353,6.353,0,0,0-1.3-1.615,4.969,4.969,0,0,0-1.714-.929,9.878,9.878,0,0,0-2.634-.309,7.164,7.164,0,0,0-3.584.851,5.629,5.629,0,0,0-2.3,2.445,8.939,8.939,0,0,0,0,7.38,5.723,5.723,0,0,0,2.3,2.446,7.1,7.1,0,0,0,3.584.861,7.356,7.356,0,0,0,4.8-1.316,5.828,5.828,0,0,0,1.77-4.281h-5.177a.577.577,0,0,1-.408-.154.491.491,0,0,1-.166-.376.518.518,0,0,1,.154-.377.54.54,0,0,1,.4-.155h6.239a.176.176,0,0,1,.2.2q-.022,3.849-1.992,5.686t-5.82,1.837a8.251,8.251,0,0,1-4.115-1,6.881,6.881,0,0,1-2.743-2.81,8.924,8.924,0,0,1-.973-4.248,9.09,9.09,0,0,1,.951-4.259,6.7,6.7,0,0,1,2.745-2.821,8.437,8.437,0,0,1,4.136-.973,8.816,8.816,0,0,1,4.039.785,6.72,6.72,0,0,1,2.6,2.556.607.607,0,0,1,.089.309.538.538,0,0,1-.332.487.573.573,0,0,1-.265.067.617.617,0,0,1-.487-.288" transform="translate(-2606.469 -869.365)" fill="#fff"/>
    <path id="Caminho_187411" data-name="Caminho 187411" d="M2849.615,924.728a4.315,4.315,0,0,0,1.085-3.264,3.361,3.361,0,0,0-1.1-2.666,4.633,4.633,0,0,0-3.153-.962h-3.96v7.922h3.96a4.422,4.422,0,0,0,3.163-1.029m-8.076-7.955h4.912a6.25,6.25,0,0,1,2.832.609,4.381,4.381,0,0,1,2.544,4.082,5.8,5.8,0,0,1-.874,3.352,4.365,4.365,0,0,1-2.488,1.736l2.654,4.846a1.812,1.812,0,0,1,.265.664.177.177,0,0,1-.087.176.837.837,0,0,1-.333.044h-.265a.516.516,0,0,1-.487-.287l-2.876-5.2a3.765,3.765,0,0,1-.488.023h-4.358v4.911a.548.548,0,0,1-.155.388.518.518,0,0,1-.4.165h-.044a.565.565,0,0,1-.553-.552V916.972a.176.176,0,0,1,.2-.2" transform="translate(-2647.647 -870.051)" fill="#fff"/>
    <path id="Caminho_187412" data-name="Caminho 187412" d="M2897.723,924.174a7.214,7.214,0,0,0-1.648-5.079,7.686,7.686,0,0,0-9.825-.01,7.266,7.266,0,0,0-1.625,5.089,7.09,7.09,0,0,0,1.681,5.111,7.62,7.62,0,0,0,9.724-.01,7.076,7.076,0,0,0,1.693-5.1m-14.227,0a8.121,8.121,0,0,1,1.969-5.83,7.512,7.512,0,0,1,5.708-2.069,8.354,8.354,0,0,1,4.049.885,6.7,6.7,0,0,1,2.633,2.722,8.705,8.705,0,0,1,1,4.292,7.984,7.984,0,0,1-2.014,5.863,8.861,8.861,0,0,1-11.316-.01,7.972,7.972,0,0,1-2.025-5.853" transform="translate(-2676.725 -869.707)" fill="#fff"/>
    <path id="Caminho_187413" data-name="Caminho 187413" d="M2955.32,916.714a.54.54,0,0,1,.154.4v8.9a6.876,6.876,0,0,1-1.493,4.757,5.606,5.606,0,0,1-4.392,1.658q-3.208,0-4.656-1.558a6.949,6.949,0,0,1-1.449-4.857v-8.873a.554.554,0,0,1,.166-.41.535.535,0,0,1,.387-.166h.044a.53.53,0,0,1,.553.553V926.1a7.89,7.89,0,0,0,.488,3.031,3.205,3.205,0,0,0,1.549,1.682,6.488,6.488,0,0,0,2.92.552q4.735,0,4.735-5.265v-8.984a.518.518,0,0,1,.166-.4.551.551,0,0,1,.388-.156h.045a.537.537,0,0,1,.4.156" transform="translate(-2718.101 -869.903)" fill="#fff"/>
    <path id="Caminho_187414" data-name="Caminho 187414" d="M2998.664,925.756a4.428,4.428,0,0,0,3.163-1.029,4.325,4.325,0,0,0,1.084-3.264,3.361,3.361,0,0,0-1.095-2.666,4.632,4.632,0,0,0-3.153-.962H2994.7v7.922Zm-4.946,6.361a.526.526,0,0,1-.166-.387V916.971a.177.177,0,0,1,.2-.2h4.912a6.248,6.248,0,0,1,2.832.609,4.377,4.377,0,0,1,2.544,4.082,5.306,5.306,0,0,1-1.405,4.006,5.506,5.506,0,0,1-3.971,1.35H2994.7v4.911a.547.547,0,0,1-.154.387.518.518,0,0,1-.4.165h-.044a.526.526,0,0,1-.387-.165" transform="translate(-2752.636 -870.051)" fill="#fff"/>
  </g>
</svg>
