<svg xmlns="http://www.w3.org/2000/svg" width="164.33" height="174.853" viewBox="0 0 164.33 174.853">
  <g id="_3937889_brainstorming_business_corporate_meeting_office_icon" data-name="3937889_brainstorming_business_corporate_meeting_office_icon" transform="translate(-7.703 -0.229)">
    <path id="Caminho_187510" data-name="Caminho 187510" d="M138.673,223.165c-1.6-1.162-13.326-.727-14.425,0s1.24,2.806,4.935,4.9c1.549.879,2.509,1.743,4.628.135S139.748,223.947,138.673,223.165Z" transform="translate(-36.856 -70.44)" fill="#f3cbaf"/>
    <rect id="Retângulo_75785" data-name="Retângulo 75785" width="3.116" height="15.5" transform="translate(96.119 172.424) rotate(180)" fill="#f3cbaf"/>
    <path id="Caminho_187511" data-name="Caminho 187511" d="M120.245,254.839h19.22a.61.61,0,0,0,.611-.611v0a.611.611,0,0,0-.514-.6l-7.963-1.283h-3.116l-8.331,1.286a.611.611,0,0,0-.518.6h0A.611.611,0,0,0,120.245,254.839Z" transform="translate(-35.48 -79.915)" fill="#f3cbaf"/>
    <path id="Caminho_187512" data-name="Caminho 187512" d="M115.547,163.833c-14.763,0-11.965,7.092-14.771,15.569s-14.412,28.8,12,28.8,22.684-14.977,21.181-19.345S131.287,163.833,115.547,163.833Z" transform="translate(-27.931 -51.86)" fill="#98cdef"/>
    <path id="Caminho_187513" data-name="Caminho 187513" d="M125.757,210.012H109.8a6.719,6.719,0,0,1-6.72-6.72h0a6.719,6.719,0,0,1,6.72-6.72h15.96a6.719,6.719,0,0,1,6.72,6.72h0A6.719,6.719,0,0,1,125.757,210.012Z" transform="translate(-30.232 -62.238)" fill="#271b5f"/>
    <path id="Caminho_187514" data-name="Caminho 187514" d="M111.535,202.578c-4.135.777-4.957,6.107-3.1,17.885s1.8,12.677,1.8,12.677-4.81,3.389-7.81,3.457-4.4,2.451.453,2.451,9.384-.156,11.507-.156.675-4.646.483-5.752.839-19.036.661-21.835S115.345,201.862,111.535,202.578Z" transform="translate(-29.161 -64.124)" fill="#ffa36c"/>
    <path id="Caminho_187515" data-name="Caminho 187515" d="M103.51,251.6a5.7,5.7,0,0,1-1.085.147c-3,.068-4.4,2.451.453,2.451s9.384-.156,11.507-.156c1.406,0,1.245-2.035.921-3.733-1.991.744-6.265,2.244-8.377,2.244C104.769,252.549,103.829,251.9,103.51,251.6Z" transform="translate(-29.161 -79.27)" fill="#ffa36c"/>
    <path id="Caminho_187516" data-name="Caminho 187516" d="M122.506,202.578c-4.135.777-4.957,6.107-3.1,17.885s1.8,12.677,1.8,12.677-4.81,3.389-7.81,3.457-4.4,2.451.453,2.451,9.384-.156,11.507-.156.676-4.646.483-5.752.839-19.036.661-21.835S126.316,201.862,122.506,202.578Z" transform="translate(-32.638 -64.124)" fill="#ffa36c"/>
    <path id="Caminho_187517" data-name="Caminho 187517" d="M114.481,251.6a5.7,5.7,0,0,1-1.085.147c-3,.068-4.4,2.451.453,2.451s9.384-.156,11.507-.156c1.406,0,1.245-2.035.921-3.733-1.991.744-6.265,2.244-8.377,2.244C115.74,252.549,114.8,251.9,114.481,251.6Z" transform="translate(-32.638 -79.27)" fill="#ff3f25"/>
    <rect id="Retângulo_75786" data-name="Retângulo 75786" width="144.029" height="4.126" transform="translate(17.853 130.431)" fill="#f3cbaf"/>
    <path id="Caminho_187518" data-name="Caminho 187518" d="M115.321,151.631a29.675,29.675,0,0,0-4.447.882c-.934.415.025,10.482,1.1,12.66s.486,6.172.486,6.172h14.914a36.351,36.351,0,0,1,.688-6.722c.641-2.468,2.031-10.8,1.817-11.873l-4.945-1.379Z" transform="translate(-32.584 -47.91)" fill="#ff3f25"/>
    <path id="Caminho_187519" data-name="Caminho 187519" d="M122.066,119.553s-3.307-3-7.994-.053-3.641,10.45-3.862,13.7-1.025,3.848-.356,4.25a2.916,2.916,0,0,0,3.455,0,2.538,2.538,0,0,0,2.5,1.674,9.764,9.764,0,0,0,3.568-.87s3.056.8,4.364.469a2.662,2.662,0,0,0,1.673-1.882,4.99,4.99,0,0,0,2.515.744c1.406,0,1.206-.531.736-4.384s.793-10.214-2.048-12.356S122.066,119.553,122.066,119.553Z" transform="translate(-32.297 -37.396)" fill="#271b5f"/>
    <path id="Caminho_187520" data-name="Caminho 187520" d="M168.171,186.64H11.565A3.861,3.861,0,0,1,7.7,182.779v-1.362a3.861,3.861,0,0,1,3.862-3.862H168.171a3.861,3.861,0,0,1,3.862,3.862v1.362A3.862,3.862,0,0,1,168.171,186.64Z" transform="translate(0 -56.209)" fill="#763900"/>
    <path id="Caminho_187521" data-name="Caminho 187521" d="M12.863,235.351H7.741L21.4,190.857h5.122Z" transform="translate(-0.012 -60.426)" fill="#f3cbaf"/>
    <path id="Caminho_187522" data-name="Caminho 187522" d="M234.42,235.351h5.122l-13.66-44.494H220.76Z" transform="translate(-67.536 -60.426)" fill="#f3cbaf"/>
    <path id="Caminho_187523" data-name="Caminho 187523" d="M68.577,244.741a39.41,39.41,0,0,0,0,6c.289,1.845.94,1.845,4.05,1.845s7.592-.156,9.111-.156,2.748-1.688-.579-2.918-7.16-2.837-7.521-4.058Z" transform="translate(-19.256 -77.506)" fill="#ffa36c"/>
    <path id="Caminho_187524" data-name="Caminho 187524" d="M93.368,244.506a39.41,39.41,0,0,0,0,6c.289,1.845.94,1.845,4.05,1.845s7.592-.156,9.111-.156,2.893-2.194-.579-2.918c-5.284-1.1-8.111-4.058-8.472-5.278Z" transform="translate(-27.114 -77.271)" fill="#ffa36c"/>
    <path id="Caminho_187525" data-name="Caminho 187525" d="M64.117,222.239s1.113,11.122,1.938,15.056l6.89-.4-.166-19.043Z" transform="translate(-17.882 -68.982)" fill="#ff3f25"/>
    <path id="Caminho_187526" data-name="Caminho 187526" d="M81.173,250.413a36.236,36.236,0,0,1-6.3-2.835c-1.045.686-2.339,2.029-3.893,2.618a5.619,5.619,0,0,1-2.487.331,10.661,10.661,0,0,0,.1,1.116c.289,1.845.94,1.845,4.05,1.845s7.592-.156,9.111-.156S84.5,251.642,81.173,250.413Z" transform="translate(-19.269 -78.406)" fill="#271b5f"/>
    <path id="Caminho_187527" data-name="Caminho 187527" d="M195.7,245.648s-4.332,2.957-6.891,3.647-6.005,1.145-5.316,2.363,2.175,1.061,4.976,1.061h9.79c2.658,0,4.449.007,4.134-3.532l-.314-3.539Z" transform="translate(-55.694 -77.794)" fill="#ffa36c"/>
    <path id="Caminho_187528" data-name="Caminho 187528" d="M188.564,250.506c-2.529.654-5.739,1.119-5.072,2.3.689,1.218,2.175,1.061,4.976,1.061h9.79c2.658,0,4.449.007,4.134-3.532-.036-.4-.066-.749-.094-1.064a37.989,37.989,0,0,1-9.383,2.058A11.115,11.115,0,0,1,188.564,250.506Z" transform="translate(-55.694 -78.942)" fill="#763900"/>
    <path id="Caminho_187529" data-name="Caminho 187529" d="M48.093,137.661a14,14,0,0,1,.93,6.643c-.4,3.72-.93,5.58-1.594,5.846s-2.524,0-2.658,1.2a32.656,32.656,0,0,0,0,3.72l-5.713.665v-7.706S34.275,133.276,48.093,137.661Z" transform="translate(-9.685 -43.306)" fill="#ffa36c"/>
    <path id="Caminho_187530" data-name="Caminho 187530" d="M40.863,144.548s-.382,2.231-1.466,2.742-5.483.956-4.973-6.885a3.174,3.174,0,0,1-1.275-3.634c.765-2.359,4.527-4.91,10.456-4.335,0,0,2.592-2.612,4.718-1.785,1.147.446,1.02,2.359.765,2.869,0,0,1.53-.115,1.594,1.313s-.191,3.469-6.5,3.915C44.178,138.745,40.8,139.829,40.863,144.548Z" transform="translate(-8.011 -41.29)" fill="#271b5f"/>
    <path id="Caminho_187531" data-name="Caminho 187531" d="M45,145.679s-.671-2.67-2.52-2.543-2.168,5.356.956,5.419Z" transform="translate(-10.58 -45.298)" fill="#ffa36c"/>
    <path id="Caminho_187532" data-name="Caminho 187532" d="M45.643,142.112s.007,4.436,1.4,4.591c.574.064,1.147-4.272,1.147-4.272Z" transform="translate(-12.026 -44.975)" fill="#271b5f"/>
    <path id="Caminho_187533" data-name="Caminho 187533" d="M27.96,172.883s-1.433-4.443,1.29-7.739,17.242-4.9,19.728-1.52a25.415,25.415,0,0,1,4.349,13.846c0,4.873,1.147,14.189,1.147,14.189a68.692,68.692,0,0,1-15.716,3.583C29.679,196.245,27.96,172.883,27.96,172.883Z" transform="translate(-6.302 -51.198)" fill="#0082fb"/>
    <path id="Caminho_187534" data-name="Caminho 187534" d="M55.429,163.03c-3.115-.631-4.517,5.8-1.928,9.859s7.082,8.878,12.891,6.8,9.973-7.782,11.07-10.741l-3.069-3.069s-6.138,6.8-8.768,6.8S59.607,163.876,55.429,163.03Z" transform="translate(-14.089 -51.592)" fill="#271b5f"/>
    <path id="Caminho_187535" data-name="Caminho 187535" d="M65.384,204.68a52.959,52.959,0,0,1,7.887-1.6c4.64-.605,9.381-.706,11.3,6.758s4.539,21.184,4.539,21.184a41.315,41.315,0,0,1-6.658,1.11s-4.943-13.416-5.851-16.745-7.216.958-7.216.958L62,205.791Z" transform="translate(-17.211 -64.22)" fill="#ff3f25"/>
    <path id="Caminho_187536" data-name="Caminho 187536" d="M106.667,253.186c1.463-.12,2.664-2.2-.708-2.906a15.229,15.229,0,0,1-6.746-3.121,17.759,17.759,0,0,1-3.926,2.63,5.925,5.925,0,0,1-2.02.378,11.909,11.909,0,0,0,.111,1.341c.281,1.79.908,1.843,3.785,1.845C100.349,253.351,104.815,253.2,106.667,253.186Z" transform="translate(-27.122 -78.273)" fill="#271b5f"/>
    <path id="Caminho_187537" data-name="Caminho 187537" d="M84.4,163.942s-.878-.988-.635-3.735,1.7-3.718,1.862-2.342-.162,2.823.486,2.342,2.186-3.395,3.237-3.313,2.752,1.942,2.186,4.776-4.7,4.7-4.7,4.7Z" transform="translate(-24.097 -49.66)" fill="#ffa36c"/>
    <path id="Caminho_187538" data-name="Caminho 187538" d="M121.862,122.643c-4.88-.418-6.81,4.66-6.092,9.677s4.36,5.914,6.092,5.914,4.48-1.374,4.958-5.794S126.044,123,121.862,122.643Z" transform="translate(-34.209 -38.796)" fill="#ffa36c"/>
    <path id="Caminho_187539" data-name="Caminho 187539" d="M115.548,134.277s-1.356-1.041-2.287-.341-.745,2.89.373,3.774a2.069,2.069,0,0,0,2.376,0Z" transform="translate(-33.271 -42.306)" fill="#ffa36c"/>
    <path id="Caminho_187540" data-name="Caminho 187540" d="M130.774,134.632s1.356-1.041,2.287-.341.745,2.89-.373,3.774a2.069,2.069,0,0,1-2.376,0Z" transform="translate(-38.865 -42.419)" fill="#ffa36c"/>
    <path id="Caminho_187541" data-name="Caminho 187541" d="M119.34,142.919s.571,3.528,0,4.618a2.861,2.861,0,0,1-1.779,1.349s.846,4.67,4.634,4.67,4.981-4.929,4.981-4.929a6.3,6.3,0,0,1-2.076-1.245c-.363-.571-.408-4.67-.408-4.67Z" transform="translate(-34.823 -45.165)" fill="#ffa36c"/>
    <path id="Caminho_187542" data-name="Caminho 187542" d="M108.292,153.032c-2.936-.605-7.016,10.754-5.678,14.024s2.441,5.724,8.8,6.17,9.037-1.361,9.037-1.361V167.28s-8.176-.335-9.663-2.137S113.821,154.171,108.292,153.032Z" transform="translate(-30.002 -48.429)" fill="#ff3f25"/>
    <path id="Caminho_187543" data-name="Caminho 187543" d="M137.5,153.388c3.334.251,5.2,6.5,6.014,8.955s2.9,7.359-.595,8.176-7.73-7.627-8.251-10.577S135.051,153.2,137.5,153.388Z" transform="translate(-40.2 -48.547)" fill="#ff3f25"/>
    <path id="Caminho_187544" data-name="Caminho 187544" d="M128.855,174.617a27.4,27.4,0,0,1,5.823-.265c1.7.318,2.9,2.917,3.225,3.5s-.679,1.442-1.74.747-2.363-1.649-3.436-1.172-2.747,2.238-3.872,1.172v-3.983Z" transform="translate(-38.403 -55.164)" fill="#ffa36c"/>
    <path id="Caminho_187545" data-name="Caminho 187545" d="M146.16,150.649l4.429.493s.45,16.814-4.429,18.211-4.278-6.383-2.852-9.7A76.307,76.307,0,0,0,146.16,150.649Z" transform="translate(-42.662 -47.681)" fill="#ff3f25"/>
    <path id="Caminho_187546" data-name="Caminho 187546" d="M148.721,146.574s-1.968-1.583-2.022-3.3-.161-3.336.484-3.013,1.139,1.722,1.538,1.722.237-3.551.936-4.035,3.336.215,3.766,2.044-1.451,7.079-1.451,7.079Z" transform="translate(-44.046 -43.606)" fill="#ffa36c"/>
    <path id="Caminho_187547" data-name="Caminho 187547" d="M115.423,129.727s2.851,1.016,7.27-3.733a9.153,9.153,0,0,0,4.035,4.124l1.255-3.784s-1.785-5.156-6.416-5.156a6.322,6.322,0,0,0-6.48,4.47A17.029,17.029,0,0,0,115.423,129.727Z" transform="translate(-34.022 -38.339)" fill="#271b5f"/>
    <path id="Caminho_187548" data-name="Caminho 187548" d="M205.722,171.68a40.745,40.745,0,0,1,1.4,9.934c0,3.459-.7,4.563-.7,4.563s-1.613,27.909,0,36.024h-9.354s-1.441-25.528-1.092-35.009,1.092-15.513,1.092-15.513h8.655Z" transform="translate(-59.662 -54.347)" fill="#271b5f"/>
    <path id="Caminho_187549" data-name="Caminho 187549" d="M175.8,245.648s-4.332,2.957-6.891,3.647-6.005,1.145-5.316,2.363,2.175,1.061,4.976,1.061h9.79c2.658,0,4.449.007,4.134-3.532l-.314-3.539Z" transform="translate(-49.386 -77.794)" fill="#ffa36c"/>
    <path id="Caminho_187550" data-name="Caminho 187550" d="M168.666,250.506c-2.529.654-5.739,1.119-5.072,2.3.689,1.218,2.175,1.061,4.976,1.061h9.79c2.658,0,4.449.007,4.134-3.532-.036-.4-.066-.749-.094-1.064a37.989,37.989,0,0,1-9.383,2.058A11.115,11.115,0,0,1,168.666,250.506Z" transform="translate(-49.387 -78.942)" fill="#763900"/>
    <path id="Caminho_187551" data-name="Caminho 187551" d="M162.035,179.911a16.969,16.969,0,0,1-3.314,2.218c-1.649.77-4.233,1.374-3.024,2.144s4.1-.055,5.761-.824a7.52,7.52,0,0,1,4.3-.44c.385.165,1.154,1.21,1.979,1.21s1.7.014.22-1.972l-1.484-1.986Z" transform="translate(-46.813 -56.956)" fill="#fbb773"/>
    <path id="Caminho_187552" data-name="Caminho 187552" d="M181.441,169.828s-3.272,16.213-4.165,26.774-1.014,23.311-1.014,23.311,5.97.107,9.962,0c0,0,1.209-18.248,2.155-25.019a75.977,75.977,0,0,1,2.73-12.126,8.58,8.58,0,0,0,3.083-5.841,57.39,57.39,0,0,0,0-8.154l-1.641-4.31Z" transform="translate(-53.43 -52.06)" fill="#271b5f"/>
    <path id="Caminho_187553" data-name="Caminho 187553" d="M184.579,129.24c-5.636.957-9.462,3.061-11.694,7.7s-7.971,25.254-8.609,26.636a10.034,10.034,0,0,0,5.739,1.1s5.846-19.378,9.034-23.629S184.579,129.24,184.579,129.24Z" transform="translate(-49.631 -40.894)" fill="#0082fb"/>
    <path id="Caminho_187554" data-name="Caminho 187554" d="M203.423,129.24c2.976.638,6.058,5.208,6.59,8.4s6.058,20.514,6.7,23.49c0,0-3.188,1.445-5.208,1.2,0,0-5.634-20.014-7.547-23.2S203.423,129.24,203.423,129.24Z" transform="translate(-61.887 -40.894)" fill="#0082fb"/>
    <path id="Caminho_187555" data-name="Caminho 187555" d="M200.059,136.721c-.107-5.8-2.9-7.377-3.826-7.7a11.59,11.59,0,0,0-6.588,0c-5.506,1.37-9.355,7.121-9.388,10.48s1.733,8.014,1.733,10.14-.85,9.353-.85,9.353a65.425,65.425,0,0,0,11.837,1.266l.841-4.348.725,4.347c6.269-.109,7.219-1.584,7.219-1.584C201.127,156.023,200.165,142.524,200.059,136.721Z" transform="translate(-54.697 -40.68)" fill="#0082fb"/>
    <g id="Grupo_104515" data-name="Grupo 104515" transform="translate(123.413 11.105)">
      <path id="Caminho_187556" data-name="Caminho 187556" d="M177.113,37.846l4.065-21.693,2.014.378-3.6,19.234,29.471-.376.026,2.049Z" transform="translate(-177.113 -16.153)" fill="#b3e2fc"/>
    </g>
    <g id="Grupo_104516" data-name="Grupo 104516" transform="translate(123.645 31.574)">
      <rect id="Retângulo_75787" data-name="Retângulo 75787" width="2.049" height="24.619" transform="translate(0 0.38) rotate(-10.678)" fill="#b3e2fc"/>
    </g>
    <g id="Grupo_104517" data-name="Grupo 104517" transform="translate(47.539 49.062)">
      <path id="Caminho_187557" data-name="Caminho 187557" d="M126.212,98.171,105.53,74.192,66.823,90.515l-.8-1.889,40.08-16.9,21.656,25.108Z" transform="translate(-66.027 -71.725)" fill="#b3e2fc"/>
    </g>
    <g id="Grupo_104518" data-name="Grupo 104518" transform="translate(29.674 31.093)">
      <path id="Caminho_187558" data-name="Caminho 187558" d="M96.962,65.474,70.253,47.8,40.827,63.339l-.957-1.811,30.5-16.11L98.092,63.765Z" transform="translate(-39.87 -45.417)" fill="#b3e2fc"/>
    </g>
    <g id="Grupo_104519" data-name="Grupo 104519" transform="translate(27.232 12.213)">
      <rect id="Retângulo_75788" data-name="Retângulo 75788" width="2.049" height="37.623" transform="matrix(0.51, -0.86, 0.86, 0.51, 0, 1.762)" fill="#b3e2fc"/>
    </g>
    <g id="Grupo_104520" data-name="Grupo 104520" transform="translate(86.063 8.467)">
      <path id="Caminho_187559" data-name="Caminho 187559" d="M122.429,55.892l5.769-43.6,2.031.268-5.264,39.786L160.56,34.664l.912,1.835Z" transform="translate(-122.429 -12.29)" fill="#b3e2fc"/>
    </g>
    <path id="XMLID_6_" d="M131.674,59.31a13.923,13.923,0,1,0-27.847,0,13.708,13.708,0,0,0,1.91,6.9,16.075,16.075,0,0,0,2.214,2.886c.8.848,1.871,1.4,2.632,2.276.657.757.736,3.6,1.053,4.5a2.766,2.766,0,0,0,2.61,1.852h7.019a2.766,2.766,0,0,0,2.606-1.839c.27-.759.455-3.651.876-4.332.524-.848,1.695-1.283,2.414-1.97a14.69,14.69,0,0,0,2.412-2.925A14.149,14.149,0,0,0,131.674,59.31Z" transform="translate(-30.47 -14.314)" fill="#ffbc00"/>
    <path id="XMLID_5_" d="M129.335,51.847a1.084,1.084,0,0,1-.431-.089,9.338,9.338,0,0,0-.979-.359,1.093,1.093,0,1,1,.637-2.091,11.678,11.678,0,0,1,1.206.442,1.093,1.093,0,0,1-.432,2.1Z" transform="translate(-37.863 -15.542)" fill="#fff"/>
    <path id="XMLID_3_" d="M137.742,62.771a1.093,1.093,0,0,1-1.093-1.093,9.464,9.464,0,0,0-2.991-6.935,1.093,1.093,0,0,1,1.5-1.587,11.788,11.788,0,0,1,3.674,8.523A1.093,1.093,0,0,1,137.742,62.771Z" transform="translate(-39.818 -16.682)" fill="#fff"/>
    <path id="Caminho_187560" data-name="Caminho 187560" d="M127.122,67.995a.59.59,0,0,0-.682.481l-.057.329-1.141.757a1.347,1.347,0,0,1-1.526-.031l-.863-.624a2.519,2.519,0,0,0-2.932-.016l-.925.654a1.349,1.349,0,0,1-1.518.02l-1.036-.692-.073-.434a.59.59,0,1,0-1.164.2l2.5,16.82a.591.591,0,0,0,.581.492.6.6,0,0,0,.1-.008.59.59,0,0,0,.484-.68l-2.156-14.788.113.076a2.537,2.537,0,0,0,2.854-.038l.925-.654a1.34,1.34,0,0,1,1.559.008l.863.624a2.532,2.532,0,0,0,2.87.058l.212-.141-2.235,14.852a.591.591,0,0,0,.481.682.567.567,0,0,0,.1.009.591.591,0,0,0,.581-.49l2.568-16.78A.591.591,0,0,0,127.122,67.995Z" transform="translate(-34.074 -21.465)" fill="#e19e00"/>
    <path id="Caminho_187561" data-name="Caminho 187561" d="M125.833,92.74h-7.905a1.071,1.071,0,0,0-1.07,1.07v3.828a1.071,1.071,0,0,0,1.07,1.07h.964a3.1,3.1,0,0,0,5.976,0h.964a1.071,1.071,0,0,0,1.07-1.07V93.81A1.07,1.07,0,0,0,125.833,92.74Z" transform="translate(-34.6 -29.325)" fill="#271b5f"/>
    <path id="Caminho_187562" data-name="Caminho 187562" d="M135.307,16.973H119.59a2.732,2.732,0,0,1-2.732-2.732V2.961A2.732,2.732,0,0,1,119.59.229h15.717a2.732,2.732,0,0,1,2.732,2.732v11.28A2.732,2.732,0,0,1,135.307,16.973Z" transform="translate(-34.6)" fill="#98cdef"/>
    <path id="Caminho_187563" data-name="Caminho 187563" d="M182.214,52H165.205a2.732,2.732,0,0,1-2.732-2.732V33.783a2.732,2.732,0,0,1,2.732-2.732h17.009a2.732,2.732,0,0,1,2.732,2.732V49.272A2.732,2.732,0,0,1,182.214,52Z" transform="translate(-49.06 -9.77)" fill="#ff3f25"/>
    <path id="Caminho_187564" data-name="Caminho 187564" d="M185.039,19.262h-6.6a2.732,2.732,0,0,1-2.732-2.732V11.42a2.732,2.732,0,0,1,2.732-2.732h6.6a2.732,2.732,0,0,1,2.732,2.732v5.11A2.732,2.732,0,0,1,185.039,19.262Z" transform="translate(-53.255 -2.681)" fill="#304dd9"/>
    <path id="Caminho_187565" data-name="Caminho 187565" d="M224.582,49.227h-7.265a2.732,2.732,0,0,1-2.732-2.732V39.231a2.732,2.732,0,0,1,2.732-2.732h7.265a2.732,2.732,0,0,1,2.732,2.732V46.5A2.732,2.732,0,0,1,224.582,49.227Z" transform="translate(-65.578 -11.497)" fill="#98cdef"/>
    <path id="Caminho_187566" data-name="Caminho 187566" d="M185.291,84.228h-3.56A2.732,2.732,0,0,1,179,81.5v-3.56a2.732,2.732,0,0,1,2.732-2.732h3.56a2.732,2.732,0,0,1,2.732,2.732V81.5A2.732,2.732,0,0,1,185.291,84.228Z" transform="translate(-54.298 -23.766)" fill="#98cdef"/>
    <path id="Caminho_187567" data-name="Caminho 187567" d="M156.456,113.375h-9.128a2.732,2.732,0,0,1-2.732-2.732v-9.128a2.732,2.732,0,0,1,2.732-2.732h9.128a2.732,2.732,0,0,1,2.732,2.732v9.128A2.732,2.732,0,0,1,156.456,113.375Z" transform="translate(-43.393 -31.24)" fill="#2d9bee"/>
    <path id="Caminho_187568" data-name="Caminho 187568" d="M69.335,103h-14.9a2.732,2.732,0,0,1-2.732-2.732V86.537a2.732,2.732,0,0,1,2.732-2.732h14.9a2.732,2.732,0,0,1,2.732,2.732v13.727A2.732,2.732,0,0,1,69.335,103Z" transform="translate(-13.947 -26.492)" fill="#98cdef"/>
    <path id="Caminho_187569" data-name="Caminho 187569" d="M40.691,72.744h-5.18a2.732,2.732,0,0,1-2.732-2.732V66.468a2.732,2.732,0,0,1,2.732-2.732h5.18a2.732,2.732,0,0,1,2.732,2.732v3.543A2.732,2.732,0,0,1,40.691,72.744Z" transform="translate(-7.949 -20.131)" fill="#ff3f25"/>
    <path id="Caminho_187570" data-name="Caminho 187570" d="M86.448,51.9H74.216a2.732,2.732,0,0,1-2.732-2.732V36.937a2.732,2.732,0,0,1,2.732-2.732H86.448a2.732,2.732,0,0,1,2.732,2.732V49.169A2.732,2.732,0,0,1,86.448,51.9Z" transform="translate(-20.218 -10.77)" fill="#2d9bee"/>
    <path id="Caminho_187571" data-name="Caminho 187571" d="M37.9,22.637H30.025a2.732,2.732,0,0,1-2.732-2.732V12.028A2.732,2.732,0,0,1,30.025,9.3H37.9a2.732,2.732,0,0,1,2.732,2.732v7.877A2.733,2.733,0,0,1,37.9,22.637Z" transform="translate(-6.21 -2.874)" fill="#304dd9"/>
    <path id="Caminho_187572" data-name="Caminho 187572" d="M30.506,168.908c9.692-.423,12.522,8.426,13.072,14.1s2.067,10.807,6.529,13.188,8.674,3.48,6.11,7.327-11.636,6.595-19.556,6.411-15.8-3.3-17.995-14.654S20.914,169.327,30.506,168.908Z" transform="translate(-3.3 -53.464)" fill="#98cdef"/>
    <path id="Caminho_187573" data-name="Caminho 187573" d="M36.17,225.165c1.6-1.162,13.326-.727,14.425,0s-1.24,2.806-4.935,4.9c-1.549.879-2.509,1.743-4.628.135S35.1,225.947,36.17,225.165Z" transform="translate(-8.964 -71.074)" fill="#f3cbaf"/>
    <rect id="Retângulo_75789" data-name="Retângulo 75789" width="3.116" height="14.134" transform="translate(32.904 158.289)" fill="#f3cbaf"/>
    <path id="Caminho_187574" data-name="Caminho 187574" d="M52.02,254.839H32.8a.61.61,0,0,1-.611-.611v0a.611.611,0,0,1,.514-.6l7.963-1.283h3.116l8.331,1.286a.611.611,0,0,1,.518.6h0A.612.612,0,0,1,52.02,254.839Z" transform="translate(-7.762 -79.915)" fill="#f3cbaf"/>
    <path id="Caminho_187575" data-name="Caminho 187575" d="M215.988,168.908c-9.692-.423-12.522,8.426-13.072,14.1s-2.067,10.807-6.529,13.188-8.674,3.48-6.11,7.327,11.636,6.595,19.556,6.411,15.8-3.3,17.995-14.654S225.579,169.327,215.988,168.908Z" transform="translate(-57.626 -53.464)" fill="#98cdef"/>
    <path id="Caminho_187576" data-name="Caminho 187576" d="M221.461,225.165c-1.6-1.162-13.326-.727-14.425,0s1.24,2.806,4.935,4.9c1.549.879,2.509,1.743,4.628.135S222.536,225.947,221.461,225.165Z" transform="translate(-63.099 -71.074)" fill="#f3cbaf"/>
    <rect id="Retângulo_75790" data-name="Retângulo 75790" width="3.116" height="14.134" transform="translate(152.665 172.424) rotate(180)" fill="#f3cbaf"/>
    <path id="Caminho_187577" data-name="Caminho 187577" d="M203.033,254.839h19.22a.61.61,0,0,0,.611-.611v0a.611.611,0,0,0-.514-.6l-7.963-1.283h-3.116l-8.331,1.286a.611.611,0,0,0-.518.6h0A.612.612,0,0,0,203.033,254.839Z" transform="translate(-61.723 -79.915)" fill="#f3cbaf"/>
    <path id="Caminho_187578" data-name="Caminho 187578" d="M180.758,113.156s-5.14-1.881-4.428-6.547,3.479-5.2,3.479-5.2a5.375,5.375,0,0,1,4.056-3.263,6.77,6.77,0,0,1,5.037,1.423s3.875-1.423,5.931.87,1.265,5.991,1.423,7.385,1.5,2.8,3,4.548.316,4.12-.316,4.2c0,0,3.084,3.282.553,5.713a8.156,8.156,0,0,1-8.145,2.02l-.87-9.463Z" transform="translate(-53.43 -31.021)" fill="#ff3f25"/>
    <path id="Caminho_187579" data-name="Caminho 187579" d="M183.093,119.3c1.149,0,3.064-.857,3.447.913.1.447.182.9.253,1.324a27.29,27.29,0,0,1,2.852-.634,14.529,14.529,0,0,1,3.507-.456,14.146,14.146,0,0,1-.2-2.3c0-2.682,4.788-18.577-8.618-14.556-3.94,1.182-4.4,5.171-3.926,8.81S181.944,119.3,183.093,119.3Z" transform="translate(-54.697 -32.561)" fill="#fbb773"/>
    <path id="Caminho_187580" data-name="Caminho 187580" d="M179.469,105.407c-.632,1.423-.531,4.518,3.57,4.829s3.136,2.215,3.136,2.215-.934,3.315,1.359,4.185,3.084,2.056,2.847,4.666.5,4.666,3.1,3.954,1.333-6.168,1.333-6.168l-.87-14.313-2.531-2.273-4.867-.969Z" transform="translate(-54.356 -32.112)" fill="#ff3f25"/>
    <path id="Caminho_187581" data-name="Caminho 187581" d="M184.829,113.663s.6-1.809,2.146-1.19,1.61,2.105.99,3.406-1.424,1.8-2.043,1.8Z" transform="translate(-56.146 -35.538)" fill="#fbb773"/>
    <path id="Caminho_187582" data-name="Caminho 187582" d="M134.35,204.461s.266,7.359-8.386,8.706c0,0,1.913-5-7.9-5s-8.661,2.612-8.661,2.612l-.413-8.768,7.7-1.751Z" transform="translate(-32.106 -63.407)" fill="#271b5f"/>
  </g>
</svg>
