<svg xmlns="http://www.w3.org/2000/svg" width="168.494" height="141.688" viewBox="0 0 168.494 141.688">
  <g id="_2757669_business_case_office_suitcase_icon" data-name="2757669_business_case_office_suitcase_icon" transform="translate(0 -3.5)">
    <path id="Caminho_187713" data-name="Caminho 187713" d="M84.759,22.647H79.78l-4.6-11.871A12.15,12.15,0,0,0,64.463,3.5H36.508a11.536,11.536,0,0,0-10.722,7.276l-4.6,11.871H15.829A3.618,3.618,0,0,0,12,26.476v3.829H34.976V26.476a3.618,3.618,0,0,0-3.829-3.829H29.232l3.446-9.191a3.68,3.68,0,0,1,3.446-2.3H64.08a3.349,3.349,0,0,1,3.446,2.3l3.446,9.191H69.441a3.618,3.618,0,0,0-3.829,3.829v3.829H88.588V26.476A3.618,3.618,0,0,0,84.759,22.647Z" transform="translate(33.953)" fill="#9ba7af"/>
    <path id="Caminho_187714" data-name="Caminho 187714" d="M154.176,108.406H8.659A7.681,7.681,0,0,1,1,100.747V16.5H161.835v84.247A7.681,7.681,0,0,1,154.176,108.406Z" transform="translate(2.829 36.782)" fill="#b06328"/>
    <path id="Caminho_187715" data-name="Caminho 187715" d="M154.176,22.515,96.735,34.769a3.729,3.729,0,0,0-3.829-3.064H77.588a3.618,3.618,0,0,0-3.829,3.829H69.929L3.3,21.366A5.443,5.443,0,0,1,1,20.6v3.829a5.443,5.443,0,0,0,2.3.766L69.929,39.364h3.829V50.852a3.618,3.618,0,0,0,3.829,3.829H89.076a7.681,7.681,0,0,0,7.659-7.659v-.766a9.8,9.8,0,0,1,7.659-9.574l38.294-8.042a9.558,9.558,0,0,1,11.488,9.191v47.1a3.618,3.618,0,0,1-3.829,3.829H8.659c-4.978,0-5.361,7.659-.383,7.659H153.793a7.681,7.681,0,0,0,7.659-7.659V20.6Z" transform="translate(2.829 48.383)" fill="#a35425"/>
    <path id="Caminho_187716" data-name="Caminho 187716" d="M1,46.988V35.5H12.488a7.681,7.681,0,0,1,7.659,7.659V54.647H8.659A7.681,7.681,0,0,1,1,46.988Z" transform="translate(2.829 90.541)" fill="#f6b545"/>
    <path id="Caminho_187717" data-name="Caminho 187717" d="M5.9,38.5c-4.978,0-5.361,7.276-.383,7.659H17.392V38.5Z" transform="translate(5.584 99.029)" fill="#f19920"/>
    <path id="Caminho_187718" data-name="Caminho 187718" d="M49.488,54.647H38V43.159A7.681,7.681,0,0,1,45.659,35.5H57.147V46.988A7.681,7.681,0,0,1,49.488,54.647Z" transform="translate(107.517 90.541)" fill="#f6b545"/>
    <path id="Caminho_187719" data-name="Caminho 187719" d="M49.488,35.5v7.659a3.618,3.618,0,0,1-3.829,3.829H38v7.659H49.488a7.681,7.681,0,0,0,7.659-7.659V35.5Z" transform="translate(107.517 90.541)" fill="#f19920"/>
    <path id="Caminho_187720" data-name="Caminho 187720" d="M11.574,40.329H3.915A1.809,1.809,0,0,1,2,38.415H2A1.809,1.809,0,0,1,3.915,36.5h7.659a1.809,1.809,0,0,1,1.915,1.915h0A1.809,1.809,0,0,1,11.574,40.329Z" transform="translate(5.659 93.37)" fill="#ffcb5b"/>
    <path id="Caminho_187721" data-name="Caminho 187721" d="M160.835,10.5H7.659A7.681,7.681,0,0,0,0,18.159V42.667a8.163,8.163,0,0,0,6.127,7.659L72.759,64.112H95.735l66.632-14.169a7.825,7.825,0,0,0,6.127-7.659V17.776A7.612,7.612,0,0,0,160.835,10.5Z" transform="translate(0 19.806)" fill="#c97629"/>
    <path id="Caminho_187722" data-name="Caminho 187722" d="M38.147,45.476H22.829A3.618,3.618,0,0,1,19,41.647V26.329A3.618,3.618,0,0,1,22.829,22.5H38.147a3.618,3.618,0,0,1,3.829,3.829V41.647A3.618,3.618,0,0,1,38.147,45.476Z" transform="translate(53.759 53.759)" fill="#f6b545"/>
    <path id="Caminho_187723" data-name="Caminho 187723" d="M38.147,22.5V41.647H19a3.618,3.618,0,0,0,3.829,3.829H38.147a3.618,3.618,0,0,0,3.829-3.829V26.329A3.618,3.618,0,0,0,38.147,22.5Z" transform="translate(53.759 53.759)" fill="#f19920"/>
    <path id="Caminho_187724" data-name="Caminho 187724" d="M29.574,27.329H21.915A1.809,1.809,0,0,1,20,25.415h0A1.809,1.809,0,0,1,21.915,23.5h7.659a1.809,1.809,0,0,1,1.915,1.915h0A1.809,1.809,0,0,1,29.574,27.329Z" transform="translate(56.588 56.588)" fill="#ffcb5b"/>
    <path id="Caminho_187725" data-name="Caminho 187725" d="M3.915,11.5H23.062a1.809,1.809,0,0,1,1.915,1.915h0a1.809,1.809,0,0,1-1.915,1.915H3.915A1.809,1.809,0,0,1,2,13.415H2A1.809,1.809,0,0,1,3.915,11.5Z" transform="translate(5.659 22.635)" fill="#da8c36"/>
    <path id="Caminho_187726" data-name="Caminho 187726" d="M5.829,26.415V45.562a1.809,1.809,0,0,1-1.915,1.915h0A1.809,1.809,0,0,1,2,45.562V26.415A1.809,1.809,0,0,1,3.915,24.5h0A1.809,1.809,0,0,1,5.829,26.415Z" transform="translate(5.659 59.417)" fill="#c97629"/>
    <path id="Caminho_187727" data-name="Caminho 187727" d="M10.915,11.5H49.209a1.809,1.809,0,0,1,1.915,1.915h0a1.809,1.809,0,0,1-1.915,1.915H10.915A1.809,1.809,0,0,1,9,13.415H9A1.809,1.809,0,0,1,10.915,11.5Z" transform="translate(25.465 22.635)" fill="#da8c36"/>
    <path id="Caminho_187728" data-name="Caminho 187728" d="M30.612,8.961l5.361,13.4h3.064l-4.6-11.871A12.007,12.007,0,0,0,26.4,3.6,12.031,12.031,0,0,1,30.612,8.961Z" transform="translate(74.696 0.283)" fill="#72818b"/>
    <path id="Caminho_187729" data-name="Caminho 187729" d="M42.972,4.5H26.888a7.853,7.853,0,0,0-7.276,4.978L15.4,19.818h3.829l3.446-9.191a3.68,3.68,0,0,1,3.446-2.3h26.04A13.372,13.372,0,0,0,42.972,4.5Z" transform="translate(43.573 2.829)" fill="#72818b"/>
    <rect id="Ret창ngulo_90901" data-name="Ret창ngulo 90901" width="23" height="4" transform="translate(46 26.188)" fill="#72818b"/>
    <rect id="Ret창ngulo_90902" data-name="Ret창ngulo 90902" width="23" height="4" transform="translate(100 26.188)" fill="#72818b"/>
  </g>
</svg>
