<svg id="_2352771_automation_informative_lecture_tech_technology_icon" data-name="2352771_automation_informative_lecture_tech_technology_icon" xmlns="http://www.w3.org/2000/svg" width="170.557" height="170.525" viewBox="0 0 170.557 170.525">
  <g id="Grupo_104435" data-name="Grupo 104435">
    <path id="Caminho_187473" data-name="Caminho 187473" d="M170.525,9.947V117.591a10.166,10.166,0,0,1-9.947,9.947H9.947A10.166,10.166,0,0,1,0,117.591V9.947A10.166,10.166,0,0,1,9.947,0h150.63A10.166,10.166,0,0,1,170.525,9.947Z" fill="#e8eae9"/>
  </g>
  <g id="Grupo_104440" data-name="Grupo 104440" transform="translate(11.013 16.697)">
    <g id="Grupo_104436" data-name="Grupo 104436" transform="translate(0 5.329)">
      <path id="Caminho_187474" data-name="Caminho 187474" d="M3.811,12.95l-.355-.355v-.355c.355,0,.711-.355,1.066-.355h.711v.355h.711c0-.355,0-.355-.355-.355H4.876a.348.348,0,0,0-.355-.355H4.166a.348.348,0,0,1-.355-.355v-.355c0-.355,0-.355.355-.355h.711a.348.348,0,0,0,.355-.355.348.348,0,0,1,.355-.355A1.24,1.24,0,0,1,6.3,9.4l.355-.355a.348.348,0,0,0,.355-.355h.711s.355-.355.355,0c.355,0,.355,0,.711.355h.355c.711,0,.711,0,.711-.355.355,0,.355,0,.711.355h5.329a.348.348,0,0,1,.355.355H16.6V9.042h3.2V9.4h.355V9.042h.355a.348.348,0,0,1,.355.355.348.348,0,0,0,.355.355.348.348,0,0,1,.355-.355s.355-.355.355,0v.711a.348.348,0,0,0,.355-.355H24.06c.355,0,.355,0,.711.355H26.9c-.355,0-.355,0-.711-.355V9.4c.355,0,.355,0,.711-.355a1.305,1.305,0,0,1-1.066-.355V8.332c0-.355-.355,0-.355-.355V7.621h0l-.355.355-.355.355c0,.355,0,.355-.355.355H23.35a.348.348,0,0,0-.355-.355c-.355,0-.355-.355-.711-.355h0V7.621c0-.355.355-.355.355-.711V6.2h2.842c.355,0,.355,0,.711.355a.348.348,0,0,1,.355.355H26.9c.355,0,.355,0,.355.355h.711c.355,0,.355,0,.711.355h.355V7.266H30.1V6.911a.355.355,0,1,1,.711,0h0l.355-.355h.711v.355l-.355.355c0,.355,0,.355.355.711v.355h.355a.348.348,0,0,1,.355.355h1.066V9.4l-.355.355H31.876c0,.355,0,.355.355.355h2.132V9.753h0V9.4h.355a.348.348,0,0,1,.355-.355h.355a.348.348,0,0,0,.355.355h0V8.332a.764.764,0,0,0,.711-.711l-.355-.355V6.555h0a.348.348,0,0,1,.355-.355h2.132c-.355,0-.355.355-.711.711,0,0-.355.355-.355,0H37.2v.355h0a.348.348,0,0,0,.355.355l.355.355h.355l.355.355v.355l.355.355a.348.348,0,0,1,.355.355h.355a.348.348,0,0,1,.355.355v.711h-.355l.355.355H40.4v-.355h.711a.348.348,0,0,1,.355-.355V9.042h-.711a.348.348,0,0,1-.355-.355h-.355V8.332h-.355V7.266c.355-.355.355-.711.711-.711.355-.355.355,0,.711,0h.355c.355,0,.355,0,.711.355.355,0,.711-.355,1.421,0h1.421c.355,0,.355.355.711.355a.348.348,0,0,0,.355.355l.355.355v.355h.711c.355,0,.355,0,.711.355l.355.355h1.066a.348.348,0,0,1,.355.355l.355.355v.355l.355.355h1.066c.355,0,.355.355.711.355h.355c.355,0,.355.355.711.355v.355h-.355c0,.355,0,.355-.355.355a.348.348,0,0,1-.355.355h-.355c-.355,0-.355,0-.711-.355h0a.348.348,0,0,0-.355-.355v.355c-1.776.711-1.776,1.066-1.776,1.066q.533,0,1.066,1.066h0c-.355,0-.355,0-.355.355h.355c0,.355-.355.355-.355,0h0c-.355-.355-.355-.355-.711-.355h0l.355.355s0-.355.355,0a.348.348,0,0,1,.355.355s0,.355-.355,0h0a1.305,1.305,0,0,0-1.066-.355h-.711a.348.348,0,0,1-.355-.355h-.355c-.355-.355-.711-.711-1.066-.711a.348.348,0,0,1-.355-.355H44.665c-.355,0-.355,0-.711-.355h0v-.355l.355-.355h1.421a.348.348,0,0,0-.355-.355.348.348,0,0,1,.355-.355.348.348,0,0,0,.355-.355l.355-.355c0-.355-.355-.355-.355-.711h-.711a.348.348,0,0,1-.355.355h-.355a.348.348,0,0,1-.355-.355V9.4c.355-.355.355-.355.711-.355h0V8.687h-.355a.348.348,0,0,0-.355-.355h0l-.355.355h.355c0,.355-.355,0-.355,0v.355H43.6V8.687a.348.348,0,0,1-.355-.355l.355-.355h-.711c0-.355-.355,0-.355-.355h-.355c.355.355.355.711,0,.711h0v.355a.348.348,0,0,1,.355.355c0,.355,0,.355-.355.355a.348.348,0,0,1-.355.355l-.355.355h-.355v.355H40.4a.348.348,0,0,0,.355.355c.355,0,.355.355.711.355h.355l.355.355a.348.348,0,0,1,.355.355h0c-.355,0-.355,0-.711-.355h-.355l-.355.355h-.355a.348.348,0,0,1-.355-.355h-.711a.348.348,0,0,1,.355-.355V10.108c-.355,0-.355,0-.355.355v.355l-.355.355a.348.348,0,0,0-.355.355h0c-.355,0-.355,0-.711.355h0a.348.348,0,0,1-.355.355h0a.348.348,0,0,0-.355.355H37.2l-.355.355h0a1.305,1.305,0,0,0-.355,1.066.348.348,0,0,0,.355.355H37.2a.348.348,0,0,1,.355.355v.355c0,.355,0,.355.355.711h.711c.355,0,.355.355.711.355h0l.355.355a.348.348,0,0,1,.355.355.348.348,0,0,1,.355.355h0a.348.348,0,0,1,.355.355h1.066v1.066h.355a.348.348,0,0,1,.355.355v.355h0v.711h0a.348.348,0,0,1,.355-.355V18.634a.348.348,0,0,0-.355-.355.348.348,0,0,1,.355-.355,1.24,1.24,0,0,0,.711-.355h0a1.24,1.24,0,0,0,.355-.711c0-.355,0-.711-.355-.711l-.355-.355a.348.348,0,0,1-.355-.355h0a.348.348,0,0,0,.355-.355,1.24,1.24,0,0,0,.355-.711v-.355h-.355l.355-.355V12.595h1.421a.348.348,0,0,1,.355.355.348.348,0,0,1,.355.355h0a.348.348,0,0,1,.355.355v.355h1.066v1.066l.711.711c.355.355.355.355.711,0h0l.355-.355a.348.348,0,0,1,.355-.355.348.348,0,0,1,.355-.355c.355,0,.355.355.355.711v.355c.355.355.355.355.355.711a.348.348,0,0,0,.355.355.348.348,0,0,0,.355.355v.355h0a1.24,1.24,0,0,0,.355.711l.355.355h.355a.348.348,0,0,1,.355.355h.355V19.7h0l.355.355s.355.355,0,.355v1.421h0l-.355.355h.355l.355.355H53.9c.355,0,.355,0,.711.355v.355h.355v.355h0v1.066c0,.355,0,.355-.355.355a.348.348,0,0,1-.355-.355v-.355H53.9c0,.355-.355,0-.355,0v-.355H51.771v-.355a.348.348,0,0,1,.355-.355h0l.355-.355c0-.355.355-.711.355-1.066v-.711h0c-.355,0-.355,0-.711.355a.348.348,0,0,1-.355.355H48.928v.355a.348.348,0,0,1-.355.355l-.355.355h.355a1.305,1.305,0,0,1,1.066-.355h.711v.711h0v.355h-.355v.711l.355-.355h.711v.355h.355a1.24,1.24,0,0,1,.355-.711v.711l.355.355v.355a.348.348,0,0,0-.355.355h0a.348.348,0,0,1-.355.355.348.348,0,0,0-.355.355H50.7l-.711.711h0a.348.348,0,0,1-.355-.355v-.355c0-.355.355-.355.711-.711h0c-.355,0-.355,0-.711.355v.355a1.24,1.24,0,0,0-.711.355h-.355c-.355,0-.355.355-.711.711v.355h0v.355h0v.355l-.355.355H46.8v.355h-.711a.348.348,0,0,0-.355.355c0,.355,0,.355-.355.711v.355h0v1.066c0,.355,0,.355-.355.355V33.2l-.355.355-.355.355a.348.348,0,0,0-.355.355v.355H43.6a.348.348,0,0,0-.355.355v.355l-.711.711c-.355,0-.355.355-.355.711v.711a1.305,1.305,0,0,0,.355,1.066h0v2.842h-.355V40.66c0-.355-.711-1.066-.711-1.066v-.711h0c0-.355-.355-.355-.355-.711h0a.348.348,0,0,0-.355.355H40.4a.348.348,0,0,0-.355-.355c-.355,0-.355-.355-.711,0h-.711v.711c0-.355,0-.355-.355,0h-.355c-.355,0-.355,0-.711-.355a.348.348,0,0,1-.355-.355c-.355,0-.711,0-.711.355s-.355.355-.711.355-.355.355-.355.711v3.553h0c0,.355,0,.711.355.711a.348.348,0,0,0,.355.355c0,.355,0,.355.355.711h.355a.348.348,0,0,1,.355.355h1.066c.355-.355.355-.355.355-1.066,0-.355,0-.711.355-.711h1.421v.711h0v1.421h0V47.41h1.776l.355.355h0v2.842h0a1.24,1.24,0,0,0,.355.711,23394.815,23394.815,0,0,1,.711.711h0l.355-.355h.711a.348.348,0,0,1,.355.355.348.348,0,0,0,.355.355l.711-.711v-.711a.348.348,0,0,1,.355-.355h0c0-.355,0-.355.355,0h0l.355-.355V49.9h.355v.355H46.8v.355h0c0-.355.355,0,.355-.355V49.9h0c0,.355,0,.355.355.711a.764.764,0,0,1,.711.711h1.066a.348.348,0,0,1,.355.355c.355,0,.355,0,.355-.355h.355v.355h.711l-.355.355c0,.355,0,0,.355,0h0v-.355h.355v.355h0c.355,0,.355.355.355.711l.355.355.711.711a.764.764,0,0,0,.711.711h1.066a.348.348,0,0,1,.355.355h0c.355,0,.355,0,.355.355l.355.355.355.355V57a.348.348,0,0,1,.355.355h.355a.348.348,0,0,1,.355.355v.355h0c0,.355,0,.355.355.711v.355c.355,0,.355,0,.711.355a.348.348,0,0,1,.355.355h.355a.348.348,0,0,1,.355.355v.355s0,.355.355,0h.355a.348.348,0,0,1,.355.355h1.421l.711.711a.348.348,0,0,0,.355.355h.71a.348.348,0,0,1,.355.355c0,.355.355.711.355,1.066v.711c0,.355,0,.711-.355.711a18715.762,18715.762,0,0,0-.711.711h0c0,.355-.355.355-.355.711s-.355.711-.711,1.066v4.618c0,.355,0,.355-.355.711v.355c0,.355-.355.355-.355.711v.355a.348.348,0,0,0-.355.355H59.942a.348.348,0,0,0-.355.355v.355h-.355c-.355,0-.355.355-.711.711-.355,0-.355.355-.355.711v1.776c0,.355,0,.355-.355.355-.355.355-.355.355-.355.711a1.846,1.846,0,0,1-.711,1.421l-.355.355v.355c0,.355-.355.355-.355.711h0c-.355.355-.355.355-.711.355a.348.348,0,0,0-.355.355l-.355.355V84a.348.348,0,0,1-.355.355l-.355.355a.348.348,0,0,1-.355.355c-.355.355-.355,0-.711.355h-.711c-.355,0-.355.355-.355.711v.355c0,.355,0,.355-.355.355H50.349v.711s0,.355.355,0h.355v.355H50.7a47138550183121.19,47138550183121.19,0,0,1-.711.711v1.066h-.355c-.355,0-.355.355-.355.711v.355c.355,0,.355.355.711.355h0v.711a.348.348,0,0,0-.355.355l-.355.355c-.355,0-.355.355-.355.711l-.355.355a.348.348,0,0,0-.355.355V94.3c0,.355,0,.711.355.711h0l.355.355v.711l.711.711h.355v.355h-.711V97.5h-.355a.348.348,0,0,1-.355-.355h0c-.355,0-.355,0-.355-.355h0a.348.348,0,0,1-.355-.355h-.355v-.355c-1.776-1.776-2.131-1.776-2.131-2.132h0a.348.348,0,0,0-.355-.355v-.355h0V90.752a.348.348,0,0,1,.355-.355h0v-.355h-.355v-.355l.355-.355c0-.355,0-.355.355-.711V87.554h0v.355h0V86.489h0v.355a1.1,1.1,0,0,1-.355.711h-.355V86.489h0v-.711h0c0-.355,0-.711.355-.711v-.355h0V83.291h0a1.305,1.305,0,0,1,.355-1.066c0-.355.355-.711.355-1.066v-.711h0V78.318h0V74.41h0V72.634h0V70.147l-.355-.355h0a.764.764,0,0,0-.711-.711l-.711-.711c-.355,0-.355-.711-.711-1.066v-.711c0-.355,0-.355-.355-.711V64.818a2.136,2.136,0,0,1-.355-1.421,46790.133,46790.133,0,0,1-.711-.711.764.764,0,0,0-.711-.711V59.844h.355c0-.355,0-.355-.355-.711V56.647a.348.348,0,0,1,.355-.355l.355-.355v-.711h.355a.348.348,0,0,1,.355-.355V52.384c0-.355-.355-.355-.355-.711v-.355h0a.348.348,0,0,0-.355-.355h-.355l-.355.355v.355a.348.348,0,0,1-.355.355.348.348,0,0,0-.355-.355c0-.355,0-.355-.355-.355h-.711c0-.355,0-.355-.355-.355a.348.348,0,0,1-.355-.355h0l-.355-.355V49.9c0-.355,0-.355-.355-.355v-.355c0-.355-.355-.355-.355-.711v-.355H37.2a1.1,1.1,0,0,1-.711-.355h-.711l-.355-.355c0-.355-.355-.355-.355-.711l-.355-.355h-.355c-.355,0-.355.355-.711.355h0c-.355,0-.355-.355-.711-.355l-.355-.355c-.355,0-.355-.355-.711-.355l-.355-.355H30.81a.348.348,0,0,1-.355-.355.348.348,0,0,0-.355-.355.348.348,0,0,1-.355-.355.348.348,0,0,0-.355-.355c0-.355,0-.355.355-.711,0-.355-.355-.355-.355-.711v-.355l-.355-.355c0-.355-.355-.355-.355-.711l-.355-.355c0-.355-.355-.355-.355-.711l-.355-.355v-.355h0l-.355-.355h0l-.355-.355c-.355,0-.355-.355-.711-.711h-.355v-.711a.348.348,0,0,0-.355-.355V36.4l-.355-.355h0v1.066h0a.348.348,0,0,0,.355.355l.355.355c0,.355.355.711.355,1.066h0c.355.355.355.355.355.711V40.3c0,.355,0,.355.355.355v.355h.355c0,.355.355.355.355.711a.348.348,0,0,1-.355.355h0c0-.355-.355-.711-.711-1.066a.348.348,0,0,1-.355-.355V40.3c0-.355,0-.711-.355-.711s-.355-.355-.711-.355-.355-.355-.711-.711h.355v-.355a.348.348,0,0,0-.355-.355h0a1.24,1.24,0,0,1-.355-.711c0-.355,0-.711-.355-.711v-.355h0c0-.355-.355-.711-.355-1.066h0c-.355-.355-.355-.355-.711-.355,2.487-.711,2.487-.711,2.132-.711h0c0-.355,0-.355-.355-.711a1.24,1.24,0,0,1-.355-.711v-.355c0-.355-.355-.355-.355-.711h0c0-.355-.355-.355-.355-.711V30h0V26.095a2.136,2.136,0,0,0-.355-1.421v-.711a.348.348,0,0,1-.355-.355.348.348,0,0,1-.355-.355c-.355,0-.355-.355-.711-.711h-.355v-.355h0v-.711c0-.355,0-.355-.355-.711V20.41a.348.348,0,0,1-.355-.355V18.989h-.355v.355H19.8v-.711c0-.355,0-.355-.355-.711v.355c0-.355-.355-.355-.355-.711h0a.348.348,0,0,0-.355-.355v-.355h0c-1.776.711-1.776.355-1.776.355h0a.348.348,0,0,1-.355-.355V16.5h-.711c-.355,0-.711-.355-1.066,0h-.355v-.355H13.047v-.355h-.355a.348.348,0,0,1-.355.355h-.711c-.355,0-.711.355-1.066.355v-.355c0-.355,0-.355-.355-.355a.348.348,0,0,1-.355.355.348.348,0,0,0-.355.355h0a.348.348,0,0,1,.355.355v.355l-.355.355h0c-.355,0-.355,0-.355.355h0a.348.348,0,0,0-.355.355l-.355.355-.355.355h0l-.355.355H7.363V19.7a.348.348,0,0,1,.355.355l-.355.355v-.355H6.653L6.3,19.7H5.232l-.355.355H4.521l-.355.355H3.1v-.355s.355-.355.355,0h.711c0-.355.355,0,.711,0a.348.348,0,0,1,.355-.355h.355a.348.348,0,0,0,.355-.355l.355-.355h.711a.348.348,0,0,1,.355-.355.348.348,0,0,0,.355-.355l.355-.355v-.355H7.363c0-.355-.355-.355-.355,0H6.653v.355H5.942v-.711a.666.666,0,0,0-1.066,0l-.355-.355a.348.348,0,0,1-.355-.355v-.355l-.355-.355v-.711h0l.355-.355a.348.348,0,0,1,.355-.355H5.942a.348.348,0,0,0,.355-.355v-.711H4.166Z" transform="translate(-3.1 -6.2)" fill="#ced6e0"/>
    </g>
    <g id="Grupo_104437" data-name="Grupo 104437" transform="translate(42.986)">
      <path id="Caminho_187475" data-name="Caminho 187475" d="M20.529,5.411h0c-.355-.355,0-.355,0,0,.355-.355.355-.355.711-.355h2.132a.348.348,0,0,1,.355.355h0V5.055c.355,0,.355,0,.355.355V5.055h0c.355,0,.355.355.711.355h.355a.348.348,0,0,0-.355-.355h2.487a.348.348,0,0,1-.355-.355H37.581c-.355,0-.355.355-.711.355h0v.355c.71.355.355.355.355.355h1.421v.355h1.776c.355,0,.711-.355,1.066,0h1.066c-.355,0-.355,0-.711.355h0c-.355.355-.355,0-.711,0l-.355.355h0a1.24,1.24,0,0,1-.711.355h-.355a.348.348,0,0,0,.355.355V7.9a.348.348,0,0,0,.355-.355h.355c0,.355-.355.355-.355.711v.711h.355v.355a.348.348,0,0,1-.355.355v.355h-.355a.348.348,0,0,0-.355-.355H39v.355c0-1.066,0-.711.355-.711v.355h0a.348.348,0,0,0,.355.355V9.674h0V9.318h.355l.355.355h-.355v.355c-.355,0-.355.355-.711.355a.348.348,0,0,1-.355.355h-.711s.355.355,0,.355c0,.355,0,.355-.355.355a.348.348,0,0,1,.355.355v.711c0,.355,0,.355-.355.355h-.711a.348.348,0,0,1-.355-.355V12.16a.348.348,0,0,0-.355.355v.355c.355,0,.355,0,.711.355h.711a.348.348,0,0,0-.355.355h-.355a.348.348,0,0,0-.355.355c-.355,0-.355.355-.711.355a1.305,1.305,0,0,0-1.066.355c-.355,0-.711.355-1.066,0h-.711L32.963,15l-.711.711c-.355,0-.355,0-.711.355H30.476c-.355,0-.355,0-.355.355h-.355v1.066c-.355.355-.355.711-.711.711h0v.711c-.355.711-.355.711-.355,1.066s0,.355-.355.355h-.711c-.355-.355-.355-.355-.711-.355h-.711v-.355c0-.355-.355-.355-.355-.711a.348.348,0,0,0-.355-.355h0a.348.348,0,0,1-.355-.355h0c-.355,0-.355-.355-.355-.711s0-.355-.355-.355a.348.348,0,0,0-.355-.355V15.713h0V15a.348.348,0,0,1,.355-.355h.355v-.355a.348.348,0,0,0-.355-.355h0c0,.355,0,.355-.355.355H23.016v-.711h.711a.348.348,0,0,1-.355-.355H22.66s-.355-.355,0-.355V11.805h0V11.45a.348.348,0,0,0-.355-.355c-.355,0-.355-.355-.355-.711a.348.348,0,0,0-.355-.355h-.355c-.355,0-.355-.355-.711,0h-3.2c-.355,0-.711,0-.711-.355h-.355V9.318a.348.348,0,0,1-.355-.355H15.2V8.608a1.24,1.24,0,0,1,.711-.355A1.305,1.305,0,0,0,16.976,7.9H18.4c.355,0,.355,0,.711-.355V7.187h0c-.355.355-.355,0-.711,0h-.355V6.832c.355,0,.711-.355,1.066-.355,0,0,.355-.355.355,0h.711c0-.711,0-.711.355-1.066Z" transform="translate(-15.2 -4.7)" fill="#ced6e0"/>
    </g>
    <g id="Grupo_104438" data-name="Grupo 104438" transform="translate(95.565 63.591)">
      <path id="Caminho_187476" data-name="Caminho 187476" d="M30.711,33.258h0c.355-.355.355-.355.355-.711V30.416h0v.355l.355-.355a.348.348,0,0,0,.355-.355l.355-.355H33.2a.348.348,0,0,0,.355-.355h.711c.355,0,.355-.355.355-.711a.348.348,0,0,1,.355-.355v-.711h0c0-.355.355-.355.355-.711h0v.355h0v-.711h.355V25.8c.355,0,.355,0,.355-.711h0a.355.355,0,1,1,.711,0v.355c.355.355.355.355.711,0v-.355h0V24.021l.355-.355v-.355H37.46v-.355h.355l.355.355v.355h.711v-.355h.355a.348.348,0,0,0,.355.355h.355l.355.355h.355l.355-.355h.355v.355h0l.355.355h0c0,.355,0,.355-.355.711v.355h.355V25.8c-.355,0-.355,0-.355-.355a.348.348,0,0,1-.355.355.348.348,0,0,0,.355.355h.355v.355h0v.355h.355c0,.355,0,.355-.355.355h0c0,.355,0,.355.355.355h0c.355,0,.355,0,.355-.355s.355-.711.355-1.066V23.666a1.305,1.305,0,0,1,.355-1.066H43.5v.711h0v1.776h.355a.348.348,0,0,0,.355.355v1.066a.348.348,0,0,0,.355.355v.711h0v.711h0a.348.348,0,0,1,.355.355l.355.355.355.355v.355a1.305,1.305,0,0,1,.355,1.066h.71v.71h0c.355,0,.355.355.355.711h.355v1.776h0V36.81a1.24,1.24,0,0,0-.355.711c0,.355-.355.711-.355,1.066v.355a1.24,1.24,0,0,0-.355.711v1.066H45.276l-.711.711-.355-.355h-.355s-.355.355-.355,0H42.079l-.355-.355v-.355c0-.355,0-.355-.355-.711l-.355-.355c-.711.355-.711.355-1.066.355V39.3H40.3l.355-.355v0H40.3V37.876c0,.355,0,.355-.355.355l-.355.355v.355c-.355,0-.355,0-.355-.355v-.355a.348.348,0,0,0-.355-.355h0l-.355-.355a.348.348,0,0,0-.355-.355h-.355a.348.348,0,0,1-.355-.355H36.395a1.24,1.24,0,0,0-.711.355h-.355c-.355,0-.355.355-.711.355a1.1,1.1,0,0,1-.355.711H32.842l-.355.355h-.355a.348.348,0,0,0-.355.355h0s-.355-.355-.355,0a.348.348,0,0,1-.355-.355l-.355-.355c-.355,0-.355,0-.355-.711h0v-3.2c0-.355,0-.355-.355-.711V32.9C30.711,33.968,30.711,33.613,30.711,33.258Z" transform="translate(-30 -22.6)" fill="#ced6e0"/>
    </g>
    <g id="Grupo_104439" data-name="Grupo 104439" transform="translate(63.236 2.842)">
      <path id="Caminho_187477" data-name="Caminho 187477" d="M105.452,14.737c-.355,0-.355.355-.711.355v1.776h-.355c-.355,0-.355.355-.711.355-.355.355-.711.711-1.066.711a.348.348,0,0,0-.355.355h-1.066c-.355,0-.355,0-.711.355,0,0-.355.355-.355,0v-.355a.348.348,0,0,0-.355.355.348.348,0,0,0-.355.355v-.355H98.7c0,.355,0,.355-.355.711a.348.348,0,0,0-.355.355H98.7c0,.355-.355.355-.355.711H98.7v.355h-.355a.348.348,0,0,0-.355.355h0v.355c0,.355,0,.355-.355.355h-.711c-.355,0-.355.355-.355.711H95.86c0,.355-.355.711-.355,1.066l-.355.355a1.24,1.24,0,0,1-.355-.711v-3.2a.348.348,0,0,1,.355-.355H95.5c.355,0,0,0,0-.355h.355c.355,0,.355-.355.711-.711,0-.355.355-.355.711-.711l.355-.355c0-.355.355-.355.711-.355a.348.348,0,0,0,.355-.355c0-.355,0-.355.355-.711a.348.348,0,0,0-.355.355v.711h-.355c-.355.355-.711.355-.711.711v-.355h0v-.355H96.57a.348.348,0,0,0-.355.355h0a1.1,1.1,0,0,1-.711.355l-.355.355H95.5v.355H93.728l.355-.355c0-.355-.355,0-.355,0-.355,0-.355-.355-.711,0v.355h-.355s-.355.355-.355,0h-.355s-.355.355-.355,0H90.176c-.355,0-.355,0-.711.355h0c-.355,0-.355,0-.355.355h0l-.355.355a.348.348,0,0,0-.355.355l-.355.355a.348.348,0,0,0-.355.355l-.355.355h.355v.355h0c0-.355-.355,0-.355-.355s.355,0,.355-.355h.355v.355h0v.711l.355-.355h.355l.355.355s.355.355.355,0h.355v-.355h.355c0,.355,0,.711.355.711v1.421c0,.355.355,1.066.355,1.421h0a.348.348,0,0,1-.355-.355h-.355c-.355,0-.355,0-.355.355v.711h0c0,.355,0,.355.355.355v0H89.82a.348.348,0,0,0-.355.355.348.348,0,0,1-.355.355V25.395h0V23.618a.348.348,0,0,0-.355-.355H88.4v1.066c-.355.355,0,.711-.355.711,0,.355-.355.355-.711.711,0,.355-.355.355-.355.711s-.355.355-.355.711l-.355.355a1.1,1.1,0,0,0-.355.711c-.355.355-.711.711-1.066.711h-.355v-.355h-.355l-.355.355h-.355a.348.348,0,0,0-.355.355v.355a.348.348,0,0,1-.355.355l-.355.355H82v.355l.355.355v.355l.355.355c0,.355,0,.355.355.711v.355c0,.355,0,.711-.355.711H82a.348.348,0,0,0-.355.355h-.355V33.21h0V31.789h-.355c0-.355.355-.711.355-1.066h0c-.355,0-.355-.355-.711,0l-.355.355h0s-.355.355-.355,0V30.013s0-.355-.355,0l-.355.355a.348.348,0,0,0-.355.355h0a.348.348,0,0,1-.355.355.348.348,0,0,1,.355.355c0,.355.355.355.355.711l.355-.355h.355s.355.355.355,0h.355v.355h0c-.355,0-.355,0-.711.355l-.355.355-.355.355h.355a1.24,1.24,0,0,1,.711.355v1.066h0v2.132a1.305,1.305,0,0,1-.355,1.066v.711h0l-.355.355V39.6a.348.348,0,0,1-.355.355.348.348,0,0,0-.355.355v.355l-.355.355c-.355.355,0,.355-.355.355l-.355.355a1.24,1.24,0,0,1-.711.355h-.355a.348.348,0,0,0-.355.355h-.355c-.355,0-.711,0-.711.355v.711h0c0,.355-.355.355-.355.711a.348.348,0,0,1-.355.355h-.711v-.711a1.24,1.24,0,0,1,.711-.355c0-.355,0-.711-.355-.711h-.355c-.355,0-.355,0-.711.355h0a.348.348,0,0,0-.355.355h0l-.355.355v.711h0v.711c.355.355.355.711.711.711h0c0,.355,0,.355.355.355v2.487c0,.355-.355.355-.355.711s-.355.355-.711.355v.355a.348.348,0,0,1-.355.355.348.348,0,0,0-.355.355l-.355.355v-.711c0-.355,0-.355-.355-.711v.355l-.355-.355h0V49.2h-.355c0-.355-.355-.355-.711-.355v-.711h-.355V49.2c0,.355-.355.711-.355,1.066h0c0,.355,0,.355.355.355a.348.348,0,0,1,.355.355v.711c0,.355,0,.355.355.711h.355a.348.348,0,0,0,.355.355l.355.355.355.355c0,.355.355.711,0,.711h0v.355a1.305,1.305,0,0,1,.355,1.066h0v.355h-.355v1.066H71.7l.355.355h0l.355.355.355-.355v.711h.355v.355h-.355c0,.355-.355.711,0,1.066v1.066h-.711a.348.348,0,0,0-.355-.355c0-.355-.355-.355-.355-.711l-.355-.355h0c-.355-.355-.355-.355-.355-.711h0c0-.355,0-.711-.355-.711v-.355a.348.348,0,0,0-.355-.355l-.355-.355v-.711l-.355-.355H68.86v-.711h0c0-.355,0-.355-.355-.355a1.24,1.24,0,0,1-.355-.711V53.46c0-.355.355,0,.355,0,.355.355.355,0,.711.355.355,0,.355,0,.355.355v.355c0,.355.355.355.355.711l.355.355v.355h0V56.3l.355.355h0l-.355-.355-.355-.355h0c0-.355-.355-.711-.355-1.066V53.46h-.355V52.75a.348.348,0,0,0-.355-.355h0v-.711h0V50.263h0V49.2h0V47.776H67.794c-.355,0-.355,0-.355-.355v-.355h0V46h-.355v-.711c-.355,0-.355-.355-.711-.711v-.355s0-.355-.355,0H64.242v.711a.348.348,0,0,1-.355.355v1.066l-.355.355h0c0,.355-.355.355-.355.711v.355h0c-.355,0-.355,0-.355.355h0v3.908h-.355v.711H62.11V53.1h0s-.355.355-.355,0c-.355-.355-.355-.355-.355-1.066V50.973c0-.355,0-.355-.355-.711a1.24,1.24,0,0,1-.355-.711,1.305,1.305,0,0,0-.355-1.066h0a1.305,1.305,0,0,1-.355-1.066V46a1.305,1.305,0,0,0-.355-1.066v-.711h-.355l-.355-.355h0l-.355-.355V42.092l-.355-.355-.355-.355v-.355h0c0-.355,0-.355-.355-.355h-3.2a1.305,1.305,0,0,1-1.066-.355c0-.355-.355-.355-.355-.711h0c0,.355-.355.355-.711.355h-.355c0-.355,0-.355-.355,0h0A.348.348,0,0,1,51.1,39.6l-.355-.355h-.355v-.355c0-.355,0-.355-.355-.355v-.355a.348.348,0,0,0-.355-.355h-.711v.711c0,.355,0,.355.355.711l.355.355.355.355h0a.348.348,0,0,1,.355.355h.355v1.066a.348.348,0,0,0,.355.355h.355c.355,0,.355,0,.711-.355v-.355a18715.722,18715.722,0,0,0,.711-.711h.355v1.066a.348.348,0,0,0,.355.355h.355c0,.355.355.355.355.711s0,.711-.355.711c0,0-.355.355,0,.355v.355h-.355v2.487h0c-.355,0-.355,0-.355.355s-.355,0-.355.355v.355h-.355c0,.355,0,.355-.355.355h-.355c-.355,0-.355.355-.711.355l-.355.355h0c-.355,0-.355.355-.711.355s-.355,0-.711.355a.348.348,0,0,0-.355.355.348.348,0,0,1-.355.355h-.355l-.355.355c-.355,0-.355,0-.355.355-.355.355-.355.355-.711.355h0v1.066c.355.355.355.355.711.355h1.776c.355,0,.711,0,.711-.355.355-.355.355-.355.355,0V53.1h-.355c0,.711,0,1.066-.355,1.421h0c0,.355,0,.355-.355.711v.355c0,.355,0,.711-.355.711l-.355.355v.355a1.24,1.24,0,0,0-.355.711c-.355.355-.355.711-.711,1.066l-.355.355c-.355.355-.711.711-.711,1.066a46789.631,46789.631,0,0,0-.711.711,1.24,1.24,0,0,1-.355.711l-.355.355V62.7a.348.348,0,0,1-.355.355c0,.355,0,.355-.355.711v.711h0v.711h0V66.6a.348.348,0,0,0,.355.355c.355,0,.355.355.355.711v2.487c0,.355,0,.711-.355.711h0c0,.355-.355.355-.355.711h0c-.355,0-.355.355-.711.355v.355c0,.355-.355.355-.355.711-.355,0-.355.355-.355.711v1.066h0v1.776l-.355.355c-.355,0-.355.355-.711.355v1.776c0,.355,0,.355-.355.711-.355,0-.355.355-.355.711a1.24,1.24,0,0,1-.355.711v.355l-.355.355a.764.764,0,0,1-.711.711l-.355.355h-3.2a.348.348,0,0,1-.355.355c-.355,0-.355,0-.355-.355H35.11V81.881h0V80.815c0-.355-.355-.711-.355-1.066s-.355-.711-.355-1.066v-.355a3.2,3.2,0,0,1-.355-1.776V74.42c0-.355,0-.355-.355-.711v-.355c0-.355-.355-.711-.355-1.066v-.355a1.305,1.305,0,0,1-.355-1.066h0V69.8c0-.355.355-.711,0-1.066v-.711c0-.355,0-.355.355-.355a1.24,1.24,0,0,0,.355-.711V65.539h0a.348.348,0,0,0,.355-.355v-.355h0c0-.355-.355-.711-.355-1.066v-.711h0a1.1,1.1,0,0,0-.355-.711v-.355c0-.355-.355-.355-.355-.711-.355-.355-.355-1.066-.711-1.421h0s.355-.355,0-.355V57.368l-.355-.355h-.355v-.355H31.2c-.355,0-.355,0-.355-.355s0-.355-.355-.711a.348.348,0,0,0-.355-.355h-.711s-.355.355-.355,0h0a.348.348,0,0,1-.355.355c-.355,0-.711.355-1.066.355H26.229c-.355,0-.711,0-.711.355a.348.348,0,0,0-.355.355h-.711A.348.348,0,0,0,24.1,56.3c-.355,0-.355-.355-.355-.711s-.355-.355-.711-.711h0c0-.355-.355-.355-.711-.711V53.46h0a1.305,1.305,0,0,0-.355-1.066v-.355l-.355-.355c0-.355-.355,0-.355,0h0V49.2l-.355-.355h0a1.305,1.305,0,0,0,.355-1.066V46c-.355-.355,0-.355,0-.711h0a.348.348,0,0,0-.355-.355v-.711a.348.348,0,0,1,.355-.355h0c0-.355.355-.711.355-1.066l.355-.355a.348.348,0,0,1,.355-.355c0-.355,0-.355.355-.711l.355-.355v-.355a.348.348,0,0,1,.355-.355.348.348,0,0,1,.355-.355H24.1a.348.348,0,0,1,.355-.355.348.348,0,0,0,.355-.355,1.24,1.24,0,0,0,.355-.711V37.473a.492.492,0,0,0,0-.711l.355-.355a.348.348,0,0,0,.355-.355l.355-.355h0v-.355c0-.355.355-.355.355-.711a.348.348,0,0,0-.355-.355c0-.355-.355-.355-.355,0h-.711V33.21h0V32.5h0V30.013a.348.348,0,0,0,.355-.355h2.487c.355,0,.355,0,.355-.355V27.881c0-.355-.355-.355-.355-.711s-.355-.355-.355,0v-.355h-.355a.348.348,0,0,0-.355-.355v-.355H28.36v-.711h.711a.348.348,0,0,1,.355-.355h0s.355,0,0-.355c0-.355,0-.355.355-.355h.355a.764.764,0,0,0,.711-.711.348.348,0,0,1,.355-.355.348.348,0,0,1,.355-.355h1.066V22.2h0v-.711h.355c.355,0,.355,0,.355-.355h.355v.711h.355v.711h.711V22.2a.348.348,0,0,0-.355-.355,1.305,1.305,0,0,1-.355-1.066c0-.355,0-.355-.355-.355s-.355,0-.711.355-.355.355-.711.355h-.355a.348.348,0,0,1-.355-.355v-.355c0-.355-.355-.355-.355-.711v-.355c-.355-.355,0-.711,0-1.421h0a.348.348,0,0,0,.355-.355h.355a.348.348,0,0,0,.355-.355h0s.355-.355.355,0h.355a.348.348,0,0,1,.355-.355h0v-.355h.355v-.355a1.24,1.24,0,0,0,.355-.711H34.4a.348.348,0,0,1,.355-.355h0a.348.348,0,0,0,.355-.355v-.355H34.4v-.355c.355,0,.355-.355.711-.355h0l.355-.355h.711a.348.348,0,0,1,.355-.355.348.348,0,0,0,.355-.355c0-.355.355,0,.355,0h1.066V12.25c.355,0,.355-.355.711,0v-.355h1.066a.348.348,0,0,1,.355-.355H41.86a.348.348,0,0,1,.355.355c0,.355-.355,0-.355.355.355.355.355.355.711,0h.355a.348.348,0,0,1,.355.355h1.776c.355.355.355.355,1.066.355a.348.348,0,0,1,.355.355h0v.355l-.355.355a1.305,1.305,0,0,1-1.066.355H43.281c0-.355-.355,0-.355,0h0c0,.355.355.355.711.711v.355h0l.355.355H44.7l.355.355h0c-.355,0-.355-.355-.711-.355-2.132-1.066-1.776-1.421-1.776-1.066a1.24,1.24,0,0,0,.711.355h.711v-.355a.348.348,0,0,1,.355-.355c.355,0,.355,0,.711-.355l.355-.355h.711a.348.348,0,0,0,.355-.355h-.355c.355,0,.355,0,.355-.711a.348.348,0,0,1-.355-.355h1.066a.348.348,0,0,1,.355.355c-.355,0-.355,0-.711.355h0a.348.348,0,0,0,.355.355H47.9a.348.348,0,0,1,.355-.355h.711a1.24,1.24,0,0,0,.711-.355h.355c.355,0,.355,0,.711-.355h2.842v-.355c.355,0,.355,0,.711.355H55a.348.348,0,0,0-.355-.355h-.355c-.355,0-.355,0-.711-.355h0v-.355h.355l.355.355h1.776c.355,0,.711,0,.711.355a.348.348,0,0,1,.355.355h.355a.348.348,0,0,0-.355-.355h-.355v-.711l-.355-.355h0a.348.348,0,0,1,.355-.355.348.348,0,0,0,.355-.355l.355-.355a.348.348,0,0,1,.355-.355H58.2a.666.666,0,0,1,1.066,0l.355.355h3.2c.355,0,.355,0,.355-.355h0c0,.355,0,.355.355.711v.355h.355v-.355c0-.355,0-.355-.355-.355a.348.348,0,0,1,.355-.355h2.487c0-.355,0,0-.355-.355h-.355V8.7h.355a.348.348,0,0,0,.355-.355h0V7.987h.711a.348.348,0,0,1,.355-.355V7.276H68.5a.348.348,0,0,0,.355-.355h.355v.355a.348.348,0,0,0,.355-.355h2.487a1.305,1.305,0,0,0,1.066-.355.348.348,0,0,0,.355-.355h1.776v.355h.355s.355.355.355,0H78.1c0,.355,0,.355.355.355v.355H78.1l-.355.355a1.24,1.24,0,0,1,.355.711h2.842l.355.355h1.421V8.342H85.2V8.7s0-.355.355,0v.355h.355a.348.348,0,0,0,.355.355l-.355.355v.355h-.355c0,.355,0,.355.711.355a1.24,1.24,0,0,0,.355-.711l.355-.355H91.6c-.355,0-.711-.355-.711,0h-.355V9.053a.348.348,0,0,1,.355-.355h1.776V8.342h.711a.348.348,0,0,0,.355-.355H89.11V7.632h-.355s-.355,0,0-.355V6.921l.355-.355s0-.355.355,0V6.211H87.689V5.855h.355c0-.355.355-.355.711-.355h1.421v.355h.355v.355H88.755v.355h1.776s0-.355.355,0h1.066a.348.348,0,0,1,.355.355h2.132V6.566c.355,0,0,.355.355.355h.355c.355,0,0,.355.355,0V6.566h.711a.348.348,0,0,1,.355.355h.711a.355.355,0,1,1-.711,0h-.355V6.566H95.5v.711H93.373l.355-.355h-.711a.348.348,0,0,0-.355.355h0l.355-.355h0a.348.348,0,0,1,.355.355s.355.355.355,0h1.066c.355.355.355.355.711.355H96.57a.348.348,0,0,0,.355-.355H98.7a1.305,1.305,0,0,1,1.066.355h0a.348.348,0,0,0,.355.355c-.355,0-.355,0-.711.355h2.842c.355-.355.355-.355.711,0h.355c0,.355.355,0,.355,0h0a.348.348,0,0,0-.355-.355h0V7.632h3.553v.355c0,.355-.355.355-.355.711v.711a.348.348,0,0,1,.355.355C105.807,14.026,105.452,14.381,105.452,14.737Z" transform="translate(-20.9 -5.5)" fill="#ced6e0"/>
    </g>
  </g>
  <g id="Grupo_104479" data-name="Grupo 104479" transform="translate(26.644 16.697)">
    <g id="Grupo_104454" data-name="Grupo 104454" transform="translate(2.487 1.421)">
      <g id="Grupo_104442" data-name="Grupo 104442" transform="translate(0 56.486)">
        <g id="Grupo_104441" data-name="Grupo 104441">
          <path id="Caminho_187478" data-name="Caminho 187478" d="M12.108,49.421,8.2,21l17.408,7.105ZM9.266,22.776l3.553,23.447L23.831,28.46Z" transform="translate(-8.2 -21)" fill="#adb3ba"/>
        </g>
      </g>
      <g id="Grupo_104443" data-name="Grupo 104443" transform="translate(15.631 44.052)">
        <path id="Caminho_187479" data-name="Caminho 187479" d="M44.929,40.947,12.6,37.75,28.587,17.5ZM14.376,37.039l28.066,2.487-14.21-20.25Z" transform="translate(-12.6 -17.5)" fill="#adb3ba"/>
      </g>
      <g id="Grupo_104444" data-name="Grupo 104444" transform="translate(46.184 36.947)">
        <path id="Caminho_187480" data-name="Caminho 187480" d="M77.331,69.855,21.2,45.7,32.568,15.5ZM22.621,44.987,73.778,67.013,32.924,17.632Z" transform="translate(-21.2 -15.5)" fill="#adb3ba"/>
      </g>
      <g id="Grupo_104445" data-name="Grupo 104445" transform="translate(30.552)">
        <path id="Caminho_187481" data-name="Caminho 187481" d="M16.8,50.573l3.908-24.868L45.221,5.1,44.51,43.113Zm4.974-24.158L18.221,49.152l25.223-6.395.711-34.815Z" transform="translate(-16.8 -5.1)" fill="#adb3ba"/>
      </g>
      <g id="Grupo_104446" data-name="Grupo 104446" transform="translate(33.394 19.895)">
        <path id="Caminho_187482" data-name="Caminho 187482" d="M41.758,29.529,17.6,11.411,68.047,10.7ZM20.8,12.476l20.96,15.631L64.494,11.766Z" transform="translate(-17.6 -10.7)" fill="#adb3ba"/>
      </g>
      <g id="Grupo_104447" data-name="Grupo 104447" transform="translate(56.486 0.711)">
        <path id="Caminho_187483" data-name="Caminho 187483" d="M49.679,25.55,24.1,5.3,83.428,16.313ZM28.008,7.076,50.034,24.484,78.81,16.313Z" transform="translate(-24.1 -5.3)" fill="#adb3ba"/>
      </g>
      <g id="Grupo_104448" data-name="Grupo 104448" transform="translate(104.091 9.592)">
        <path id="Caminho_187484" data-name="Caminho 187484" d="M50.289,41.194,37.5,27.695,47.092,7.8Zm-11.724-13.5,10.3,10.658L46.381,11.708Z" transform="translate(-37.5 -7.8)" fill="#adb3ba"/>
      </g>
      <g id="Grupo_104449" data-name="Grupo 104449" transform="translate(80.999 19.539)">
        <path id="Caminho_187485" data-name="Caminho 187485" d="M45.21,45.06,31,10.6l24.158,9.947ZM33.132,12.376,45.21,41.863l8.526-21.316Z" transform="translate(-31 -10.6)" fill="#adb3ba"/>
      </g>
      <g id="Grupo_104450" data-name="Grupo 104450" transform="translate(94.144 39.434)">
        <path id="Caminho_187486" data-name="Caminho 187486" d="M52.108,38.581,34.7,28.989,57.437,16.2ZM36.832,29.345,51.4,37.16,55.66,18.687Z" transform="translate(-34.7 -16.2)" fill="#adb3ba"/>
      </g>
      <g id="Grupo_104451" data-name="Grupo 104451" transform="translate(0.711 10.658)">
        <path id="Caminho_187487" data-name="Caminho 187487" d="M40.018,43.271,8.4,29.06,27.229,8.1ZM9.821,28.705,37.887,41.494,26.518,10.232Z" transform="translate(-8.4 -8.1)" fill="#adb3ba"/>
      </g>
      <g id="Grupo_104453" data-name="Grupo 104453" transform="translate(17.763 1.066)">
        <g id="Grupo_104452" data-name="Grupo 104452">
          <path id="Caminho_187488" data-name="Caminho 187488" d="M30.252,26.005,13.2,15.7,53.7,5.4l.355,1.066L16.042,16.058l14.566,8.881Z" transform="translate(-13.2 -5.4)" fill="#adb3ba"/>
        </g>
      </g>
    </g>
    <g id="Grupo_104478" data-name="Grupo 104478">
      <g id="Grupo_104456" data-name="Grupo 104456" transform="translate(81.71 19.184)">
        <g id="Grupo_104455" data-name="Grupo 104455">
          <circle id="Elipse_16" data-name="Elipse 16" cx="2.842" cy="2.842" r="2.842" fill="#4abaa5"/>
        </g>
      </g>
      <g id="Grupo_104458" data-name="Grupo 104458" transform="translate(112.973 10.303)">
        <g id="Grupo_104457" data-name="Grupo 104457">
          <circle id="Elipse_17" data-name="Elipse 17" cx="2.842" cy="2.842" r="2.842" fill="#4abaa5"/>
        </g>
      </g>
      <g id="Grupo_104460" data-name="Grupo 104460" transform="translate(115.815 40.144)">
        <g id="Grupo_104459" data-name="Grupo 104459">
          <circle id="Elipse_18" data-name="Elipse 18" cx="2.842" cy="2.842" r="2.842" fill="#4abaa5"/>
        </g>
      </g>
      <g id="Grupo_104463" data-name="Grupo 104463" transform="translate(94.854 28.066)">
        <g id="Grupo_104461" data-name="Grupo 104461" transform="translate(9.237)">
          <circle id="Elipse_19" data-name="Elipse 19" cx="2.842" cy="2.842" r="2.842" fill="#4abaa5"/>
        </g>
        <g id="Grupo_104462" data-name="Grupo 104462" transform="translate(0 23.092)">
          <circle id="Elipse_20" data-name="Elipse 20" cx="2.842" cy="2.842" r="2.842" fill="#4abaa5"/>
        </g>
      </g>
      <g id="Grupo_104474" data-name="Grupo 104474">
        <g id="Grupo_104464" data-name="Grupo 104464" transform="translate(110.841 59.684)">
          <circle id="Elipse_21" data-name="Elipse 21" cx="2.842" cy="2.842" r="2.842" fill="#4abaa5"/>
        </g>
        <g id="Grupo_104465" data-name="Grupo 104465" transform="translate(57.197 36.592)">
          <circle id="Elipse_22" data-name="Elipse 22" cx="2.842" cy="2.842" r="2.842" fill="#4abaa5"/>
        </g>
        <g id="Grupo_104466" data-name="Grupo 104466" transform="translate(34.815 19.895)">
          <circle id="Elipse_23" data-name="Elipse 23" cx="2.842" cy="2.842" r="2.842" fill="#4abaa5"/>
        </g>
        <g id="Grupo_104467" data-name="Grupo 104467" transform="translate(30.908 43.342)">
          <circle id="Elipse_24" data-name="Elipse 24" cx="2.842" cy="2.842" r="2.842" fill="#4abaa5"/>
        </g>
        <g id="Grupo_104468" data-name="Grupo 104468" transform="translate(57.907)">
          <circle id="Elipse_25" data-name="Elipse 25" cx="2.842" cy="2.842" r="2.842" fill="#4abaa5"/>
        </g>
        <g id="Grupo_104469" data-name="Grupo 104469" transform="translate(18.829 10.303)">
          <circle id="Elipse_26" data-name="Elipse 26" cx="2.842" cy="2.842" r="2.842" fill="#4abaa5"/>
        </g>
        <g id="Grupo_104470" data-name="Grupo 104470" transform="translate(1.066 29.842)">
          <circle id="Elipse_27" data-name="Elipse 27" cx="2.842" cy="2.842" r="2.842" fill="#4abaa5"/>
        </g>
        <g id="Grupo_104471" data-name="Grupo 104471" transform="translate(0 56.131)">
          <circle id="Elipse_28" data-name="Elipse 28" cx="2.842" cy="2.842" r="2.842" fill="#4abaa5"/>
        </g>
        <g id="Grupo_104472" data-name="Grupo 104472" transform="translate(15.987 62.526)">
          <circle id="Elipse_29" data-name="Elipse 29" cx="2.842" cy="2.842" r="2.842" fill="#4abaa5"/>
        </g>
        <g id="Grupo_104473" data-name="Grupo 104473" transform="translate(3.908 82.065)">
          <circle id="Elipse_30" data-name="Elipse 30" cx="2.842" cy="2.842" r="2.842" fill="#4abaa5"/>
        </g>
      </g>
      <g id="Grupo_104477" data-name="Grupo 104477" transform="translate(46.539 65.368)">
        <g id="Grupo_104475" data-name="Grupo 104475" transform="translate(53.644 23.092)">
          <circle id="Elipse_31" data-name="Elipse 31" cx="2.842" cy="2.842" r="2.842" fill="#4abaa5"/>
        </g>
        <g id="Grupo_104476" data-name="Grupo 104476">
          <circle id="Elipse_32" data-name="Elipse 32" cx="2.842" cy="2.842" r="2.842" fill="#4abaa5"/>
        </g>
      </g>
    </g>
  </g>
  <g id="Grupo_104512" data-name="Grupo 104512" transform="translate(62.881 59.066)">
    <g id="Grupo_104482" data-name="Grupo 104482" transform="translate(77.415 47.125)">
      <g id="Grupo_104480" data-name="Grupo 104480">
        <path id="Caminho_187489" data-name="Caminho 187489" d="M69.365,39.87c-2.842,4.263-11.013,16.7-14.921,22.026a1.755,1.755,0,0,1-2.487.355L40.234,54.436a1.755,1.755,0,0,1-.355-2.487C44.141,46.62,51.957,34.9,54.8,30.634a1.715,1.715,0,0,1,2.487-.355L69.01,37.383A1.715,1.715,0,0,1,69.365,39.87Z" transform="translate(-39.491 -29.891)" fill="#415a6b"/>
      </g>
      <g id="Grupo_104481" data-name="Grupo 104481" transform="translate(3.585 1.808)">
        <path id="Caminho_187490" data-name="Caminho 187490" d="M65.368,37.505c-2.132,3.2-8.881,13.5-13.145,19.539h0L40.5,49.229h0C44.763,43.545,50.8,34.308,53.645,30.4Z" transform="translate(-40.5 -30.4)" fill="#8ad7f8"/>
      </g>
    </g>
    <g id="Grupo_104510" data-name="Grupo 104510">
      <g id="Grupo_104484" data-name="Grupo 104484" transform="translate(25.756 14.473)">
        <g id="Grupo_104483" data-name="Grupo 104483">
          <path id="Caminho_187491" data-name="Caminho 187491" d="M29.746,40.595V39.529s-3.553-3.553-4.263-6.395-.711-9.237,0-10.658l.711-1.776,20.25,4.974s-.711,11.013,0,13.5C47.509,41.305,29.746,40.595,29.746,40.595Z" transform="translate(-24.95 -20.7)" fill="#ffd15c"/>
        </g>
      </g>
      <g id="Grupo_104486" data-name="Grupo 104486" transform="translate(0 15.316)">
        <g id="Grupo_104485" data-name="Grupo 104485">
          <path id="Caminho_187492" data-name="Caminho 187492" d="M28,39.989c-.355,1.421.355,10.3.355,10.3l.355,18.118L22.318,62.37,21.253,41.054V40.7c0-.711-3.553-4.263-3.553-4.974a2.481,2.481,0,0,1,.711-1.421s-.711-1.776,0-2.132l.711-.355s-.355-2.132,1.421-2.132c0,0,1.066-.355,1.066-1.066A24.449,24.449,0,0,0,20.9,24c-.355-1.066-1.066-2.132-.355-2.842s1.421.355,2.487,2.132A20.585,20.585,0,0,1,24.45,27.91c.355.711,1.421,2.132,1.776,2.132a.348.348,0,0,0,.355-.355,14.811,14.811,0,0,1-.711-2.132s-1.066-3.2,1.421-3.553L28,25.778a7.227,7.227,0,0,1,.355,1.776,11.812,11.812,0,0,1,.711,4.974C29.424,34.3,28.358,38.568,28,39.989Z" transform="translate(-17.7 -20.937)" fill="#ffd15c"/>
        </g>
      </g>
      <g id="Grupo_104488" data-name="Grupo 104488" transform="translate(4.519 51.065)">
        <g id="Grupo_104487" data-name="Grupo 104487">
          <path id="Caminho_187493" data-name="Caminho 187493" d="M19.427,38.46s-.711-3.2-.355-3.908S23.69,31,23.69,31,22.979,38.105,19.427,38.46Z" transform="translate(-18.972 -31)" fill="#f3f3f3"/>
        </g>
      </g>
      <g id="Grupo_104490" data-name="Grupo 104490" transform="translate(4.974 41.472)">
        <g id="Grupo_104489" data-name="Grupo 104489">
          <path id="Caminho_187494" data-name="Caminho 187494" d="M27.981,28.3s-4.263,1.776-4.974,4.263-.711,4.263-1.066,5.329a14.81,14.81,0,0,0-.711,2.132,11.356,11.356,0,0,0-.355,2.487S19.1,43.931,19.1,44.642a21.791,21.791,0,0,0,1.066,5.684c.711,1.776.355,3.2,2.487,3.553,1.776.355,5.684.355,6.75-.355a24.094,24.094,0,0,0,2.132-3.2Z" transform="translate(-19.1 -28.3)" fill="#415a6b"/>
        </g>
      </g>
      <g id="Grupo_104492" data-name="Grupo 104492" transform="translate(11.078 38.275)">
        <g id="Grupo_104491" data-name="Grupo 104491">
          <path id="Caminho_187495" data-name="Caminho 187495" d="M26.437,55.465c1.421,2.132,6.039,14.566,7.105,17.763s-1.421,8.881-1.776,11.724S31.411,93.834,30.7,96.32c-.355,1.066-.711,2.842-1.066,4.263H74.042a93.576,93.576,0,0,0-3.2-13.145l4.618-51.157a18.35,18.35,0,0,0-6.039-3.2,16.941,16.941,0,0,1-6.75-3.553L60.187,27.4l-27,1.421s-9.237,0-11.013,2.842S20.753,40.9,21.108,44.808C21.464,49.071,25.016,53.334,26.437,55.465Z" transform="translate(-20.818 -27.4)" fill="#344a5e"/>
        </g>
      </g>
      <g id="Grupo_104494" data-name="Grupo 104494" transform="translate(68.565 65.66)">
        <g id="Grupo_104493" data-name="Grupo 104493">
          <path id="Caminho_187496" data-name="Caminho 187496" d="M68.973,40.052c-.355,1.776-1.066,3.553-1.066,4.974s.711,1.776.355,2.487-7.105,5.329-8.171,6.75c-1.421,1.421-2.842,2.132-5.329,4.618S37,73.8,37,73.8V62.433s6.039-3.2,7.816-4.263,9.592-6.039,10.3-9.592,2.487-7.105,3.908-7.816a6.971,6.971,0,0,0,3.2-3.2c1.066-1.421,2.842-3.2,3.908-2.132,1.066.711.711,2.132-.355,3.553s-2.842,3.553-3.2,4.263,1.066.711,1.776,0c1.066-1.421,2.132-3.2,3.553-4.974C68.618,37.92,69.329,38.631,68.973,40.052Z" transform="translate(-37 -35.108)" fill="#ffd15c"/>
        </g>
      </g>
      <g id="Grupo_104496" data-name="Grupo 104496" transform="translate(64.302 92.275)">
        <g id="Grupo_104495" data-name="Grupo 104495">
          <path id="Caminho_187497" data-name="Caminho 187497" d="M37.932,43.666,40.418,42.6s3.908,4.263,2.487,7.816-2.842,4.618-4.974,5.329l-2.132.711Z" transform="translate(-35.8 -42.6)" fill="#fff"/>
        </g>
      </g>
      <g id="Grupo_104498" data-name="Grupo 104498" transform="translate(30.14 29.749)">
        <g id="Grupo_104497" data-name="Grupo 104497">
          <path id="Caminho_187498" data-name="Caminho 187498" d="M26.241,29.618a4.393,4.393,0,0,1,.711-3.2C28.372,25,30.5,25,32.636,25S44,25,45.07,28.553s-.355,4.974-.355,4.974L26.241,31.395Z" transform="translate(-26.184 -25)" fill="#f3f3f3"/>
        </g>
      </g>
      <g id="Grupo_104500" data-name="Grupo 104500" transform="translate(23.447 34.273)">
        <g id="Grupo_104499" data-name="Grupo 104499">
          <path id="Caminho_187499" data-name="Caminho 187499" d="M24.3,31.7s3.2-4.974,5.329-5.329c1.776-.355,16.342.355,18.474,1.066s4.974,4.618,5.684,4.974H42.063C34.247,32.407,25.721,31.342,24.3,31.7Z" transform="translate(-24.3 -26.273)" fill="#415a6b"/>
        </g>
      </g>
      <g id="Grupo_104507" data-name="Grupo 104507" transform="translate(24.499)">
        <g id="Grupo_104504" data-name="Grupo 104504">
          <g id="Grupo_104502" data-name="Grupo 104502">
            <g id="Grupo_104501" data-name="Grupo 104501">
              <path id="Caminho_187500" data-name="Caminho 187500" d="M24.61,29.678s-1.066,10.3,15.276,12.789c0,0,5.684,2.132,7.816-1.776s5.329-12.789-3.2-20.96S24.965,21.152,24.61,29.678Z" transform="translate(-24.596 -16.626)" fill="#f3705a"/>
            </g>
          </g>
          <g id="Grupo_104503" data-name="Grupo 104503" transform="translate(3.922 22.999)">
            <path id="Caminho_187501" data-name="Caminho 187501" d="M37.068,24.521a5.016,5.016,0,0,1,.355,3.2l-1.066,3.2c-.355,1.066-1.066,2.132-1.421,3.2-1.776,3.2-4.263,5.684-6.039,8.526a19.945,19.945,0,0,0-3.2,11.013c0,3.2,1.066,6.395,1.066,9.592v3.2a6.586,6.586,0,0,0,.711,2.487,14.289,14.289,0,0,0,4.263,7.46,15.04,15.04,0,0,0,2.487,1.776,3.6,3.6,0,0,1,1.421,2.487c.711-3.553,2.842-6.75,3.908-9.947.355-1.421.711-2.487,1.066-3.908.355-1.066,1.066-1.776,1.421-2.842a39.348,39.348,0,0,0,2.842-12.789,12.086,12.086,0,0,1,.355-3.553,5.049,5.049,0,0,0,.711-2.132,4.506,4.506,0,0,0,.355-2.132,21.847,21.847,0,0,0-.355-4.974c-1.066-4.263-4.263-7.46-5.329-11.724A10.51,10.51,0,0,1,39.91,23.1" transform="translate(-25.7 -23.1)" fill="#f3705a"/>
          </g>
        </g>
        <g id="Grupo_104506" data-name="Grupo 104506" transform="translate(14.796 26.196)">
          <g id="Grupo_104505" data-name="Grupo 104505">
            <path id="Caminho_187502" data-name="Caminho 187502" d="M32.808,26.132c-1.066-.711-2.132-.355-3.2.355A2.355,2.355,0,0,1,28.9,24a18.331,18.331,0,0,0,3.908.711C33.519,24.711,33.519,25.421,32.808,26.132Z" transform="translate(-28.761 -24)" fill="#415a6b"/>
          </g>
        </g>
      </g>
      <g id="Grupo_104509" data-name="Grupo 104509" transform="translate(51.696 46.801)">
        <g id="Grupo_104508" data-name="Grupo 104508">
          <path id="Caminho_187503" data-name="Caminho 187503" d="M37.752,41.168c2.842-7.816,4.263-11.368,7.46-11.368s5.329,8.881,4.263,14.566c-.711,5.684-2.487,14.921-2.487,19.895,0,4.618-1.066,12.789-1.066,12.789l1.776-.711s4.974,5.684,0,12.789c0,0-3.908,2.842-6.75,3.553s-3.908-.711-4.974-2.842-3.2-7.46-3.2-9.592C32.068,77.4,31,61.418,37.752,41.168Z" transform="translate(-32.252 -29.8)" fill="#415a6b"/>
        </g>
      </g>
    </g>
    <g id="Grupo_104511" data-name="Grupo 104511" transform="translate(84.197 72.735)">
      <circle id="Elipse_33" data-name="Elipse 33" cx="1.066" cy="1.066" r="1.066" fill="#344a5e"/>
    </g>
  </g>
</svg>
