<svg xmlns="http://www.w3.org/2000/svg" width="143.991" height="82.564" viewBox="0 0 143.991 82.564">
  <path id="Interseção_6" data-name="Interseção 6" d="M-393.728-147.238a28.685,28.685,0,0,0,2.386-10.913v-2.126a68.167,68.167,0,0,1,9.274-33.689,69.551,69.551,0,0,1,25.442-25.43,68.64,68.64,0,0,1,35.29-9.4,70.121,70.121,0,0,1,35.29,9.24A69.049,69.049,0,0,1-251-159.05h-40.05v-.163a28.242,28.242,0,0,0-8.863-20.851,29.437,29.437,0,0,0-21.42-8.749,28.943,28.943,0,0,0-21.174,8.668,28.325,28.325,0,0,0-8.781,19.87v2.126a68.694,68.694,0,0,1-.97,10.913Z" transform="translate(394.491 229.301)" fill="#03b5b0" stroke="rgba(0,0,0,0)" stroke-miterlimit="10" stroke-width="1"/>
</svg>
