<svg xmlns="http://www.w3.org/2000/svg" width="336.99" height="193.564" viewBox="0 0 336.99 193.564">
  <path id="Interseção_4" data-name="Interseção 4" d="M-393.728-36.238A67.933,67.933,0,0,0-388.115-62v-5.019A161.387,161.387,0,0,1-366.3-146.557a163.9,163.9,0,0,1,59.845-60.038,161,161,0,0,1,83.011-22.2,164.469,164.469,0,0,1,83.01,21.814A163.125,163.125,0,0,1-58-64.125h-94.207v-.386a66.8,66.8,0,0,0-20.849-49.227,69.112,69.112,0,0,0-50.386-20.656,67.954,67.954,0,0,0-49.806,20.464,66.986,66.986,0,0,0-20.656,46.91V-62a162.761,162.761,0,0,1-2.283,25.764Z" transform="translate(394.49 229.302)" fill="#03b5b0" stroke="rgba(0,0,0,0)" stroke-miterlimit="10" stroke-width="1"/>
</svg>
