<svg xmlns="http://www.w3.org/2000/svg" width="600.11" height="648.247" viewBox="0 0 600.11 648.247">
  <g id="Grupo_126561" data-name="Grupo 126561" transform="translate(-395.445 -3004.436)">
    <g id="Grupo_126517" data-name="Grupo 126517" transform="translate(0 -143.564)">
      <g id="Grupo_126516" data-name="Grupo 126516" transform="translate(0 -12)">
        <path id="Caminho_187588" data-name="Caminho 187588" d="M.292,313.233a300,300,0,0,0,298.92,286.91l-38.771-35.527,36.2-39.5c-118.142-1.694-216.2-95.623-221.42-215.15A223.635,223.635,0,0,1,93.532,210.8l13.23,6.934L84.409,146.148,12.817,168.5l14.012,7.343A298.618,298.618,0,0,0,.292,313.233" transform="translate(395.445 3193.564)" fill="#ff3737"/>
        <path id="Caminho_187589" data-name="Caminho 187589" d="M461.2,553.164a299.992,299.992,0,0,0,99.01-402.327l-11.381,51.339-52.312-11.6C554.118,293.74,521.8,425.626,420.9,489.91a223.649,223.649,0,0,1-95.028,33.72l-.609-14.925-50.824,55.154,55.153,50.824-.644-15.807A298.617,298.617,0,0,0,461.2,553.164" transform="translate(395.445 3193.564)" fill="#707070"/>
        <path id="Caminho_187590" data-name="Caminho 187590" d="M438.531,34.044A299.994,299.994,0,0,0,40.6,149.461l50.152-15.813,16.112,51.1C167.4,83.283,297.776,45.325,403.9,100.57a223.644,223.644,0,0,1,76.717,65.436L468,174l73.177,16.437,16.437-73.176-13.366,8.462A298.6,298.6,0,0,0,438.531,34.044" transform="translate(395.445 3193.564)" fill="#fc3"/>
      </g>
    </g>
    <g id="Grupo_126526" data-name="Grupo 126526" transform="translate(0 -345.564)">
      <g id="Elipse_5745" data-name="Elipse 5745" transform="translate(403 3743)" fill="#fff" stroke="#ff3737" stroke-width="6">
        <circle cx="69" cy="69" r="69" stroke="none"/>
        <circle cx="69" cy="69" r="66" fill="none"/>
      </g>
      <g id="_3937890_business_concept_problem_solution_strategy_icon" data-name="3937890_business_concept_problem_solution_strategy_icon" transform="translate(437.277 3777.278)">
        <path id="Caminho_187591" data-name="Caminho 187591" d="M66.97,73.478c-1.967,0-3.3-1.127-3.3-3.673s1.335-3.673,3.3-3.673c1.779,0,3.536,2.773,3.855.793V59.156H63.9c-3.389,0,0-1.94,0-3.907s-1.127-3.3-3.673-3.3-3.673,1.335-3.673,3.3,3.389,3.907,0,3.907H49.577V77.742a2.713,2.713,0,0,0,2.713,2.713H70.825v-7.77C70.506,70.705,68.749,73.478,66.97,73.478Z" transform="translate(-36.128 -37.856)" fill="#b3e2fc"/>
        <path id="Caminho_187592" data-name="Caminho 187592" d="M123,82.424c0,1.967-1.127,3.3-3.673,3.3s-3.673-1.335-3.673-3.3,3.389-3.907,0-3.907h-6.977v7.77c-.319,1.98-2.076-.793-3.855-.793-1.967,0-3.3,1.127-3.3,3.673s1.335,3.673,3.3,3.673c1.779,0,3.536-2.773,3.855-.793v7.77h18.587a2.713,2.713,0,0,0,2.713-2.713V78.517H123C119.613,78.517,123,80.457,123,82.424Z" transform="translate(-73.983 -57.218)" fill="#271b5f"/>
        <path id="Caminho_187593" data-name="Caminho 187593" d="M146.63,0H128.1V7.77c.319,1.98,2.076-.793,3.855-.793,1.967,0,3.3,1.127,3.3,3.673s-1.334,3.673-3.3,3.673c-1.779,0-3.536-2.773-3.855-.793V21.3h6.925c3.389,0,0,1.94,0,3.907s1.127,3.3,3.673,3.3,3.673-1.335,3.673-3.3-3.389-3.907,0-3.907h6.977V2.713A2.713,2.713,0,0,0,146.63,0Z" transform="translate(-93.347)" fill="#ff3f25"/>
        <path id="Caminho_187594" data-name="Caminho 187594" d="M74.731,6.977c-1.779,0-3.536,2.773-3.855.793V0H52.29a2.713,2.713,0,0,0-2.713,2.713V21.3h6.977c3.389,0,0-1.94,0-3.907s1.127-3.3,3.673-3.3,3.673,1.335,3.673,3.3S60.51,21.3,63.9,21.3h6.977v-7.77c.319-1.98,2.076.793,3.855.793,1.967,0,3.3-1.127,3.3-3.673S76.7,6.977,74.731,6.977Z" transform="translate(-36.128)" fill="#2d9bee"/>
        <path id="Caminho_187595" data-name="Caminho 187595" d="M228.219,177.861c.053,1.133.118,7.676.118,7.676a9.352,9.352,0,0,1,1.762,3.537,24.5,24.5,0,0,0,1,3.537l-1.441,1.12s-3.73-4.693-4.342-6.72-.465-6.9-.465-6.9Z" transform="translate(-163.846 -129.613)" fill="#271b5f"/>
        <path id="Caminho_187596" data-name="Caminho 187596" d="M215.1,99.826c-.908,1.291-.908,3.483-.944,5.316s.487,1.689.944,1.617,2.829-.521,2.829-.521l-.827-5.7Z" transform="translate(-156.06 -72.746)" fill="#ff3f25"/>
        <path id="Caminho_187597" data-name="Caminho 187597" d="M219.452,98.366c-1.5.1-1.744,1.433-1.806,3.177s.369,3.187.9,3.162,1.028-.172,1.077,0,.173,2.247.173,2.247l2.222-.37a17.946,17.946,0,0,1-.33-2.909C221.727,102.666,224.077,98.055,219.452,98.366Z" transform="translate(-158.601 -71.671)" fill="#ffa36c"/>
        <path id="Caminho_187598" data-name="Caminho 187598" d="M218.649,95.352a2.63,2.63,0,0,0-2.552,2.983c.144,1.366,2.048,1.4,2.552,2.408s.5,2.552,1.042,2.552,3.342-.216,3.342-.791a29.413,29.413,0,0,0-1.222-5.534A3.026,3.026,0,0,0,218.649,95.352Z" transform="translate(-157.464 -69.461)" fill="#ff3f25"/>
        <path id="Caminho_187599" data-name="Caminho 187599" d="M210.662,141.015l-2.345-.4-.252,1.258,2.875,1.294Z" transform="translate(-151.623 -102.474)" fill="#ffbc00"/>
        <path id="Caminho_187600" data-name="Caminho 187600" d="M220.34,126.075a3.433,3.433,0,0,0-3.708,1.594c-1.006,1.581-1.4,3.306-.989,4.1a7.143,7.143,0,0,1,.917,4.348h4.42s.144-2.506.467-5.026S220.922,126.313,220.34,126.075Z" transform="translate(-157.029 -91.787)" fill="#ffbc00"/>
        <path id="Caminho_187601" data-name="Caminho 187601" d="M222.708,129.261c-1.312,0-1.25,1.577-.624,3.4.467,1.366.7,1.653.225,2.048s-2.453,1.716-2.453,1.716l.34,1.123s3.015.193,4.727-1.581C225.893,134.966,225.31,129.27,222.708,129.261Z" transform="translate(-160.216 -94.197)" fill="#ffbc00"/>
        <path id="Caminho_187602" data-name="Caminho 187602" d="M203.991,155.688l-1.41.416s-.9-.489-1.317-.208-.561.855-1.439.921-1.427-.348-1.731.31c-.146.317,1.487.624,2,.654a20.5,20.5,0,0,0,2.711-.751c.313-.049,1.527-.219,1.527-.219Z" transform="translate(-144.351 -113.455)" fill="#ffa36c"/>
        <path id="Caminho_187603" data-name="Caminho 187603" d="M193.175,135.545l-1.925-.447s-.482-.927-1.033-1.1-.472.393-.984.174-1.536-.818-1.877-.336.683.946,1.414,1.409a8.773,8.773,0,0,0,2.213.777l1.942.778Z" transform="translate(-136.482 -97.399)" fill="#ffa36c"/>
        <path id="Caminho_187604" data-name="Caminho 187604" d="M215.484,163.405a5.607,5.607,0,0,1-.293,5.585,41.161,41.161,0,0,0-3.065,6.19,11.5,11.5,0,0,1-.614,3.714c-.684,2.063-1.527,5.247-1.527,5.247H207.94a79.433,79.433,0,0,1,.449-8.725,110.523,110.523,0,0,1,2.675-12.01h4.42Z" transform="translate(-151.532 -119.078)" fill="#271b5f"/>
        <path id="Caminho_187605" data-name="Caminho 187605" d="M195.23,239.844s-.082,1.235-.164,1.7-2.7,1.418-3.791,1.664-.982,1.009,0,1.009h5.292c.518,0,.464-.927.382-1.936a8.55,8.55,0,0,1,.326-2.435Z" transform="translate(-138.822 -174.782)" fill="#ffa36c"/>
        <path id="Caminho_187606" data-name="Caminho 187606" d="M239.5,233.358a17.545,17.545,0,0,1,1.012,1.551,7.743,7.743,0,0,1-1.282,2.809c-.355.355-1.009.491-.873.764s.6.191,1.418.191,1.773-1.48,2.482-2.186,1.227-1.005.573-1.769-1.889-2.48-1.889-2.48Z" transform="translate(-173.684 -169.239)" fill="#ffa36c"/>
        <path id="Caminho_187607" data-name="Caminho 187607" d="M191.276,251.469h5.292c.472,0,.468-.771.4-1.671a20.961,20.961,0,0,1-3.851.908,2.053,2.053,0,0,1-1.252-.4c-.222.066-.426.121-.592.158C190.185,250.705,190.294,251.469,191.276,251.469Z" transform="translate(-138.822 -182.036)" fill="#763900"/>
        <path id="Caminho_187608" data-name="Caminho 187608" d="M242.514,239.971a18.323,18.323,0,0,1-2.129,2.9,1.159,1.159,0,0,1-1.014.294,1.388,1.388,0,0,1-.143.183c-.355.355-1.009.491-.873.764s.6.191,1.418.191,1.773-1.48,2.482-2.186,1.227-1.005.573-1.769C242.734,240.243,242.627,240.112,242.514,239.971Z" transform="translate(-173.684 -174.875)" fill="#763900"/>
        <path id="Caminho_187609" data-name="Caminho 187609" d="M1.338,179.461a7.533,7.533,0,0,0-.276,2.622c.138,1.276.844,1.345,1.319,1.345a1.394,1.394,0,0,0,1.3-1.242,16.3,16.3,0,0,0-.514-2.726Z" transform="translate(-0.753 -130.779)" fill="#ffa36c"/>
        <path id="Caminho_187610" data-name="Caminho 187610" d="M2.416,118.164s-1.634.676-2.175,4.552,0,12.076,0,12.076H2.416l.84-6.038Z" transform="translate(0 -86.11)" fill="#271b5f"/>
        <path id="Caminho_187611" data-name="Caminho 187611" d="M15.982,89.631c.53.364.951,2.008.951,3.207s.035,2.748-.951,2.713-.987.035-.987.529a11.048,11.048,0,0,1-.317,1.727L12,97.207a21.942,21.942,0,0,0,.669-2.854c.035-.7-1.163-2.748-.352-3.841A2.76,2.76,0,0,1,15.982,89.631Z" transform="translate(-8.745 -65.032)" fill="#ffa36c"/>
        <path id="Caminho_187612" data-name="Caminho 187612" d="M11.478,84.125a5.585,5.585,0,0,0,1.515-.916.664.664,0,0,1,1.163.458,4.158,4.158,0,0,1-.211,1.019s1.092.215.775.743-.634,1.128-2.15,1.092a1.369,1.369,0,0,0-1.586,1.2s-.7,2.4-1.426,2.4S7.743,88.107,8.236,86.7c0,0-.846-1.515.141-2.22S10.7,84.266,11.478,84.125Z" transform="translate(-5.756 -60.478)" fill="#271b5f"/>
        <path id="Caminho_187613" data-name="Caminho 187613" d="M15.073,170.159s-.572,7.92-1.19,11.111-3.415,9.505-3.415,9.505H7.245s1.184-5.646,1.6-8.733a29.3,29.3,0,0,0,.1-6.072s-1.453-1.6-1.215-5.225Z" transform="translate(-5.28 -124)" fill="#ff3f25"/>
        <path id="Caminho_187614" data-name="Caminho 187614" d="M22.6,170.159s1.229,9.155.869,12.037-.869,8.579-.869,8.579H19.766v-9.814l-.938-5.531a5.963,5.963,0,0,1-1.181-2.347A4.368,4.368,0,0,1,18,170.527Z" transform="translate(-12.809 -124)" fill="#ff3f25"/>
        <path id="Caminho_187615" data-name="Caminho 187615" d="M6.067,115.554c-1.071.026-2.482,2.488-2.527,5.5s1.487,8.46,1.487,9.9,7.205,1.54,7.7.369-1-11.544-1.961-13.076A6.656,6.656,0,0,0,6.067,115.554Z" transform="translate(-2.579 -84.208)" fill="#2d9bee"/>
        <path id="Caminho_187616" data-name="Caminho 187616" d="M19.966,123.456c-1.219.5-1.016,3.035,0,4.829s2.158,4.814,3.885,4.634,5.2-4.912,5.2-4.912l-1.487-1.487a28.974,28.974,0,0,1-2.929,1.983C24.047,128.728,22.735,122.33,19.966,123.456Z" transform="translate(-13.938 -89.87)" fill="#271b5f"/>
        <path id="Caminho_187617" data-name="Caminho 187617" d="M9.23,246.158a3.613,3.613,0,0,0,2.087,1.358c1.594.493,2.163.455,2.011.949s-1.366.342-2.2.342-3.948.022-4.289.022,0-2.67,0-2.67Z" transform="translate(-4.872 -179.383)" fill="#271b5f"/>
        <path id="Caminho_187618" data-name="Caminho 187618" d="M27.887,246.158a4.99,4.99,0,0,0,3.15,1.671c1.9.142,1.632,1,.8,1l-5.651-.008a.874.874,0,0,1-.871-.919l.09-1.743h2.485Z" transform="translate(-18.444 -179.383)" fill="#271b5f"/>
        <path id="Caminho_187619" data-name="Caminho 187619" d="M50.221,127.241s.292-2.024.774-2.356.422.264.362.886.965-1.543,1.87-1.456a1.681,1.681,0,0,1,.9,2.711,3.479,3.479,0,0,1-2.712,1.415Z" transform="translate(-36.597 -90.591)" fill="#ffa36c"/>
        <path id="Caminho_187620" data-name="Caminho 187620" d="M15.446,100.949s-.249.486-.951-.282-.6-1.9.141-1.938.811.458.811.458v1.762Z" transform="translate(-10.217 -71.946)" fill="#ffa36c"/>
        <path id="Caminho_187621" data-name="Caminho 187621" d="M18.1,94.188s.284,2.691-.387,2.643-1.066-1.938-1.066-1.938Z" transform="translate(-12.131 -68.638)" fill="#271b5f"/>
        <circle id="Elipse_5748" data-name="Elipse 5748" cx="1.22" cy="1.22" r="1.22" transform="translate(43.109 48.591)" fill="#0082fb"/>
        <circle id="Elipse_5749" data-name="Elipse 5749" cx="1.22" cy="1.22" r="1.22" transform="translate(61.958 9.43)" fill="#b3e2fc"/>
        <path id="Caminho_187622" data-name="Caminho 187622" d="M77.882,194.988h-.8v-.8a.61.61,0,1,0-1.22,0v.8h-.8a.61.61,0,1,0,0,1.22h.8v.8a.61.61,0,1,0,1.22,0v-.8h.8a.61.61,0,1,0,0-1.22Z" transform="translate(-54.256 -141.067)" fill="#ffbc00"/>
        <path id="Caminho_187623" data-name="Caminho 187623" d="M15.42,16.357h-.8v-.8a.61.61,0,1,0-1.22,0v.8h-.8a.61.61,0,1,0,0,1.22h.8v.8a.61.61,0,1,0,1.22,0v-.8h.8a.61.61,0,1,0,0-1.22Z" transform="translate(-8.738 -10.892)" fill="#ff3f25"/>
      </g>
    </g>
    <g id="Grupo_126522" data-name="Grupo 126522" transform="translate(0 -345.564)">
      <g id="Elipse_5746" data-name="Elipse 5746" transform="translate(626 3350)" fill="#fff" stroke="#fc3" stroke-width="6">
        <circle cx="69" cy="69" r="69" stroke="none"/>
        <circle cx="69" cy="69" r="66" fill="none"/>
      </g>
      <g id="_3937884_business_creative_creativity_idea_plan_icon" data-name="3937884_business_creative_creativity_idea_plan_icon" transform="translate(658 3373)">
        <path id="XMLID_189_" d="M103.826,20.909a20.909,20.909,0,1,0-41.817,0,20.589,20.589,0,0,0,2.868,10.368A24.111,24.111,0,0,0,68.2,35.611c1.2,1.274,2.81,2.1,3.952,3.418.986,1.137,1.1,5.4,1.581,6.76a4.153,4.153,0,0,0,3.92,2.78H88.2a4.153,4.153,0,0,0,3.913-2.761c.406-1.139.684-5.483,1.315-6.5.787-1.273,2.545-1.926,3.626-2.958a22.051,22.051,0,0,0,3.622-4.392A21.233,21.233,0,0,0,103.826,20.909Z" transform="translate(-44.085)" fill="#ffbc00"/>
        <path id="XMLID_188_" d="M148.047,17.629a1.638,1.638,0,0,1-.648-.134,14.266,14.266,0,0,0-1.471-.539,1.641,1.641,0,0,1,.957-3.14,17.648,17.648,0,0,1,1.811.663,1.641,1.641,0,0,1-.649,3.149Z" transform="translate(-102.919 -9.772)" fill="#fff"/>
        <path id="XMLID_186_" d="M173.3,41.392a1.641,1.641,0,0,1-1.641-1.641,14.213,14.213,0,0,0-4.491-10.415,1.641,1.641,0,1,1,2.256-2.384,17.7,17.7,0,0,1,5.517,12.8A1.641,1.641,0,0,1,173.3,41.392Z" transform="translate(-118.479 -18.842)" fill="#fff"/>
        <path id="Caminho_187627" data-name="Caminho 187627" d="M120.266,80.125a.887.887,0,0,0-1.024.722l-.085.494-1.714,1.137a2.022,2.022,0,0,1-2.291-.047l-1.3-.937a3.784,3.784,0,0,0-4.4-.024l-1.389.982a2.025,2.025,0,0,1-2.279.031l-1.556-1.039-.109-.652a.886.886,0,0,0-1.748.293l3.75,25.258a.886.886,0,0,0,1.748-.293l-3.238-22.207.17.113a3.807,3.807,0,0,0,4.286-.057l1.389-.982a2.012,2.012,0,0,1,2.341.013l1.3.937a3.8,3.8,0,0,0,4.31.087l.319-.212-3.356,22.3a.886.886,0,0,0,.722,1.024.91.91,0,0,0,.152.013.886.886,0,0,0,.872-.735l3.856-25.2A.886.886,0,0,0,120.266,80.125Z" transform="translate(-72.772 -56.913)" fill="#e19e00"/>
        <path id="Caminho_187628" data-name="Caminho 187628" d="M215.3,160.888a38.365,38.365,0,0,0-.756,9.744c.325,5.014,1.857,15.289,1.857,15.289h2.461s.165-12.395.3-15.134l.112-2.242v-6.781Z" transform="translate(-152.483 -114.381)" fill="#ff3f25"/>
        <path id="Caminho_187629" data-name="Caminho 187629" d="M234.516,160.888a77.466,77.466,0,0,1,.551,7.979c.047,4.086-1.114,17.053-1.114,17.053h-2.086L230.682,169.4l.112-7.64Z" transform="translate(-164 -114.381)" fill="#ff3f25"/>
        <path id="Caminho_187630" data-name="Caminho 187630" d="M219.095,87.45l-.42-2.037a.511.511,0,0,1-.647-.615c.065-.776,2.393-1.681,2.393-1.681s-1.229-.453-.388-1,2.425.42,2.425.42,1.132-.984,1.649-.589,0,.913,0,.913,1.746.67,2.134,1.337-.42.862-.42.862l-.841,3.232Z" transform="translate(-155.001 -58.191)" fill="#271b5f"/>
        <path id="Caminho_187631" data-name="Caminho 187631" d="M220.822,93.046s-.46-.744-1.01-.437-.681,2.383.978,2.257c0,0,.307,1.9,1.98,2.056s2.2-1.071,2.676-1.913a1.19,1.19,0,0,0,1.178-.949c.232-.984-.3-1.427-.942-1.062,0,0,.373-2.933-2.265-3.037S220.822,93.046,220.822,93.046Z" transform="translate(-156.008 -63.955)" fill="#ffa36c"/>
        <path id="Caminho_187632" data-name="Caminho 187632" d="M212.213,247.486s-2.717,1.414-3.287,1.635-.538.506,0,.728a41.544,41.544,0,0,0,5.253,0c.759,0,.551-1.447.3-2.363Z" transform="translate(-148.238 -175.946)" fill="#271b5f"/>
        <path id="Caminho_187633" data-name="Caminho 187633" d="M236.751,247.486s3.063,1.414,3.632,1.635.538.506,0,.728a41.547,41.547,0,0,1-5.253,0c-.759,0-.517-1.447-.269-2.363Z" transform="translate(-166.799 -175.946)" fill="#271b5f"/>
        <path id="Caminho_187634" data-name="Caminho 187634" d="M225.568,110.728l-.35,2.744,3.395.184-.275-2.927Z" transform="translate(-160.116 -78.72)" fill="#ffa36c"/>
        <path id="Caminho_187635" data-name="Caminho 187635" d="M215.161,118.43a21.863,21.863,0,0,0-2.944,1.545s.895,9.365,1.472,10.728,7.524.967,7.7,0,1.726-10.478,1.726-10.478l-2.862-1.548-2.58.362Z" transform="translate(-150.873 -84.196)" fill="#0082fb"/>
        <path id="Caminho_187636" data-name="Caminho 187636" d="M234.78,150.019s1.6-.182,2.069.225a1.512,1.512,0,0,0,1.872.368c.7-.469,1.005-.16.905.2a3.144,3.144,0,0,1-2.065,1.543,4.834,4.834,0,0,1-2.429-.807Z" transform="translate(-166.914 -106.625)" fill="#ffa36c"/>
        <path id="Caminho_187637" data-name="Caminho 187637" d="M231.09,117.666l1.579-1.167,1,.805-1.144,1.916Z" transform="translate(-164.29 -82.823)" fill="#271b5f"/>
        <path id="Caminho_187638" data-name="Caminho 187638" d="M223.378,115.791l1.534,1.372-1.345,1.369-1.167-1.978Z" transform="translate(-158.112 -82.32)" fill="#271b5f"/>
        <path id="Caminho_187639" data-name="Caminho 187639" d="M244.788,124.439c1.642.73,1.6,7.025,0,8.392s-2.2-.793-2.069-2.348S242.992,123.641,244.788,124.439Z" transform="translate(-172.546 -88.41)" fill="#271b5f"/>
        <path id="Caminho_187640" data-name="Caminho 187640" d="M209.438,123.664c-1.4.3-1.228,4.151-.9,6.089s.734,4.433,3.111,4.491a12.56,12.56,0,0,0,4.668-.939l-.352-2.025-4.021.235S212.855,122.921,209.438,123.664Z" transform="translate(-148.094 -87.885)" fill="#271b5f"/>
        <path id="Caminho_187641" data-name="Caminho 187641" d="M222.4,90.572s.194,2.134.517,2.134.711-1.779.905-2.522a2.734,2.734,0,0,0,1.811.517c.97-.129.873-.679.873-.679s.42,1.956.97,2.045.809-1.527.809-1.527-.517-2.522-2.522-2.522S222.4,90.572,222.4,90.572Z" transform="translate(-158.112 -62.575)" fill="#271b5f"/>
        <path id="Caminho_187642" data-name="Caminho 187642" d="M229.535,116.885s.4-2.066-.158-2.888-1.248-.246-1.918-.045a1.316,1.316,0,0,0-.878,1.629,9.513,9.513,0,0,0,1.687,2Z" transform="translate(-161.038 -80.739)" fill="#ffa36c"/>
        <path id="Caminho_187643" data-name="Caminho 187643" d="M236.666,117.27a2.461,2.461,0,0,0,.685-1.6c-.07-.811-.935-.651-.935-.651Z" transform="translate(-168.077 -81.763)" fill="#ffa36c"/>
        <path id="Caminho_187644" data-name="Caminho 187644" d="M231.339,125.444l1.989-1.086s3.119,5.245,3.381,6.419.191,2.082-.655,2.445-2.165-.1-2.84-1.8S231.339,125.444,231.339,125.444Z" transform="translate(-164.467 -88.41)" fill="#271b5f"/>
        <path id="Caminho_187645" data-name="Caminho 187645" d="M12.778,93.349a3.785,3.785,0,0,1-1.039-2.243,3.066,3.066,0,0,1,3-2.809l1.865-.071s1.381-1.039,1.776-.8.112,1.275.112,1.275.7-.4.88-.095-.313,1.133-.313,1.133l-.118,2.526Z" transform="translate(-8.346 -62.127)" fill="#763900"/>
        <path id="Caminho_187646" data-name="Caminho 187646" d="M5.147,125.482a8.361,8.361,0,0,0-3.821,3.188c-1.7,2.489-1.834,6.157,0,7.4a20.915,20.915,0,0,0,2.869,1.7l1.323-1.244a16.4,16.4,0,0,1-2.126-2.555c-.429-.852,2.126-3.537,2.126-3.537Z" transform="translate(0 -89.21)" fill="#0082fb"/>
        <path id="Caminho_187647" data-name="Caminho 187647" d="M12.084,163.7a1.469,1.469,0,0,1,0,2.379c-1.357,1.408-2.4,1.916-2.759,1.369s.425-.469.933-1.095a2.445,2.445,0,0,0,.5-1.408Z" transform="translate(-6.565 -116.382)" fill="#ffa36c"/>
        <path id="Caminho_187648" data-name="Caminho 187648" d="M4.613,247.989s-2.46,1.268-3.03,1.489-.538.506,0,.728a41.541,41.541,0,0,0,5.253,0c.759,0,.621-1.3.374-2.217Z" transform="translate(-0.83 -176.304)" fill="#763900"/>
        <path id="Caminho_187649" data-name="Caminho 187649" d="M42.121,247.989s2.46,1.268,3.03,1.489.538.506,0,.728a41.541,41.541,0,0,1-5.253,0c-.759,0-.621-1.3-.374-2.217Z" transform="translate(-27.959 -176.304)" fill="#763900"/>
        <path id="Caminho_187650" data-name="Caminho 187650" d="M14.061,167.639s-2.107,8.957-1.365,23.12h2.6s1.942-13.4,2.239-16.374c0,0,2.338,14.642,2.894,16.374h2.648S22.75,174.4,21.3,167.49Z" transform="translate(-8.914 -119.075)" fill="#271b5f"/>
        <path id="Caminho_187651" data-name="Caminho 187651" d="M14.667,98.525s-.619-.619-1.083-.193-.116,2.476,1.47,1.973a2.452,2.452,0,0,0,2.4,1.547c1.663-.232,1.9-1.547,2.166-2.476a1.19,1.19,0,0,0,.928-1.194c0-1.011-.619-1.32-1.161-.818,0,0-.31-2.94-2.9-2.437S14.667,98.525,14.667,98.525Z" transform="translate(-9.522 -67.446)" fill="#ffa36c"/>
        <path id="Caminho_187652" data-name="Caminho 187652" d="M21.865,113.778l.4,3.329,1.771.283,1.346-1.015-.354-3.3Z" transform="translate(-15.545 -80.385)" fill="#ffa36c"/>
        <path id="Caminho_187653" data-name="Caminho 187653" d="M36.248,109.357s4.987-2.727,7.28-5.478l1.376,1.79a50.59,50.59,0,0,1-6.616,7.773C34.553,116.914,36.248,109.357,36.248,109.357Z" transform="translate(-25.497 -73.851)" fill="#0082fb"/>
        <path id="Caminho_187654" data-name="Caminho 187654" d="M20.676,119.6a40.552,40.552,0,0,1,.59,7.847c-.2,3.461.2,6.015-.852,6.146s-5.97,0-6.922,0S11.739,122.3,11.739,122.3l1.754-1,3.155.088,2.448-.855Z" transform="translate(-8.346 -85.026)" fill="#0082fb"/>
        <path id="Caminho_187655" data-name="Caminho 187655" d="M26.114,126.933l.331,1.1H27.8l.157-1.263-1.091-.985Z" transform="translate(-18.566 -89.427)" fill="#ff3f25"/>
        <path id="Caminho_187656" data-name="Caminho 187656" d="M24.779,133.565s-.511,5.481-1.008,7.906c0,0,1.375,1.616,1.889,2.1l1.607-2.129-1.13-7.875H24.779Z" transform="translate(-16.9 -94.956)" fill="#ff3f25"/>
        <path id="Caminho_187657" data-name="Caminho 187657" d="M62.374,102.632l.448-.507,1.287,1.4-.36.893Z" transform="translate(-44.344 -72.604)" fill="#98cdef"/>
        <path id="Caminho_187658" data-name="Caminho 187658" d="M62.114,85.683c-.429.195.587,3.444.587,3.827a4.352,4.352,0,0,1-.139.9l1.287,1.4s1.148-1.126.974-1.926-1.069-1.461-1.385-2.056S62.748,85.4,62.114,85.683Z" transform="translate(-44.084 -60.894)" fill="#ffa36c"/>
        <path id="Caminho_187659" data-name="Caminho 187659" d="M19.774,124.645l1.189-1.8-1.769-1.2-1.386,1.11Z" transform="translate(-12.66 -86.48)" fill="#b3e2fc"/>
        <path id="Caminho_187660" data-name="Caminho 187660" d="M30.091,119.1l-1.367,1.934,1.535,1.386.913-2.241Z" transform="translate(-20.421 -84.67)" fill="#b3e2fc"/>
        <path id="Caminho_187661" data-name="Caminho 187661" d="M14.536,95.62s.416,1.96.8,1.844.149-2.137.149-2.137a14.454,14.454,0,0,1,2.144-.506,9.313,9.313,0,0,1,1.86-.144s.407,2.151.69,2.056.474-.855.309-2.248-2.835-1.411-3.4-1.222S14.278,94.258,14.536,95.62Z" transform="translate(-10.32 -66.243)" fill="#763900"/>
        <path id="Caminho_187662" data-name="Caminho 187662" d="M121.726,168.024H109.854a1.607,1.607,0,0,0-1.607,1.607v5.748a1.607,1.607,0,0,0,1.607,1.607H111.3a4.649,4.649,0,0,0,8.974,0h1.449a1.607,1.607,0,0,0,1.607-1.607v-5.748A1.607,1.607,0,0,0,121.726,168.024Z" transform="translate(-76.957 -119.454)" fill="#271b5f"/>
        <circle id="Elipse_5753" data-name="Elipse 5753" cx="1.3" cy="1.3" r="1.3" transform="translate(22.047 45.062)" fill="#b3e2fc"/>
        <circle id="Elipse_5754" data-name="Elipse 5754" cx="1.3" cy="1.3" r="1.3" transform="translate(60.699 3.649)" fill="#ffbc00"/>
        <circle id="Elipse_5755" data-name="Elipse 5755" cx="1.3" cy="1.3" r="1.3" transform="translate(11.886 1.476)" fill="#ff3f25"/>
        <path id="Caminho_187663" data-name="Caminho 187663" d="M231.744,46.763h-.852v-.852a.65.65,0,1,0-1.3,0v.852h-.852a.65.65,0,1,0,0,1.3h.852v.852a.65.65,0,1,0,1.3,0v-.852h.852a.65.65,0,1,0,0-1.3Z" transform="translate(-162.158 -32.178)" fill="#0082fb"/>
        <path id="Caminho_187664" data-name="Caminho 187664" d="M29.885,58.717h-.852v-.852a.65.65,0,1,0-1.3,0v.852h-.852a.65.65,0,1,0,0,1.3h.852v.852a.65.65,0,1,0,1.3,0v-.852h.852a.65.65,0,1,0,0-1.3Z" transform="translate(-18.649 -40.676)" fill="#ffbc00"/>
      </g>
    </g>
    <g id="Grupo_126524" data-name="Grupo 126524" transform="translate(0 -345.564)">
      <g id="Elipse_5747" data-name="Elipse 5747" transform="translate(851 3743)" fill="#fff" stroke="#707070" stroke-width="6">
        <circle cx="69" cy="69" r="69" stroke="none"/>
        <circle cx="69" cy="69" r="66" fill="none"/>
      </g>
      <g id="_3937895_business_concept_plan_strategic_strategy_icon" data-name="3937895_business_concept_plan_strategic_strategy_icon" transform="translate(883.514 3771.75)">
        <path id="Caminho_187665" data-name="Caminho 187665" d="M220.6,168.094a25.368,25.368,0,0,0-1.044,9.208c.327,5.373,1.044,13.3,1.044,13.3h2.148l.955-17.915v-4.33Z" transform="translate(-156.933 -120.179)" fill="#271b5f"/>
        <path id="Caminho_187666" data-name="Caminho 187666" d="M233.8,168.258a8,8,0,0,1,1.2,3.841c.239,2.56-2.125,18.483-2.125,18.483h-2.235l-1.428-18.443.415-4.043Z" transform="translate(-163.88 -120.18)" fill="#271b5f"/>
        <path id="Caminho_187667" data-name="Caminho 187667" d="M223.066,128.428a5.86,5.86,0,0,0-3.771,1.5c-.647.477-.288,4.564,0,6.53s.216,3.44,1.51,3.44,4.782.324,5.645,0,1.654-9.025.9-9.816A5.765,5.765,0,0,0,223.066,128.428Z" transform="translate(-156.526 -91.819)" fill="#ffbc00"/>
        <path id="Caminho_187668" data-name="Caminho 187668" d="M229.465,128.428a4.807,4.807,0,0,0-1.506.214c0,.012-.584,2.317,1.506,2.317a2.582,2.582,0,0,0,2.368-2.118A7.115,7.115,0,0,0,229.465,128.428Z" transform="translate(-162.925 -91.819)" fill="#ffa36c"/>
        <path id="Caminho_187669" data-name="Caminho 187669" d="M211.908,133.693c-1.043.98-1.51,3.342-2.121,6.53s-1.187,5.094-1.187,5.094.827.5,1.258.719a25.649,25.649,0,0,0,2.561-5.106C213.2,138.52,211.908,133.693,211.908,133.693Z" transform="translate(-149.139 -95.584)" fill="#ffbc00"/>
        <path id="Caminho_187670" data-name="Caminho 187670" d="M223.993,103.176a2.361,2.361,0,0,0-2,2.631,4.781,4.781,0,0,0,.063.761,5.387,5.387,0,0,0,1.117,2.58,1.238,1.238,0,0,0,1.075.5,4.128,4.128,0,0,0,2.195-1.3,3.388,3.388,0,0,0,.926-1.933A2.884,2.884,0,0,0,223.993,103.176Z" transform="translate(-158.718 -73.73)" fill="#ffa36c"/>
        <path id="Caminho_187671" data-name="Caminho 187671" d="M225.476,103.114c-.305,1.847-1.876,3.258-1.918,2.631a12.581,12.581,0,0,0-.359-1.565c-.291-1.072-.647-2.26-.647-2.26a4.066,4.066,0,0,1-2.357-1.44,4.469,4.469,0,0,1-1.445,1.157,4.781,4.781,0,0,0,.063.761,5.386,5.386,0,0,0,1.117,2.58s-.476,1.22-.955,1.191-1.049-1.893-1.442-3.948a4.556,4.556,0,0,1,1.573-4.318,2.252,2.252,0,0,1,1.876-.174s.262-.436,1.4-.436C225.345,97.293,225.784,101.264,225.476,103.114Z" transform="translate(-155.469 -69.56)" fill="#ff3f25"/>
        <path id="Caminho_187672" data-name="Caminho 187672" d="M228.794,121.614l.26,2.408,2.385-.236-.213-3.363Z" transform="translate(-163.577 -86.097)" fill="#ffa36c"/>
        <path id="Caminho_187673" data-name="Caminho 187673" d="M205.369,175.189s.284,1.539-.217,2.19-.35-.576-.576-.951-.551,1.5-1.026,1.5a1.624,1.624,0,0,1-1.229-1.37c-.022-.632,1.79-2.09,1.79-2.09Z" transform="translate(-144.649 -124.738)" fill="#ffa36c"/>
        <path id="Caminho_187674" data-name="Caminho 187674" d="M214.5,247.061a9.1,9.1,0,0,1-2.441,1.491c-.989.275-1.978,1.054.33,1.054s3.544,0,3.983,0,.742-.64.577-1.274-.3-1.274-.3-1.274Z" transform="translate(-150.839 -176.637)" fill="#763900"/>
        <path id="Caminho_187675" data-name="Caminho 187675" d="M225.681,247.061a9.1,9.1,0,0,1-2.441,1.491c-.989.275-1.978,1.054.33,1.054s3.544,0,3.983,0,.742-.64.577-1.274-.3-1.274-.3-1.274Z" transform="translate(-158.831 -176.637)" fill="#763900"/>
        <path id="Caminho_187676" data-name="Caminho 187676" d="M217.909,134.07l6.04-.323a.322.322,0,0,1,.337.28l1,7.79a.322.322,0,0,1-.3.363l-6.014.329a.322.322,0,0,1-.337-.279l-1.028-7.8A.322.322,0,0,1,217.909,134.07Z" transform="translate(-155.576 -95.623)" fill="#fff"/>
        <path id="Caminho_187677" data-name="Caminho 187677" d="M233.941,133.733a7.473,7.473,0,0,1,1.978,6.616c-.719,2.733-1.726,3.02-3.488,2.193a21.22,21.22,0,0,1-4.279-3.344l.719-1.618s3.128,2.174,3.56,2.04S231.963,132.258,233.941,133.733Z" transform="translate(-163.118 -95.471)" fill="#ffbc00"/>
        <path id="Caminho_187678" data-name="Caminho 187678" d="M221.449,142.882a4.707,4.707,0,0,0-.719-.9c-.342-.29-.788-1.2-1.056-1s-.044.781.156,1.115-1.539-.6-1.829.044-.468,1.65.491,1.963a5.774,5.774,0,0,0,2.421,0Z" transform="translate(-155.695 -100.773)" fill="#ffa36c"/>
        <path id="Caminho_187679" data-name="Caminho 187679" d="M46.118,89.155H2.17A2.17,2.17,0,0,1,0,86.985V24.8a2.17,2.17,0,0,1,2.17-2.17H46.118a2.17,2.17,0,0,1,2.17,2.17V86.985A2.169,2.169,0,0,1,46.118,89.155Z" transform="translate(0 -16.182)" fill="#f3cbaf"/>
        <rect id="Retângulo_90896" data-name="Retângulo 90896" width="57.969" height="39.737" transform="translate(44.012 9.872) rotate(90)" fill="#fff"/>
        <path id="Caminho_187680" data-name="Caminho 187680" d="M65.9,24.264H45.886a1.477,1.477,0,0,1-1.477-1.477v-4.14a1.526,1.526,0,0,1,1.526-1.526H65.854a1.526,1.526,0,0,1,1.526,1.526v4.14A1.478,1.478,0,0,1,65.9,24.264Z" transform="translate(-31.75 -12.24)" fill="#98cdef"/>
        <circle id="Elipse_5756" data-name="Elipse 5756" cx="4.786" cy="4.786" r="4.786" transform="translate(19.358 0)" fill="#98cdef"/>
        <path id="Caminho_187681" data-name="Caminho 187681" d="M42.277,119.8l2.776-2.707a1.425,1.425,0,1,0-1.99-2.041l-2.776,2.707-2.707-2.777a1.425,1.425,0,0,0-2.041,1.99l2.707,2.777L35.47,122.46a1.425,1.425,0,1,0,1.99,2.041l2.776-2.707,2.707,2.776a1.425,1.425,0,0,0,2.041-1.99Z" transform="translate(-25.052 -81.902)" fill="#ff3f25"/>
        <path id="Caminho_187682" data-name="Caminho 187682" d="M90.411,182.548l2.776-2.707A1.425,1.425,0,1,0,91.2,177.8l-2.777,2.707-2.707-2.776a1.425,1.425,0,0,0-2.041,1.99L86.38,182.5,83.6,185.2a1.425,1.425,0,1,0,1.99,2.041l2.777-2.707,2.707,2.776a1.425,1.425,0,0,0,2.041-1.99Z" transform="translate(-59.465 -126.761)" fill="#ff3f25"/>
        <path id="Caminho_187683" data-name="Caminho 187683" d="M63.025,79.482l-7.519-.6a1.425,1.425,0,0,0-1.535,1.535l.6,7.519a1.426,1.426,0,0,0,1.419,1.311c.038,0,.077,0,.116,0A1.425,1.425,0,0,0,57.417,87.7l-.309-3.838A7.6,7.6,0,0,1,59.169,90.3c-.785,4.432-5.916,8.926-12.476,10.931-5.19,1.585-8.686,4.461-10.391,8.547a18.306,18.306,0,0,0-.585,11,1.425,1.425,0,0,0,2.783-.619c-1.276-5.742-.746-13.213,9.026-16.2a26.426,26.426,0,0,0,9.3-5.024A14.331,14.331,0,0,0,61.976,90.8,10.349,10.349,0,0,0,59.3,82.042l3.5.281a1.425,1.425,0,1,0,.229-2.841Z" transform="translate(-25.136 -56.39)" fill="#0082fb"/>
        <path id="Caminho_187684" data-name="Caminho 187684" d="M51.974,69.486a6.354,6.354,0,1,1,6.354-6.354A6.361,6.361,0,0,1,51.974,69.486Zm0-9.857a3.5,3.5,0,1,0,3.5,3.5A3.508,3.508,0,0,0,51.974,59.628Z" transform="translate(-32.616 -40.594)" fill="#0082fb"/>
        <path id="Caminho_187685" data-name="Caminho 187685" d="M186.192,165.955s1.176,3.011,0,5.3-.685,8.353-.464,10.17,1.934,7.654,1.934,7.654h-2.49s-2.648-4.591-3.27-7.81a61.267,61.267,0,0,1,0-14.479Z" transform="translate(-129.743 -118.65)" fill="#ff3f25"/>
        <path id="Caminho_187686" data-name="Caminho 187686" d="M189.621,121.026c2.038,1.373,4.186,4.3,3.828,6.8a10.715,10.715,0,0,1-2.455,4.8Z" transform="translate(-135.57 -86.528)" fill="#271b5f"/>
        <path id="Caminho_187687" data-name="Caminho 187687" d="M156.4,92.559c-1.858.3-2.6,2.741-1.951,5.018s1.719,2.9,2.184,2.626.669-.343.948.122l.929,1.552,2.49-.954a7.3,7.3,0,0,1-1.022-2.834C159.743,96.415,161.6,91.722,156.4,92.559Z" transform="translate(-110.256 -66.104)" fill="#ffa36c"/>
        <path id="Caminho_187688" data-name="Caminho 187688" d="M150.892,94.321a11.95,11.95,0,0,0,1.686,2.2,2.207,2.207,0,0,0,2.187.166c.458-.373.293-2.279.293-2.279a1.8,1.8,0,0,0,.426-2.061,1.606,1.606,0,0,0-.178-2.149,4.534,4.534,0,0,0-5.826-.744s-1.9-.7-2.4-.083.62,1.488.62,1.488-1.2.372-1.2.909,1.57,1.036,1.57,1.036-.537,1.071-.041,1.2S150.388,93.507,150.892,94.321Z" transform="translate(-104.743 -63.417)" fill="#271b5f"/>
        <path id="Caminho_187689" data-name="Caminho 187689" d="M155.482,123.48a2.693,2.693,0,0,1,.836-2.419,9.736,9.736,0,0,1,4.253-2.4c2.947-.641,4.8.18,5.188,1.275a60.106,60.106,0,0,1,1.666,9.358c0,1.794.7,2.818-.833,3.267s-6.021,1.345-6.918.769C158.878,132.813,156.116,127.455,155.482,123.48Z" transform="translate(-111.138 -84.672)" fill="#0082fb"/>
        <path id="Caminho_187690" data-name="Caminho 187690" d="M138.392,130.07c1.453.289,2.538,3.887,1,6.239a6.3,6.3,0,0,1-5.531,3.171,11.894,11.894,0,0,1-4.705-1.534,1.718,1.718,0,0,1,1.125-2.148s2.833.869,3.989.256S135.817,129.559,138.392,130.07Z" transform="translate(-92.293 -92.971)" fill="#271b5f"/>
        <path id="Caminho_187691" data-name="Caminho 187691" d="M168.073,169.505a4.712,4.712,0,0,1,.851,3.245,3.653,3.653,0,0,1-2.388,3.115s-2.6,6.9-2.6,8.613a59.283,59.283,0,0,0,1.194,7.112s-1.765.052-2.6,0a16.879,16.879,0,0,1-2.388-10.382,53.2,53.2,0,0,1,2.816-11.367Z" transform="translate(-114.431 -121.188)" fill="#ff3f25"/>
        <path id="Caminho_187692" data-name="Caminho 187692" d="M161.178,246.98a8.745,8.745,0,0,1,.4,1.311c.072.467.611,1.257-1.9,1.257h-4.526c-.611,0-.9-.754-.287-.97s2.885-.359,3.724-1.6Z" transform="translate(-110.474 -176.579)" fill="#271b5f"/>
        <path id="Caminho_187693" data-name="Caminho 187693" d="M186.012,247.061a3.816,3.816,0,0,1-1.6,1.108c-.97.323-1.868.359-1.76.934s1.228.5,2.751.5h2.781c.682,0,1.194-.472.754-1.509l-.44-1.036Z" transform="translate(-130.584 -176.637)" fill="#271b5f"/>
        <path id="Caminho_187694" data-name="Caminho 187694" d="M121.333,142.717s-.34-.655-.56-1.039-.514-1.962-.918-1.962-.367,1.065-.367,1.652-2.827-1.359-2.9-.844.367.808,1.1,1.4c0,0-.294,1.983.771,2.166s1.688.294,1.688.294Z" transform="translate(-83.349 -99.89)" fill="#ffa36c"/>
        <path id="Caminho_187695" data-name="Caminho 187695" d="M159.1,104.712s.179-.852.884-.692.961,1.442.417,2.051-.833.417-.833.417Z" transform="translate(-113.75 -74.355)" fill="#ffa36c"/>
        <path id="Caminho_187696" data-name="Caminho 187696" d="M156.652,102.226s.682,1.646.938,1.624,0-2.331,0-2.331Z" transform="translate(-111.999 -72.58)" fill="#271b5f"/>
      </g>
    </g>
  </g>
</svg>
